# Blender 4.3.2
# www.blender.org
o Core
v 0.337500 -0.337500 -0.112500
v 0.112500 -0.337500 -0.337500
v 0.337500 -0.112500 -0.337500
v 0.337500 -0.112500 0.337500
v 0.112500 -0.337500 0.337500
v 0.337500 -0.337500 0.112500
v -0.337500 -0.112500 0.337500
v -0.337500 -0.337500 0.112500
v -0.112500 -0.337500 0.337500
v -0.337500 -0.112500 -0.337500
v -0.112500 -0.337500 -0.337500
v -0.337500 -0.337500 -0.112500
v -0.337500 0.337500 0.112500
v -0.337500 0.112500 0.337500
v -0.112500 0.337500 0.337500
v 0.112500 0.337500 0.337500
v 0.337500 0.112500 0.337500
v 0.337500 0.337500 0.112500
v -0.337500 0.112500 -0.337500
v -0.337500 0.337500 -0.112500
v -0.112500 0.337500 -0.337500
v 0.112500 0.337500 -0.337500
v 0.337500 0.337500 -0.112500
v 0.337500 0.112500 -0.337500
v 0.000000 0.125000 -0.337500
v 0.088388 0.088388 -0.337500
v 0.125000 0.000000 -0.337500
v 0.088388 -0.088388 -0.337500
v 0.000000 -0.125000 -0.337500
v -0.088388 -0.088388 -0.337500
v -0.125000 0.000000 -0.337500
v -0.088388 0.088388 -0.337500
v 0.088388 0.088388 -0.650000
v 0.000000 0.125000 -0.650000
v 0.125000 0.000000 -0.650000
v 0.088388 -0.088388 -0.650000
v 0.000000 -0.125000 -0.650000
v -0.088388 -0.088388 -0.650000
v -0.125000 0.000000 -0.650000
v -0.088388 0.088388 -0.650000
v 0.066291 0.066291 -0.650000
v 0.000000 0.093750 -0.650000
v 0.093750 0.000000 -0.650000
v 0.066291 -0.066291 -0.650000
v 0.000000 -0.093750 -0.650000
v -0.066291 -0.066291 -0.650000
v -0.093750 0.000000 -0.650000
v -0.066291 0.066291 -0.650000
v 0.066291 0.066291 -0.900000
v 0.000000 0.093750 -0.900000
v 0.093750 0.000000 -0.900000
v 0.066291 -0.066291 -0.900000
v 0.000000 -0.093750 -0.900000
v -0.066291 -0.066291 -0.900000
v -0.093750 0.000000 -0.900000
v -0.066291 0.066291 -0.900000
vn -0.0000 -0.0000 1.0000
vn -0.0000 -0.0000 -1.0000
vn -0.0000 -1.0000 -0.0000
vn -1.0000 -0.0000 -0.0000
vn -0.0000 1.0000 -0.0000
vn 0.5774 -0.5774 -0.5774
vn 0.5774 -0.5774 0.5774
vn -0.5774 -0.5774 0.5774
vn -0.5774 -0.5774 -0.5774
vn -0.5774 0.5774 0.5774
vn 0.5774 0.5774 0.5774
vn -0.5774 0.5774 -0.5774
vn 0.5774 0.5774 -0.5774
vn 1.0000 -0.0000 -0.0000
vn 0.3827 -0.9239 -0.0000
vn -0.9239 0.3827 -0.0000
vn -0.3827 -0.9239 -0.0000
vn 0.9239 -0.3827 -0.0000
vn 0.3827 0.9239 -0.0000
vn -0.3827 0.9239 -0.0000
vn -0.9239 -0.3827 -0.0000
vn 0.9239 0.3827 -0.0000
vt 0.312500 0.062500
vt 0.062500 0.187500
vt 0.187500 0.437500
vt 0.062500 0.312500
vt 0.187500 0.062500
vt 0.437500 0.187500
vt 0.312500 0.437500
vt 0.437500 0.312500
vt 0.062500 0.062500
vt 0.437500 0.062500
vt 0.437500 0.437500
vt 0.062500 0.437500
vt 0.656250 0.000000
vt 0.781250 0.062500
vt 0.656250 0.062500
vt 0.375000 0.500000
vt 0.437500 0.531250
vt 0.406250 0.531250
vt 0.500000 0.625000
vt 0.656250 0.750000
vt 0.500000 0.750000
vt 0.500000 0.875000
vt 0.656250 1.000000
vt 0.500000 1.000000
vt 0.500000 0.125000
vt 0.656250 0.250000
vt 0.500000 0.250000
vt 0.500000 0.375000
vt 0.656250 0.500000
vt 0.500000 0.500000
vt 0.656250 0.625000
vt 0.656250 0.875000
vt 0.500000 0.000000
vt 0.656250 0.125000
vt 0.656250 0.312500
vt 0.781250 0.375000
vt 0.656250 0.375000
vt 0.781250 0.437500
vt 0.656250 0.437500
vt 0.468750 0.562500
vt 0.468750 0.531250
vt 0.437500 0.593750
vt 0.468750 0.593750
vt 0.406250 0.562500
vt 0.375000 0.562500
vt 0.437500 0.500000
vt 0.500000 0.562500
vt 0.375000 0.625000
vt 0.406250 0.593750
vt 0.781250 0.187500
vt 0.656250 0.187500
vt 0.781250 0.500000
vt 0.781250 0.125000
vt 0.781250 0.250000
vt 0.781250 0.312500
vt 0.437500 0.625000
vt 0.781250 0.000000
s 1
f 9/1/1 4/2/1 16/3/1
f 24/4/2 2/5/2 10/6/2
f 8/6/3 11/7/3 1/4/3
f 12/4/4 7/5/4 13/6/4
f 18/2/5 22/3/5 20/8/5
f 1/9/6 2/5/6 3/2/6
f 4/2/7 5/5/7 6/9/7
f 7/6/8 8/10/8 9/1/8
f 10/6/9 11/1/9 12/10/9
f 13/11/10 14/8/10 15/7/10
f 16/3/11 17/4/11 18/12/11
f 19/8/12 20/11/12 21/7/12
f 22/3/13 23/12/13 24/4/13
f 6/2/14 3/3/14 23/8/14
f 45/13/15 52/14/15 44/15/15
f 36/16/2 45/17/2 44/18/2
f 32/19/16 39/20/16 31/21/16
f 30/22/17 37/23/17 29/24/17
f 28/25/18 35/26/18 27/27/18
f 26/28/19 34/29/19 25/30/19
f 25/30/20 40/31/20 32/19/20
f 31/21/21 38/32/21 30/22/21
f 29/33/15 36/34/15 28/25/15
f 48/35/16 55/36/16 47/37/16
f 47/37/21 54/38/21 46/39/21
f 38/30/2 47/40/2 46/41/2
f 40/19/2 42/42/2 48/43/2
f 36/16/2 43/44/2 35/45/2
f 38/30/2 45/17/2 37/46/2
f 40/19/2 47/40/2 39/47/2
f 33/48/2 43/44/2 41/49/2
f 43/34/22 49/50/22 41/51/22
f 51/44/2 55/40/2 50/42/2
f 46/39/17 53/52/17 45/29/17
f 44/15/18 51/53/18 43/34/18
f 41/51/19 50/54/19 42/26/19
f 42/26/20 56/55/20 48/35/20
f 26/28/22 35/26/22 33/37/22
f 33/48/2 42/42/2 34/56/2
f 50/42/2 49/49/2 51/44/2
f 51/44/2 52/18/2 53/17/2
f 53/17/2 54/41/2 55/40/2
f 55/40/2 56/43/2 50/42/2
f 16/3/1 15/7/1 14/8/1
f 14/8/1 7/6/1 9/1/1
f 9/1/1 5/5/1 4/2/1
f 4/2/1 17/4/1 16/3/1
f 16/3/1 14/8/1 9/1/1
f 10/6/2 19/8/2 21/7/2
f 21/7/2 22/3/2 24/4/2
f 24/4/2 3/2/2 2/5/2
f 2/5/2 11/1/2 10/6/2
f 10/6/2 21/7/2 24/4/2
f 1/4/3 6/2/3 5/5/3
f 5/5/3 9/1/3 8/6/3
f 8/6/3 12/8/3 11/7/3
f 11/7/3 2/3/3 1/4/3
f 1/4/3 5/5/3 8/6/3
f 13/6/4 20/8/4 19/7/4
f 19/7/4 10/3/4 12/4/4
f 12/4/4 8/2/4 7/5/4
f 7/5/4 14/1/4 13/6/4
f 13/6/4 19/7/4 12/4/4
f 20/8/5 13/6/5 15/1/5
f 15/1/5 16/5/5 18/2/5
f 18/2/5 23/4/5 22/3/5
f 22/3/5 21/7/5 20/8/5
f 20/8/5 15/1/5 18/2/5
f 23/8/14 18/6/14 17/1/14
f 17/1/14 4/5/14 6/2/14
f 6/2/14 1/4/14 3/3/14
f 3/3/14 24/7/14 23/8/14
f 23/8/14 17/1/14 6/2/14
f 45/13/15 53/57/15 52/14/15
f 36/16/2 37/46/2 45/17/2
f 32/19/16 40/31/16 39/20/16
f 30/22/17 38/32/17 37/23/17
f 28/25/18 36/34/18 35/26/18
f 26/28/19 33/37/19 34/29/19
f 25/30/20 34/29/20 40/31/20
f 31/21/21 39/20/21 38/32/21
f 29/33/15 37/13/15 36/34/15
f 48/35/16 56/55/16 55/36/16
f 47/37/21 55/36/21 54/38/21
f 38/30/2 39/47/2 47/40/2
f 40/19/2 34/56/2 42/42/2
f 36/16/2 44/18/2 43/44/2
f 38/30/2 46/41/2 45/17/2
f 40/19/2 48/43/2 47/40/2
f 33/48/2 35/45/2 43/44/2
f 43/34/22 51/53/22 49/50/22
f 51/44/2 53/17/2 55/40/2
f 46/39/17 54/38/17 53/52/17
f 44/15/18 52/14/18 51/53/18
f 41/51/19 49/50/19 50/54/19
f 42/26/20 50/54/20 56/55/20
f 26/28/22 27/27/22 35/26/22
f 33/48/2 41/49/2 42/42/2
o Frame
v 0.500000 -0.500000 0.500000
v 0.500000 0.500000 0.500000
v -0.500000 -0.500000 0.500000
v -0.500000 0.500000 0.500000
v 0.156250 -0.156250 0.500000
v 0.156250 0.156250 0.500000
v -0.156250 -0.156250 0.500000
v -0.156250 0.156250 0.500000
v 0.500000 -0.500000 0.375000
v 0.500000 0.500000 0.375000
v -0.500000 -0.500000 0.375000
v 0.375000 0.375000 0.500000
v -0.375000 -0.375000 0.500000
v -0.500000 0.500000 0.375000
v 0.156250 -0.156250 0.375000
v -0.156250 -0.156250 0.375000
v -0.375000 -0.375000 0.375000
v -0.375000 0.375000 0.375000
v 0.375000 -0.375000 0.500000
v -0.375000 0.375000 0.500000
v 0.156250 0.156250 0.375000
v -0.156250 0.156250 0.375000
v 0.375000 -0.375000 0.375000
v 0.375000 0.375000 0.375000
v -0.156250 0.156250 0.156250
v -0.156250 -0.156250 0.156250
v 0.156250 -0.156250 0.156250
v 0.156250 0.156250 0.156250
vn -0.0000 -0.0000 1.0000
vn -0.0000 1.0000 -0.0000
vn -0.0000 -1.0000 -0.0000
vn 1.0000 -0.0000 -0.0000
vn -1.0000 -0.0000 -0.0000
vn -0.0000 -0.0000 -1.0000
vt 0.437500 0.062500
vt 0.000000 -0.000000
vt 0.500000 -0.000000
vt 0.062500 0.062500
vt 0.000000 0.500000
vt 0.500000 0.437500
vt 0.500000 0.500000
vt 0.000000 0.062500
vt 0.062500 -0.000000
vt 0.437500 0.500000
vt 0.437500 -0.000000
vt 0.375000 0.531250
vt 0.375000 0.500000
vt 0.000000 0.531250
vt 0.000000 0.687500
vt 0.156250 0.531250
vt 0.156250 0.687500
vt 0.062500 0.437500
vt 0.156250 0.718750
vt 0.000000 0.718750
vt 0.000000 0.437500
vt 0.500000 0.062500
vt 0.062500 0.500000
vt 0.437500 0.437500
s 1
f 75/58/23 59/59/23 57/60/23
f 69/61/23 60/62/23 59/59/23
f 58/62/24 70/63/24 60/64/24
f 59/60/25 65/65/25 57/59/25
f 65/66/26 58/62/26 57/59/26
f 58/64/23 75/58/23 57/60/23
f 59/60/27 70/67/27 67/68/27
f 73/69/28 65/62/28 67/70/28
f 66/70/28 74/71/28 70/62/28
f 75/71/24 73/70/24 69/69/24
f 74/62/25 68/69/25 76/71/25
f 74/62/28 67/69/28 70/71/28
f 69/70/26 74/71/26 76/62/26
f 80/69/27 75/62/27 68/70/27
f 65/71/28 80/70/28 66/69/28
f 64/72/23 61/73/23 62/74/23
f 76/75/23 58/64/23 60/62/23
f 77/76/24 64/72/24 62/74/24
s 0
f 63/72/27 78/76/27 72/77/27
f 61/72/25 72/76/25 71/77/25
f 61/74/26 77/77/26 62/72/26
s 1
f 71/74/26 84/77/26 77/72/26
f 77/74/24 81/77/24 78/72/24
f 81/76/27 72/72/27 78/74/27
f 82/76/25 71/72/25 72/74/25
f 75/58/23 69/61/23 59/59/23
f 69/61/23 76/75/23 60/62/23
f 58/62/24 66/78/24 70/63/24
f 59/60/25 67/79/25 65/65/25
f 65/66/26 66/80/26 58/62/26
f 58/64/23 68/81/23 75/58/23
f 59/60/27 60/64/27 70/67/27
f 73/69/28 79/71/28 65/62/28
f 66/70/28 80/69/28 74/71/28
f 75/71/24 79/62/24 73/70/24
f 74/62/25 80/70/25 68/69/25
f 74/62/28 73/70/28 67/69/28
f 69/70/26 73/69/26 74/71/26
f 80/69/27 79/71/27 75/62/27
f 65/71/28 79/62/28 80/70/28
f 64/72/23 63/71/23 61/73/23
f 76/75/23 68/81/23 58/64/23
f 77/76/24 78/77/24 64/72/24
s 0
f 63/72/27 64/74/27 78/76/27
f 61/72/25 63/74/25 72/76/25
f 61/74/26 71/76/26 77/77/26
s 1
f 71/74/26 83/76/26 84/77/26
f 77/74/24 84/76/24 81/77/24
f 81/76/27 82/77/27 72/72/27
f 82/76/25 83/77/25 71/72/25
o Arm
v -0.375000 0.406250 0.375000
v 0.093750 0.406250 0.156250
v -0.093750 0.406250 0.156250
v -0.250000 0.406250 0.375000
v 0.250000 0.406250 0.375000
v -0.105469 0.406250 0.210937
v 0.105469 0.406250 0.210938
v -0.250000 0.375000 0.375000
v 0.250000 0.375000 0.375000
v -0.105469 0.375000 0.210937
v 0.105469 0.375000 0.210938
v -0.156250 0.406250 0.156250
v 0.156250 0.406250 0.156250
v 0.375000 0.406250 0.375000
v -0.156250 0.468750 0.156250
v 0.156250 0.468750 0.156250
v -0.375000 0.468750 0.375000
v 0.375000 0.468750 0.375000
v -0.093750 0.468750 0.156250
v 0.093750 0.468750 0.156250
v 0.250000 0.468750 0.375000
v -0.250000 0.468750 0.375000
v -0.210938 0.468750 0.210938
v 0.210937 0.468750 0.210937
v -0.210938 0.406250 0.210938
v 0.210937 0.406250 0.210937
v 0.105469 0.468750 0.210937
v -0.105469 0.468750 0.210938
v 0.250000 0.500000 0.375000
v -0.250000 0.500000 0.375000
v 0.105469 0.500000 0.210938
v -0.105469 0.500000 0.210938
vn -0.0000 -1.0000 -0.0000
vn -0.0000 -0.0000 -1.0000
vn 0.7504 -0.0000 -0.6610
vn -0.7504 -0.0000 -0.6610
vn -0.7071 -0.0000 -0.7071
vn -0.0000 1.0000 -0.0000
vn 0.7071 -0.0000 -0.7071
vt 0.156250 0.562500
vt 0.125000 0.531250
vt 0.156250 0.531250
vt 0.062500 0.531250
vt 0.125000 0.500000
vt 0.031250 0.531250
vt 0.000000 0.562500
vt 0.000000 0.531250
vt 0.125000 0.562500
vt 0.031250 0.562500
vt 0.031250 0.500000
vt 0.000000 0.500000
vt 0.437500 0.281250
vt 0.468750 0.125000
vt 0.468750 0.375000
vt 0.062500 0.500000
vt 0.781250 0.781250
vt 0.968750 0.593750
vt 0.781250 0.593750
vt 0.968750 0.781250
vt 0.968750 0.000000
vt 0.781250 0.000000
vt 0.437500 0.218750
s 0
f 96/82/29 90/83/29 109/84/29
f 91/85/30 94/86/30 90/83/30
f 109/82/29 88/83/29 85/84/29
f 89/87/29 110/88/29 98/89/29
f 91/84/29 97/90/29 110/83/29
f 87/91/29 91/89/29 90/87/29
f 93/92/31 91/89/31 89/93/31
f 94/94/29 93/95/29 92/96/29
f 94/97/32 88/87/32 90/92/32
f 99/98/33 109/99/33 107/100/33
f 100/82/34 111/83/34 108/84/34
f 112/85/30 115/86/30 111/83/30
f 108/100/35 97/101/35 100/98/35
f 107/100/33 85/102/33 101/103/33
f 108/82/34 105/83/34 102/84/34
f 106/87/34 107/88/34 101/89/34
f 112/84/34 99/90/34 107/83/34
f 104/91/34 112/89/34 111/87/34
f 114/92/32 112/89/32 106/93/32
f 115/94/34 114/95/34 113/96/34
f 115/97/31 105/87/31 111/92/31
f 98/102/35 108/100/35 102/103/35
f 96/82/29 87/90/29 90/83/29
f 91/85/30 95/97/30 94/86/30
f 109/82/29 90/90/29 88/83/29
f 89/87/29 91/91/29 110/88/29
f 91/84/29 86/82/29 97/90/29
f 87/91/29 86/88/29 91/89/29
f 93/92/31 95/87/31 91/89/31
f 94/94/29 95/104/29 93/95/29
f 94/97/32 92/85/32 88/87/32
f 99/98/33 96/101/33 109/99/33
f 100/82/34 104/90/34 111/83/34
f 112/85/30 116/97/30 115/86/30
f 108/100/35 110/99/35 97/101/35
f 107/100/33 109/99/33 85/102/33
f 108/82/34 111/90/34 105/83/34
f 106/87/34 112/91/34 107/88/34
f 112/84/34 103/82/34 99/90/34
f 104/91/34 103/88/34 112/89/34
f 114/92/32 116/87/32 112/89/32
f 115/94/34 116/104/34 114/95/34
f 115/97/31 113/85/31 105/87/31
f 98/102/35 110/99/35 108/100/35
