# Blender 4.3.2
# www.blender.org
o Cube_Cube.004
v -0.603802 0.214721 -0.009207
v 0.304173 -0.575069 -0.180487
v 0.425568 0.378464 -0.020013
v -0.548137 0.211282 -0.176955
v 0.345346 -0.404538 -0.202260
v -0.436308 0.171709 -0.045889
v 0.205328 -0.449854 -0.104324
v 0.298915 0.259528 0.012591
v -0.491607 0.338197 -0.067653
v 0.336148 0.117158 -0.195430
v 0.290631 0.359894 -0.132694
v 0.223820 -0.375282 -0.202925
v 0.288527 0.237004 -0.109923
v 0.368526 -0.273525 -0.222506
v 0.404014 0.127553 -0.192119
v -0.416101 -0.071036 -0.028533
v -0.548955 -0.132342 0.021815
v -0.536918 -0.068970 -0.088536
v -0.401566 -0.144566 0.011583
v -0.542887 -0.082885 -0.054045
v -0.448572 -0.143569 0.012350
v -0.451668 -0.071685 -0.090707
v 0.295652 -0.320912 -0.214989
v -0.416013 -0.040637 -0.063926
v 0.413077 0.233049 -0.119756
v -0.436125 0.253233 -0.140645
v 0.203019 0.302752 -0.196835
v 0.210303 0.226239 -0.175244
v -0.422860 0.413857 -0.103466
v -0.372209 0.389835 -0.153935
v -0.443121 0.230243 -0.298737
v -0.509453 0.208892 -0.293530
v -0.377852 0.365592 0.129579
v -0.322248 0.237368 0.160957
v -0.369447 0.361550 0.095814
v -0.325692 0.246858 0.197531
v -0.378508 0.380315 0.111942
v -0.374853 0.300228 0.207942
v -0.335342 0.290739 0.034957
v -0.307195 0.229874 0.187676
v 0.185700 0.266983 0.042364
v 0.205410 0.278295 0.018992
v 0.217130 0.377471 0.127301
v 0.221653 0.402580 0.091299
v 0.195515 0.386112 0.000009
v 0.228582 0.407916 0.120733
v 0.188965 0.263363 0.023132
v 0.167749 0.286890 0.148141
v 0.422049 -0.322973 0.091801
v 0.442806 -0.238948 -0.004766
v 0.435230 -0.270000 0.013591
v 0.317974 -0.223941 -0.028217
v 0.320242 -0.214165 -0.012584
v 0.340482 -0.305205 0.088525
v 0.401116 -0.233934 -0.012594
v 0.308105 -0.263066 0.053988
v 0.301156 -0.290988 0.095498
v 0.480688 0.009268 0.172428
v 0.480688 0.010816 0.119337
v 0.430957 -0.000249 0.169081
v 0.480688 0.013023 0.041243
v 0.345806 0.013813 0.084241
v 0.384836 0.005877 0.079695
v 0.348964 0.008202 0.121634
v 0.355688 0.009346 0.172455
v -0.043879 0.421525 0.076977
v -0.040521 0.355798 0.143185
v -0.052668 0.296525 0.076058
v -0.048978 0.353784 0.018185
v -0.053435 0.421525 0.018185
v -0.039913 0.421525 0.143185
v -0.062538 0.296525 0.018185
v -0.059280 0.296525 0.143185
vn 0.0168 0.9831 -0.1822
vn 0.0482 0.9826 -0.1795
vn 0.0361 0.9831 -0.1797
vn 0.9451 -0.2782 -0.1712
vn 0.9707 -0.2396 -0.0168
vn 0.9537 -0.2942 -0.0630
vn -0.9425 -0.1430 -0.3021
vn -0.5426 -0.5513 -0.6337
vn -0.6805 -0.5946 -0.4282
vn 0.0026 -0.4287 0.9034
vn -0.0789 -0.5632 0.8225
vn -0.1928 -0.4719 0.8603
vn 0.2534 0.0733 0.9646
vn -0.0342 0.0967 0.9947
vn 0.2108 0.0735 0.9748
vn 0.8221 -0.4430 -0.3575
vn 0.5841 -0.7260 -0.3630
vn 0.6586 -0.5714 -0.4896
vn -0.8449 -0.0345 -0.5337
vn -0.2679 0.0515 -0.9621
vn -0.5463 0.0718 -0.8345
vn -0.9826 -0.1520 0.1063
vn -0.9936 -0.0878 0.0707
vn -0.9941 -0.0176 0.1067
vn 0.1827 0.6965 -0.6939
vn 0.0433 0.6153 -0.7871
vn 0.1815 0.5001 -0.8468
vn 0.3949 -0.1580 -0.9050
vn 0.9239 -0.1550 -0.3497
vn 0.3474 -0.5514 -0.7585
vn -0.0469 0.5678 -0.8219
vn -0.6326 0.2239 -0.7414
vn 0.7843 0.6181 0.0535
vn 0.3128 -0.9418 0.1231
vn 0.8640 0.4919 -0.1069
vn -0.6567 0.6761 0.3342
vn -0.4312 0.7152 0.5500
vn -0.6537 0.7033 0.2793
vn 0.9584 -0.2794 -0.0578
vn 0.9511 -0.2524 -0.1781
vn -0.9450 -0.1496 -0.2910
vn -0.5290 -0.6849 0.5010
vn -0.2435 -0.5360 0.8083
vn 0.0850 -0.4339 0.8970
vn -0.1501 -0.4696 0.8700
vn -0.2504 -0.6622 0.7062
vn -0.2682 -0.6463 0.7144
vn -0.0168 -0.9831 0.1822
vn -0.0674 -0.9835 0.1682
vn -0.8377 -0.1169 -0.5335
vn -0.4469 -0.1790 -0.8765
vn 0.9941 0.0873 0.0639
vn 0.9004 -0.2422 -0.3613
vn 0.9930 0.0883 0.0779
vn -0.9827 -0.1470 0.1123
vn -0.9928 0.0094 0.1198
vn -0.1136 -0.6475 -0.7536
vn -0.2208 -0.1181 -0.9681
vn -0.0925 -0.6543 -0.7506
vn 0.3007 -0.1828 -0.9360
vn -0.0184 -0.1612 -0.9868
vn -0.0205 -0.1624 -0.9865
vn -0.0358 -0.1712 -0.9846
vn 0.6458 -0.1498 -0.7487
vn 0.2061 -0.8714 0.4452
vn 0.6014 -0.7575 0.2540
vn 0.5370 0.4453 -0.7165
vn -0.5807 0.0363 -0.8133
vn -0.0551 0.9971 0.0524
vn -0.0150 0.9999 -0.0041
vn -0.4954 0.6773 0.5439
vn -0.0432 -0.9990 0.0109
vn 0.0046 -0.9999 -0.0105
vn 0.3615 -0.8247 -0.4350
vn 0.2085 0.6783 -0.7046
vn 0.5229 0.7136 -0.4663
vn 0.1543 0.6710 -0.7253
vn 0.1197 0.6797 -0.7236
vn 0.1196 0.0060 0.9928
vn 0.3785 -0.0167 0.9255
vn 0.3962 0.0487 0.9168
vn 0.1010 0.0045 0.9949
vn 0.3029 0.0322 0.9525
vn 0.1029 -0.9947 -0.0028
vn 0.0264 0.9825 -0.1843
vn -0.0927 0.0103 -0.9956
vn -0.1619 0.0034 -0.9868
vn -0.0566 -0.9829 0.1754
vn -0.0993 -0.5293 0.8426
vn -0.9410 0.3211 -0.1071
vn -0.9522 0.3022 0.0439
vn -0.9558 0.2909 0.0432
vn -0.9100 0.3950 0.1258
vn -0.0392 -0.5144 0.8567
vn 0.2151 0.3921 -0.8944
vn 0.9996 -0.0263 0.0046
vn 1.0000 -0.0028 0.0014
vn -0.9470 0.3212 0.0034
vn -0.9080 0.4015 0.1201
vn -0.0966 0.1590 0.9825
vn 0.9748 0.1150 -0.1914
vn -0.1606 -0.2416 -0.9570
vn 0.9994 0.0144 -0.0318
vn -0.3188 -0.2128 -0.9236
vn -0.0702 -0.9862 0.1502
vn 0.1246 -0.0442 0.9912
vn 0.0015 0.6522 -0.7580
vn 0.0687 0.1951 0.9784
vn 0.8169 -0.4380 -0.3753
vn 0.1716 0.6970 -0.6962
vn -0.4251 0.6870 0.5893
vn -0.0030 -0.1522 -0.9883
vn -0.0831 -0.1802 -0.9801
vn -0.1814 -0.7677 -0.6146
vn 0.5175 0.7264 -0.4522
vn 0.0110 0.9999 -0.0018
vn -0.0257 0.0061 -0.9997
vn -0.4744 0.7757 -0.4162
vn 0.9588 0.1000 -0.2659
vn -0.7728 0.5752 -0.2682
vt 0.421053 0.421053
vt 0.518333 0.368421
vt 0.510611 0.408259
vt 0.473684 0.052632
vt 0.473684 0.161903
vt 0.458183 0.161137
vt 0.789474 0.368421
vt 0.789474 0.258971
vt 0.804308 0.264584
vt 0.473684 0.368421
vt 0.551376 0.368421
vt 0.546972 0.378891
vt 0.821166 0.274478
vt 0.842105 0.421053
vt 0.736842 0.421053
vt 0.675249 0.473684
vt 0.664882 0.433046
vt 0.421053 0.473684
vt 0.467581 0.473684
vt 0.460744 0.480299
vt 0.517027 0.473684
vt 0.516908 0.489660
vt 0.638972 0.473684
vt 0.631377 0.438630
vt 0.736842 0.473684
vt 0.618955 0.473684
vt 0.610149 0.452569
vt 0.421053 0.657895
vt 0.482072 0.686119
vt 0.421053 0.710526
vt 0.552632 0.657895
vt 0.506561 0.710526
vt 0.492927 0.681777
vt 0.484108 0.685304
vt 0.721770 0.378093
vt 0.421053 0.176434
vt 0.421053 0.000000
vt 0.842105 0.270216
vt 0.542868 0.421053
vt 0.842105 0.176434
vt 0.789474 0.052632
vt 0.842105 -0.000000
vt 0.421053 0.270216
vt 0.469636 0.465587
vt 0.421053 0.526316
vt 0.465702 0.526316
vt 0.736842 0.526316
vt 0.618974 0.493329
vt 0.510714 0.526316
vt 0.520346 0.457135
vt 0.627392 0.421053
vt 0.462715 0.657895
vt 0.469440 0.691172
vt 0.456183 0.245915
vt 0.473684 0.236656
vt 0.000000 0.000000
vt 0.613254 0.410064
vt 0.614862 0.417489
vt 0.585207 0.372419
vt 0.614520 0.421053
vt 0.616190 0.393176
vt 0.722094 0.368421
vt 0.571415 0.473684
vt 0.567259 0.449317
vt 0.659150 0.421053
vt 0.670667 0.515287
vt 0.669462 0.526316
vt 0.648638 0.421053
vt 0.749791 0.407865
vt 0.754408 0.421053
vt 0.648381 0.393378
vt 0.729591 0.368421
vt 0.570043 0.421053
vt 0.508750 0.421053
vt 0.565706 0.497793
vt 0.567582 0.526316
vt 0.806957 0.175017
vt 0.631150 0.473684
vt 0.610858 0.526316
vt 0.619021 0.506679
vt 0.789474 0.178616
vt 0.627571 0.421053
vt 0.421053 0.278726
vt 0.442357 0.271924
vt 0.842105 0.278726
vt 0.473684 0.261891
vt 0.527583 0.421053
vt 0.480936 0.421053
vt 0.640484 0.368421
vt 0.789474 0.278760
vt 0.475601 0.657895
vt 0.552632 0.710526
vt 0.473304 0.657895
vt 0.720290 0.421053
vt 0.605077 0.526316
vt 0.489771 0.683039
vt 0.464640 0.657895
vt 0.655508 0.376846
vt 0.648622 0.375820
vt 0.645920 0.374797
vt 0.614858 0.413910
vt 0.612330 0.423498
vt 0.620214 0.368421
s 1
f 3/1/1 45/2/2 44/3/3
f 5/4/4 50/5/5 51/6/6
f 4/7/7 18/8/8 20/9/9
f 6/10/10 40/11/11 36/12/12
f 8/7/13 60/13/14 3/14/15
f 6/15/16 39/16/17 34/17/18
f 13/18/19 47/19/20 42/20/21
f 13/18/22 62/21/23 64/22/24
f 5/15/25 52/23/26 55/24/27
f 26/25/28 24/26/29 22/27/30
f 25/28/31 10/29/31 13/30/31
f 26/31/32 29/32/32 30/33/32
f 4/28/33 31/34/34 26/30/35
f 1/14/36 33/35/37 9/7/38
f 5/4/4 49/36/39 2/37/40
f 1/14/41 20/9/9 17/38/42
f 6/10/10 38/39/43 1/1/44
f 49/40/45 7/41/46 2/42/47
f 17/43/42 6/10/10 1/1/44
f 8/1/48 41/44/49 13/18/48
f 11/45/50 42/20/21 45/46/51
f 6/47/52 16/48/53 26/25/54
f 8/45/55 64/22/24 65/49/56
f 25/1/57 63/50/58 13/18/59
f 4/15/60 22/27/30 18/51/8
f 23/52/61 5/30/62 12/28/63
f 13/28/64 27/53/64 11/30/64
f 21/54/65 19/55/66 6/10/10
f 16/48/53 24/26/29 26/25/54
s 0
f 25/56/67 11/56/67 3/56/67
f 7/56/68 5/56/68 2/56/68
s 1
f 22/57/30 16/58/53 21/59/65
f 71/60/69 44/3/3 66/61/70
f 33/35/37 37/62/71 9/7/38
f 72/63/72 41/44/49 68/64/73
f 34/17/18 40/65/74 6/15/16
f 39/16/75 9/47/76 35/66/77
f 37/67/78 35/66/77 9/47/76
f 71/68/79 43/69/80 46/70/81
f 67/71/82 48/72/83 43/69/80
f 43/69/80 8/7/13 3/14/15
f 66/61/70 37/62/71 33/35/37
f 73/73/84 34/17/18 68/64/73
f 44/3/3 46/74/85 3/1/1
f 69/75/86 39/16/75 35/66/77
f 70/76/87 35/66/77 37/67/78
f 46/70/81 43/69/80 3/14/15
f 41/44/49 47/19/88 13/18/48
f 49/40/45 60/13/14 54/77/89
f 52/23/26 53/78/90 63/50/58
f 57/79/91 56/80/92 7/47/93
f 54/77/89 57/81/94 7/41/46
f 55/24/27 50/82/95 5/15/25
f 51/6/6 58/83/96 49/36/39
f 50/5/5 59/84/97 51/6/6
f 53/78/98 12/25/99 7/47/93
f 60/13/14 58/85/100 3/14/15
f 58/83/96 59/84/97 3/1/101
f 60/13/14 57/81/94 54/77/89
f 63/50/58 62/21/102 13/18/59
f 61/86/103 3/1/101 59/84/97
f 61/87/104 55/24/27 63/50/58
f 65/49/56 56/80/92 57/79/91
f 64/22/24 53/78/98 56/80/92
f 45/46/51 69/75/86 70/76/87
f 47/19/20 69/75/86 42/20/21
f 48/88/105 68/64/73 41/44/49
f 45/2/2 66/61/70 44/3/3
f 36/12/12 73/89/106 67/71/82
f 36/12/12 71/68/79 38/39/43
f 39/16/17 68/64/73 34/17/18
f 33/35/37 71/60/69 66/61/70
s 0
f 4/56/107 9/56/107 26/56/107
s 1
f 3/1/1 11/10/1 45/2/2
f 8/7/13 65/90/108 60/13/14
f 6/15/16 26/25/109 39/16/17
f 5/15/25 12/25/110 52/23/26
f 25/28/31 15/91/31 10/29/31
f 26/31/32 9/92/32 29/32/32
f 4/28/33 32/93/34 31/34/34
f 1/14/36 38/94/111 33/35/37
f 5/4/4 51/6/6 49/36/39
f 1/14/41 4/7/7 20/9/9
f 6/10/10 36/12/12 38/39/43
f 49/40/45 54/77/89 7/41/46
f 17/43/42 21/54/65 6/10/10
f 8/1/48 48/88/105 41/44/49
f 11/45/50 13/18/19 42/20/21
f 6/47/52 19/95/66 16/48/53
f 8/45/55 13/18/22 64/22/24
f 25/1/57 61/87/104 63/50/58
f 4/15/60 26/25/28 22/27/30
f 23/52/61 14/96/112 5/30/62
f 13/28/64 28/97/64 27/53/64
s 0
f 25/56/113 13/56/113 11/56/113
f 7/56/114 12/56/114 5/56/114
s 1
f 21/59/65 17/98/42 20/99/9
f 20/99/9 18/100/8 22/57/30
f 22/57/30 24/101/29 16/58/53
f 16/58/53 19/102/66 21/59/65
f 21/59/65 20/99/9 22/57/30
f 71/60/69 46/74/85 44/3/3
f 72/63/72 47/19/88 41/44/49
f 39/16/75 26/25/115 9/47/76
f 71/68/79 67/71/82 43/69/80
f 67/71/82 73/89/106 48/72/83
f 43/69/80 48/72/83 8/7/13
f 66/61/70 70/103/116 37/62/71
f 73/73/84 40/65/74 34/17/18
f 69/75/86 72/63/117 39/16/75
f 70/76/87 69/75/86 35/66/77
f 49/40/45 58/85/100 60/13/14
f 63/50/58 55/24/27 52/23/26
f 53/78/90 62/21/102 63/50/58
f 51/6/6 59/84/97 58/83/96
f 50/5/5 61/86/103 59/84/97
f 7/47/93 56/80/92 53/78/98
f 53/78/98 52/23/118 12/25/99
f 60/13/14 65/90/108 57/81/94
f 61/86/103 25/10/119 3/1/101
f 61/87/104 50/82/95 55/24/27
f 65/49/56 64/22/24 56/80/92
f 64/22/24 62/21/23 53/78/98
f 45/46/51 42/20/21 69/75/86
f 47/19/20 72/63/117 69/75/86
f 48/88/105 73/73/84 68/64/73
f 45/2/2 70/103/116 66/61/70
f 36/12/12 40/11/11 73/89/106
f 36/12/12 67/71/82 71/68/79
f 39/16/17 72/63/72 68/64/73
f 33/35/37 38/94/111 71/60/69
s 0
f 4/56/120 1/56/120 9/56/120
