# Blender 4.3.2
# www.blender.org
o Cube_Cube.005
v -0.394619 -0.074356 -0.020315
v 0.413233 -0.062719 0.108923
v -0.309447 0.062281 -0.071907
v 0.267097 -0.062719 0.166412
v 0.250350 0.009206 0.116622
v 0.154877 0.027366 0.070479
v 0.301703 -0.000919 0.013758
v 0.148771 -0.062719 0.063258
v 0.276675 0.062281 0.020921
v 0.268438 -0.062719 0.011181
v 0.196745 -0.062719 -0.055786
v 0.194309 0.062281 0.069394
v 0.147942 0.062281 0.062278
v 0.162047 -0.008732 0.078957
v 0.198647 -0.062719 -0.078412
v -0.331192 -0.062719 0.021028
v -0.149087 -0.050126 0.038611
v -0.269418 0.062281 -0.078720
v -0.168304 -0.052013 0.030498
v -0.344149 -0.062719 -0.066000
v -0.339045 0.032257 -0.066869
v -0.276883 0.057562 -0.077450
v -0.265471 0.062281 -0.072059
v -0.158265 -0.026830 0.042471
v -0.219550 0.062281 0.039589
v -0.018014 0.072845 0.015542
v -0.021254 -0.077225 -0.077886
v 0.029402 -0.062719 0.032673
v -0.039769 0.017558 -0.099934
v -0.026960 0.055491 -0.059063
v -0.029556 0.044524 -0.106207
v 0.001690 0.002891 0.031815
v 0.003416 -0.059287 -0.000773
v -0.056940 -0.027776 -0.089389
v 0.122692 0.010626 0.032673
v 0.121820 -0.062719 0.032673
v 0.181604 0.013806 -0.107340
v 0.168296 0.062281 -0.107340
v 0.163773 0.062281 -0.027149
v 0.137605 -0.062719 -0.032325
v 0.161577 0.062281 0.017660
v 0.215443 -0.062719 -0.107340
v 0.124203 0.034049 0.032673
v -0.104411 0.053987 -0.056440
v -0.127288 -0.062719 0.070266
v -0.112642 0.036837 -0.054418
v -0.120857 -0.033537 0.067603
v -0.112533 0.062281 0.064156
v -0.137827 -0.045234 0.059643
v -0.108540 0.060231 -0.026595
v -0.209675 -0.063310 -0.018067
v -0.186304 -0.019857 -0.038111
v -0.147863 -0.049851 0.039793
vn -0.5792 0.8150 -0.0167
vn 0.0379 -0.3056 -0.9514
vn -0.0481 -0.2594 -0.9646
vn -0.0892 -0.3809 0.9203
vn -0.0000 -1.0000 -0.0000
vn 0.9571 -0.2059 0.2037
vn -0.8595 -0.4802 0.1754
vn -0.6524 0.6128 -0.4460
vn -0.2436 0.0042 -0.9699
vn 0.1160 -0.9932 0.0078
vn -0.2344 -0.3740 0.8973
vn 0.0445 0.6409 0.7664
vn 0.0207 0.8846 0.4659
vn 0.6507 0.7588 -0.0283
vn -0.6020 0.0673 0.7957
vn -0.5495 -0.0252 0.8351
vn 0.8686 0.2775 -0.4106
vn -0.5415 0.7008 0.4645
vn -0.4272 0.3387 0.8383
vn -0.4215 0.0089 0.9068
vn -0.4127 0.0007 0.9109
vn 0.7409 -0.3756 -0.5568
vn 0.0235 -0.9990 0.0389
vn -0.0000 1.0000 -0.0000
vn 0.0041 0.9999 -0.0146
vn -0.0866 0.9922 0.0900
vn 0.0173 0.9998 -0.0103
vn -0.0990 -0.9129 0.3960
vn -0.0023 -0.9743 0.2252
vn -0.2359 0.0451 -0.9707
vn -0.4179 0.5683 0.7088
vn -0.1306 -0.2970 -0.9459
vn -0.0136 0.9928 -0.1188
vn 0.0894 0.0436 0.9950
vn -0.2033 0.0514 0.9778
vn -0.3052 0.1530 0.9399
vn -0.2645 -0.2580 -0.9292
vn 0.3612 0.1197 -0.9248
vn 0.4802 0.0619 -0.8749
vn 0.0184 -0.9790 0.2031
vn -0.0150 -0.9977 0.0660
vn -0.0354 0.9863 -0.1613
vn -0.0359 0.9772 -0.2091
vn -0.2423 -0.1153 -0.9633
vn -0.2697 -0.0874 -0.9590
vn -0.0764 -0.6374 -0.7667
vn 0.4563 -0.7058 -0.5419
vn 0.1430 0.1356 0.9804
vn 0.0283 0.0342 0.9990
vn 0.0123 0.9789 -0.2040
vn 0.2151 0.2971 0.9303
vn 0.0242 -0.9994 0.0251
vn -0.0280 -0.9975 -0.0642
vn 0.0189 0.9998 0.0009
vn -0.0292 0.9993 -0.0248
vn -0.4613 0.6168 0.6378
vn -0.4345 -0.1936 0.8796
vn -0.2815 0.0046 -0.9596
vn -0.6629 0.0227 0.7484
vn -0.4711 0.8097 0.3498
vn -0.0936 -0.9430 0.3193
vn -0.0348 -0.2989 -0.9536
vn -0.0513 0.9984 -0.0248
vn -0.1800 -0.3299 -0.9267
vn 0.3644 0.1000 -0.9259
vn -0.0633 0.9728 -0.2228
vt 0.789474 0.052632
vt 0.772378 0.052632
vt 0.775566 0.050645
vt 0.690157 0.021707
vt 0.842105 -0.000000
vt 0.802116 0.039990
vt 0.804295 0.000000
vt 0.421053 0.000000
vt 0.458863 0.000000
vt 0.458092 0.037039
vt 0.461705 0.008708
vt 0.482010 0.008708
vt 0.460424 0.080519
vt 0.441512 0.008708
vt 0.458708 0.075941
vt 0.459481 0.073426
vt 0.441863 0.002973
vt 0.644114 0.473684
vt 0.606981 0.461797
vt 0.606345 0.451935
vt 0.653312 0.443784
vt 0.605978 0.421053
vt 0.550077 0.000000
vt 0.546827 0.017968
vt 0.697286 0.052632
vt 0.665256 0.025264
vt 0.713081 0.000000
vt 0.665820 0.526316
vt 0.623642 0.492551
vt 0.659009 0.486656
vt 0.439317 0.523272
vt 0.438149 0.526316
vt 0.421053 0.526316
vt 0.530917 0.044456
vt 0.543202 0.033067
vt 0.723043 0.043142
vt 0.500208 0.008307
vt 0.443874 0.009234
vt 0.427168 0.098394
vt 0.726752 0.019018
vt 0.450490 0.473684
vt 0.498605 0.513391
vt 0.567065 0.421053
vt 0.494776 0.433340
vt 0.491846 0.421053
vt 0.686206 0.019839
vt 0.604422 0.026196
vt 0.565128 0.000000
vt 0.598368 0.000000
vt 0.608755 0.033336
vt 0.547101 0.473684
vt 0.543334 0.505936
vt 0.668286 0.052632
vt 0.685733 0.037812
vt 0.544477 0.052632
vt 0.543823 0.042612
vt 0.555397 0.443443
vt 0.498570 0.473684
vt 0.497719 0.526316
vt 0.698030 0.000000
vt 0.690958 0.012181
vt 0.619697 0.052632
vt 0.622718 0.473684
vt 0.625547 0.526316
vt 0.544706 0.052632
vt 0.534222 0.052632
vt 0.476167 0.430239
vt 0.712808 0.052632
vt 0.481591 0.421053
vt 0.458049 0.069665
vt 0.457959 0.078373
vt 0.648636 0.458983
vt 0.644655 0.421053
vt 0.658610 0.052632
vt 0.528727 0.000000
vt 0.424847 0.108695
vt 0.421053 0.109327
vt 0.428747 0.007694
vt 0.433628 0.087462
vt 0.432501 0.089370
vt 0.734431 0.000000
vt 0.664790 0.000000
vt 0.584980 0.052632
vt 0.542241 0.526316
s 1
f 3/1/1 18/2/2 22/3/3
f 4/1/4 11/4/5 2/5/6
f 1/5/7 21/6/8 20/7/9
f 1/8/7 20/9/10 16/10/11
f 5/11/12 4/12/4 2/8/6
f 12/13/13 5/11/12 9/14/14
f 5/11/12 6/15/15 14/16/16
f 7/17/17 5/11/12 2/8/6
f 13/18/18 43/19/19 35/20/20
f 14/21/16 35/20/20 36/22/21
f 10/23/22 7/24/17 2/8/6
f 8/25/5 40/26/23 11/4/5
f 11/4/5 10/27/24 2/5/6
f 9/28/14 39/29/25 12/30/13
f 23/31/26 18/32/27 3/33/1
f 19/34/28 20/9/10 53/35/29
f 18/2/2 46/36/30 22/3/3
f 21/37/8 19/38/28 25/39/31
f 21/6/8 46/36/30 52/40/32
f 22/3/3 21/6/8 3/1/1
f 25/41/31 50/42/33 23/31/26
f 28/43/34 47/44/35 45/45/36
f 34/46/37 37/47/38 42/48/39
f 27/49/40 40/26/23 33/50/41
f 26/51/42 39/29/25 30/52/43
f 31/53/44 37/47/38 29/54/45
f 33/50/41 45/55/46 49/56/47
f 32/57/48 48/58/49 47/44/35
f 30/52/43 44/59/50 50/42/33
f 43/19/19 26/51/51 32/57/48
f 42/48/39 7/24/17 10/23/22
f 35/20/20 28/43/34 36/22/21
f 40/26/23 42/60/52 15/61/5
f 40/26/23 28/62/53 33/50/41
f 41/63/54 12/30/13 39/29/25
f 38/64/55 30/52/43 39/29/25
f 37/47/38 9/65/14 7/24/17
f 49/56/47 17/66/56 19/34/28
f 48/58/49 24/67/57 47/44/35
f 52/40/32 29/54/45 34/46/37
f 44/59/50 23/31/26 50/42/33
f 53/35/29 27/49/40 33/50/41
f 50/42/33 26/51/42 30/52/43
f 44/68/58 29/54/45 46/36/30
f 47/44/35 17/69/56 45/45/36
f 4/1/4 8/25/5 11/4/5
f 8/70/59 4/12/4 5/11/12
f 5/11/12 12/13/13 13/71/18
f 5/11/12 13/71/18 6/15/15
f 14/16/16 8/70/59 5/11/12
f 7/17/17 9/14/14 5/11/12
f 35/20/20 6/72/15 13/18/18
f 13/18/18 41/63/60 43/19/19
f 36/22/21 8/73/59 14/21/16
f 14/21/16 6/72/15 35/20/20
f 8/25/5 36/74/5 40/26/23
f 11/4/5 15/61/5 10/27/24
f 9/28/14 38/64/55 39/29/25
f 19/34/28 16/10/11 20/9/10
f 20/9/10 51/75/61 53/35/29
f 53/35/29 49/56/47 19/34/28
f 18/2/2 44/68/58 46/36/30
f 23/76/26 3/77/1 21/37/8
f 21/37/8 1/8/7 16/78/11
f 19/38/28 17/79/56 24/80/57
f 21/37/8 16/78/11 19/38/28
f 25/39/31 23/76/26 21/37/8
f 19/38/28 24/80/57 25/39/31
f 51/81/62 20/7/9 21/6/8
f 21/6/8 22/3/3 46/36/30
f 52/40/32 51/81/62 21/6/8
f 25/41/31 48/58/63 50/42/33
f 28/43/34 32/57/48 47/44/35
f 42/48/39 27/82/64 34/46/37
f 34/46/37 29/54/45 37/47/38
f 27/49/40 42/60/52 40/26/23
f 26/51/42 41/63/54 39/29/25
f 31/53/44 38/83/65 37/47/38
f 33/50/41 28/62/53 45/55/46
f 32/57/48 26/51/51 48/58/49
f 30/52/43 31/84/66 44/59/50
f 32/57/48 35/20/20 43/19/19
f 43/19/19 41/63/60 26/51/51
f 42/48/39 37/47/38 7/24/17
f 35/20/20 32/57/48 28/43/34
f 42/60/52 10/27/24 15/61/5
f 15/61/5 11/4/5 40/26/23
f 40/26/23 36/74/5 28/62/53
f 41/63/54 13/18/18 12/30/13
f 38/64/55 31/84/66 30/52/43
f 37/47/38 38/83/65 9/65/14
f 49/56/47 45/55/46 17/66/56
f 48/58/49 25/41/31 24/67/57
f 27/82/64 51/81/62 52/40/32
f 52/40/32 46/36/30 29/54/45
f 34/46/37 27/82/64 52/40/32
f 44/59/50 18/32/27 23/31/26
f 33/50/41 49/56/47 53/35/29
f 53/35/29 51/75/61 27/49/40
f 50/42/33 48/58/63 26/51/42
f 44/68/58 31/53/44 29/54/45
f 47/44/35 24/67/57 17/69/56
