# Blender 4.3.2
# www.blender.org
o pipe
v 0.500000 0.000000 0.187500
v 0.500000 -0.132582 0.132582
v 0.500000 -0.187500 0.000000
v 0.500000 -0.132582 -0.132582
v 0.500000 -0.000000 -0.187500
v 0.500000 0.132583 -0.132582
v 0.500000 0.187500 -0.000000
v 0.500000 0.132583 0.132582
v -0.500000 0.000000 0.187500
v -0.500000 -0.132583 0.132583
v -0.500000 -0.187500 0.000000
v -0.500000 -0.132583 -0.132582
v -0.500000 -0.000000 -0.187500
v -0.500000 0.132582 -0.132582
v -0.500000 0.187500 -0.000000
v -0.500000 0.132582 0.132583
v 0.250000 0.187500 -0.000000
v 0.375000 -0.000000 -0.187500
v -0.250000 0.187500 -0.000000
v 0.250000 -0.132582 -0.132582
v 0.375000 0.000000 0.187500
v -0.250000 -0.132583 -0.132582
v 0.250000 -0.187500 0.000000
v 0.375000 -0.132582 0.132582
v -0.250000 -0.187500 0.000000
v 0.250000 0.132583 0.132582
v 0.375000 0.132583 -0.132582
v -0.250000 0.132582 0.132583
v 0.250000 0.132583 -0.132582
v 0.375000 0.132583 0.132582
v -0.250000 0.132582 -0.132582
v 0.250000 -0.132582 0.132582
v 0.375000 -0.187500 0.000000
v -0.250000 -0.132583 0.132583
v 0.250000 0.000000 0.187500
v 0.375000 -0.132582 -0.132582
v -0.250000 0.000000 0.187500
v 0.250000 -0.000000 -0.187500
v 0.375000 0.187500 -0.000000
v -0.250000 -0.000000 -0.187500
v -0.375000 0.187500 -0.000000
v -0.375000 -0.132583 -0.132582
v -0.375000 -0.187500 0.000000
v -0.375000 0.132582 0.132583
v -0.375000 0.132582 -0.132582
v -0.375000 -0.132583 0.132583
v -0.375000 0.000000 0.187500
v -0.375000 -0.000000 -0.187500
vn -0.0000 0.9239 0.3827
vn 1.0000 -0.0000 -0.0000
vn -1.0000 -0.0000 -0.0000
vn -0.0000 -0.3827 -0.9239
vn -0.0000 -0.9239 0.3827
vn -0.0000 -0.3827 0.9239
vn -0.0000 0.9239 -0.3827
vn -0.0000 0.3827 -0.9239
vn -0.0000 0.3827 0.9239
vn -0.0000 -0.9239 -0.3827
vt 0.125000 0.875000
vt 0.250000 1.000000
vt 0.125000 1.000000
vt 0.569606 0.055394
vt 0.305394 0.319606
vt 0.250674 0.187500
vt 0.437500 0.000674
vt 0.437500 0.374326
vt 0.305394 0.055394
vt -0.000000 1.000000
vt 0.000000 0.875000
vt 0.000000 0.125000
vt 0.125000 0.000000
vt 0.125000 0.125000
vt 0.250000 0.875000
vt 0.125000 0.875000
vt 0.624326 0.187500
vt 0.569606 0.319606
vt 0.250000 0.875000
vt 0.000000 0.875000
vt 0.250000 0.000000
vt 0.250000 0.125000
vt 0.250000 0.125000
vt 0.250000 0.125000
vt 0.250000 0.125000
vt 0.125000 0.125000
vt 0.000000 0.125000
vt 0.000000 0.000000
vt 0.125000 0.125000
vt 0.000000 0.125000
vt 0.000000 0.125000
vt 0.250000 0.875000
vt 0.000000 0.875000
s 1
f 39/1/1 8/2/1 7/3/1
f 4/4/2 8/5/2 1/6/2
f 11/7/3 15/8/3 12/9/3
f 18/1/4 4/10/4 36/11/4
f 46/12/5 11/13/5 43/14/5
f 24/15/6 1/3/6 21/16/6
f 1/6/2 2/9/2 3/7/2
f 3/7/2 4/4/2 1/6/2
f 5/17/2 6/18/2 7/8/2
f 7/8/2 8/5/2 5/17/2
f 39/1/7 6/10/7 27/11/7
f 27/19/8 5/3/8 18/1/8
f 30/20/9 1/3/9 8/10/9
f 43/14/10 12/21/10 42/22/10
f 11/7/3 10/4/3 9/17/3
f 9/17/3 16/18/3 15/8/3
f 15/8/3 14/5/3 13/6/3
f 13/6/3 12/9/3 15/8/3
f 36/23/10 23/13/10 20/21/10
f 15/13/1 44/24/1 41/14/1
f 44/11/9 37/3/9 28/10/9
f 17/13/1 30/25/1 39/26/1
f 45/19/8 40/3/8 48/1/8
f 38/13/4 36/27/4 20/28/4
f 19/3/7 45/11/7 41/1/7
f 35/13/6 24/25/6 21/29/6
f 47/1/6 34/2/6 37/3/6
f 17/13/7 27/27/7 29/28/7
f 24/30/5 23/13/5 33/26/5
f 29/21/8 18/26/8 38/13/8
f 48/1/4 22/10/4 42/11/4
f 26/28/9 21/29/9 30/31/9
f 41/1/1 28/2/1 19/3/1
f 3/3/10 36/19/10 4/2/10
f 2/10/5 33/1/5 3/3/5
f 13/13/4 42/12/4 12/28/4
f 9/13/6 46/22/6 47/14/6
f 41/14/7 14/28/7 15/13/7
f 14/21/8 48/14/8 13/13/8
f 16/28/9 47/14/9 44/27/9
f 25/3/10 42/19/10 22/2/10
f 34/10/5 43/1/5 25/3/5
f 39/1/1 30/15/1 8/2/1
f 4/4/2 5/17/2 8/5/2
f 11/7/3 9/17/3 15/8/3
f 18/1/4 5/3/4 4/10/4
f 46/12/5 10/28/5 11/13/5
f 24/15/6 2/2/6 1/3/6
f 39/1/7 7/3/7 6/10/7
f 27/19/8 6/2/8 5/3/8
f 30/20/9 21/16/9 1/3/9
f 43/14/10 11/13/10 12/21/10
f 36/23/10 33/26/10 23/13/10
f 15/13/1 16/21/1 44/24/1
f 44/11/9 47/1/9 37/3/9
f 17/13/1 26/21/1 30/25/1
f 45/19/8 31/2/8 40/3/8
f 38/13/4 18/26/4 36/27/4
f 19/3/7 31/10/7 45/11/7
f 35/13/6 32/21/6 24/25/6
f 47/1/6 46/19/6 34/2/6
f 17/13/7 39/26/7 27/27/7
f 24/30/5 32/28/5 23/13/5
f 29/21/8 27/23/8 18/26/8
f 48/1/4 40/3/4 22/10/4
f 26/28/9 35/13/9 21/29/9
f 41/1/1 44/32/1 28/2/1
f 3/3/10 33/1/10 36/19/10
f 2/10/5 24/33/5 33/1/5
f 13/13/4 48/14/4 42/12/4
f 9/13/6 10/21/6 46/22/6
f 41/14/7 45/12/7 14/28/7
f 14/21/8 45/22/8 48/14/8
f 16/28/9 9/13/9 47/14/9
f 25/3/10 43/1/10 42/19/10
f 34/10/5 46/11/5 43/1/5
o needle
v -0.032531 -0.018750 0.221520
v 0.032531 -0.018750 0.221520
v -0.007209 0.206250 0.221520
v 0.007209 0.206250 0.221520
v -0.010782 -0.037500 0.221520
v 0.010782 -0.037500 0.221520
vn -0.0000 -0.0000 1.0000
vt 0.312500 0.937500
vt 0.250000 1.000000
vt 0.250000 0.937500
vt 0.312500 1.000000
s 0
f 50/34/11 51/35/11 49/36/11
f 49/36/11 54/34/11 50/34/11
f 50/34/11 52/37/11 51/35/11
f 49/36/11 53/36/11 54/34/11
o body
v 0.250000 0.187500 -0.000000
v -0.250000 0.187500 -0.000000
v 0.250000 -0.132582 -0.132582
v -0.250000 -0.132583 -0.132582
v 0.250000 -0.187500 0.000000
v -0.250000 -0.187500 0.000000
v 0.250000 0.132583 0.132582
v -0.250000 0.132582 0.132583
v 0.250000 0.132583 -0.132582
v -0.250000 0.132582 -0.132582
v 0.250000 -0.132582 0.132582
v -0.250000 -0.132583 0.132583
v 0.250000 0.000000 0.187500
v -0.250000 0.000000 0.187500
v 0.250000 -0.000000 -0.187500
v -0.250000 -0.000000 -0.187500
v 0.250000 0.212500 -0.000000
v -0.250000 0.212500 -0.000000
v 0.250000 -0.150260 -0.150260
v -0.250000 -0.150260 -0.150260
v 0.250000 -0.212500 -0.000000
v -0.250000 -0.212500 -0.000000
v 0.250000 0.150260 0.150260
v -0.250000 0.150260 0.150260
v 0.250000 0.150260 -0.150260
v -0.250000 0.150260 -0.150260
v 0.250000 -0.150260 0.150260
v -0.250000 -0.150260 0.150260
v 0.250000 0.000000 0.212500
v -0.250000 0.000000 0.212500
v 0.250000 -0.000000 -0.212500
v -0.250000 -0.000000 -0.212500
v -0.000000 0.212017 -0.000000
v 0.000000 0.218138 0.237500
v 0.081136 0.195878 -0.000000
v 0.083478 0.201533 0.237500
v 0.149919 0.149919 -0.000000
v 0.154247 0.154247 0.237500
v 0.195878 0.081136 -0.000000
v 0.201533 0.083478 0.237500
v 0.212017 -0.000000 0.000000
v 0.218138 0.000000 0.237500
v 0.195878 -0.081136 0.000000
v 0.201533 -0.083478 0.237500
v 0.149919 -0.149919 0.000000
v 0.154247 -0.154247 0.237500
v 0.081136 -0.195878 0.000000
v 0.083478 -0.201533 0.237500
v -0.000000 -0.212017 0.000000
v 0.000000 -0.218138 0.237500
v -0.081136 -0.195878 0.000000
v -0.083478 -0.201533 0.237500
v -0.149919 -0.149919 0.000000
v -0.154247 -0.154247 0.237500
v -0.195878 -0.081136 0.000000
v -0.201533 -0.083478 0.237500
v -0.212017 -0.000000 0.000000
v -0.218138 0.000000 0.237500
v -0.195878 0.081136 -0.000000
v -0.201533 0.083478 0.237500
v -0.149919 0.149919 -0.000000
v -0.154247 0.154247 0.237500
v -0.081136 0.195878 -0.000000
v -0.083478 0.201533 0.237500
v 0.095671 0.230970 0.237500
v 0.000000 0.250000 0.237500
v 0.176777 0.176777 0.237500
v 0.230970 0.095671 0.237500
v 0.250000 0.000000 0.237500
v 0.230970 -0.095671 0.237500
v 0.176777 -0.176777 0.237500
v 0.095671 -0.230970 0.237500
v 0.000000 -0.250000 0.237500
v -0.095671 -0.230970 0.237500
v -0.176777 -0.176777 0.237500
v -0.230970 -0.095671 0.237500
v -0.250000 0.000000 0.237500
v -0.230970 0.095671 0.237500
v -0.176777 0.176777 0.237500
v -0.095671 0.230970 0.237500
v 0.023895 0.057688 0.220128
v -0.000000 0.062441 0.220128
v 0.044152 0.044152 0.220128
v 0.057688 0.023895 0.220128
v 0.062441 0.000000 0.220128
v 0.057688 -0.023895 0.220128
v 0.044152 -0.044152 0.220128
v 0.023895 -0.057688 0.220128
v -0.000000 -0.062441 0.220128
v -0.023895 -0.057688 0.220128
v -0.044152 -0.044152 0.220128
v -0.057688 -0.023895 0.220128
v -0.062441 0.000000 0.220128
v -0.057688 0.023895 0.220128
v -0.044152 0.044152 0.220128
v -0.023895 0.057688 0.220128
v 0.073135 0.176564 0.220128
v 0.000000 0.191111 0.220128
v 0.135136 0.135136 0.220128
v 0.176564 0.073135 0.220128
v 0.191111 0.000000 0.220128
v 0.176564 -0.073135 0.220128
v 0.135136 -0.135136 0.220128
v 0.073135 -0.176564 0.220128
v 0.000000 -0.191111 0.220128
v -0.073135 -0.176564 0.220128
v -0.135136 -0.135136 0.220128
v -0.176564 -0.073135 0.220128
v -0.191111 0.000000 0.220128
v -0.176564 0.073135 0.220128
v -0.135136 0.135136 0.220128
v -0.073135 0.176564 0.220128
vn 1.0000 -0.0000 -0.0000
vn -1.0000 -0.0000 -0.0000
vn -0.0000 0.3827 0.9239
vn -0.0000 0.3827 -0.9239
vn -0.0000 0.9239 -0.3827
vn -0.0000 -0.3827 0.9239
vn -0.0000 -0.9239 0.3827
vn -0.0000 -0.3827 -0.9239
vn -0.0000 0.9239 0.3827
vn -0.0000 -0.9239 -0.3827
vn 0.1927 0.9689 -0.1550
vn 0.5489 0.8214 -0.1550
vn 0.8214 0.5489 -0.1550
vn 0.9689 0.1927 -0.1550
vn 0.9689 -0.1927 -0.1550
vn 0.8214 -0.5489 -0.1550
vn 0.5489 -0.8214 -0.1550
vn 0.1927 -0.9689 -0.1550
vn -0.1927 -0.9689 -0.1550
vn -0.5489 -0.8214 -0.1550
vn -0.8214 -0.5489 -0.1550
vn -0.9689 -0.1927 -0.1550
vn -0.9689 0.1927 -0.1550
vn -0.8214 0.5489 -0.1550
vn -0.1069 0.5376 0.8364
vn -0.5489 0.8214 -0.1550
vn -0.1927 0.9689 -0.1550
vn -0.0000 -0.0000 -1.0000
vn -0.0000 -0.0000 1.0000
vn -0.1069 -0.5376 0.8364
vn 0.1069 -0.5376 0.8364
vn 0.1069 0.5376 0.8364
vn -0.4558 -0.3045 0.8364
vn 0.4558 0.3045 0.8364
vn -0.5376 -0.1069 0.8364
vn 0.5376 0.1069 0.8364
vn -0.5376 0.1069 0.8364
vn 0.5376 -0.1069 0.8364
vn -0.4558 0.3045 0.8364
vn 0.4558 -0.3045 0.8364
vn -0.3045 0.4558 0.8364
vn 0.3045 0.4558 0.8364
vn 0.3045 -0.4558 0.8364
vn -0.3045 -0.4558 0.8364
vt 0.062500 0.937500
vt 0.000000 1.000000
vt 0.000000 0.937500
vt 0.062500 1.000000
vt 0.000000 0.500000
vt 0.062500 0.500000
vt 0.125000 0.937500
vt 0.125000 1.000000
vt 0.250000 0.937500
vt 0.187500 1.000000
vt 0.187500 0.937500
vt 0.250000 1.000000
s 1
f 61/38/12 83/39/12 67/40/12
f 66/38/13 84/39/13 68/40/13
f 63/38/12 71/39/12 55/40/12
f 70/38/13 74/39/13 58/40/13
f 62/40/13 84/41/13 78/39/13
f 66/40/13 76/41/13 82/39/13
f 58/38/13 76/39/13 60/40/13
f 56/38/13 80/39/13 64/40/13
f 84/42/14 77/39/14 78/42/14
f 80/43/15 85/39/15 86/42/15
f 71/39/16 80/42/16 72/42/16
f 84/42/17 81/41/17 83/39/17
f 81/39/18 76/42/18 75/39/18
f 86/42/19 73/39/19 74/42/19
f 72/42/20 77/41/20 71/39/20
f 75/39/21 74/43/21 73/41/21
f 69/40/12 73/41/12 85/39/12
f 70/40/13 80/41/13 86/39/13
f 56/40/13 78/41/13 72/39/13
f 67/38/12 81/39/12 65/40/12
f 59/38/12 73/39/12 57/40/12
f 59/40/12 81/41/12 75/39/12
f 69/38/12 79/39/12 63/40/12
f 55/38/12 77/39/12 61/40/12
s 0
f 120/38/22 89/39/22 87/40/22
f 119/38/23 91/39/23 89/40/23
f 121/38/24 93/39/24 91/40/24
f 122/38/25 95/39/25 93/40/25
f 123/38/26 97/39/26 95/40/26
f 124/38/27 99/39/27 97/40/27
f 125/38/28 101/39/28 99/40/28
f 101/40/29 127/41/29 103/39/29
f 127/38/30 105/39/30 103/40/30
f 128/38/31 107/39/31 105/40/31
f 129/38/32 109/39/32 107/40/32
f 130/38/33 111/39/33 109/40/33
f 131/38/34 113/39/34 111/40/34
f 132/38/35 115/39/35 113/40/35
f 102/38/36 159/39/36 104/40/36
f 133/38/37 117/39/37 115/40/37
f 134/38/38 87/39/38 117/40/38
f 101/38/39 109/40/39 117/39/39
f 90/38/40 120/39/40 88/40/40
f 100/38/40 102/38/40 125/39/40
f 94/38/40 121/39/40 92/40/40
f 94/40/40 123/41/40 122/39/40
f 98/38/40 123/39/40 96/40/40
f 98/40/40 125/41/40 124/39/40
f 106/38/40 108/38/40 128/39/40
f 104/38/40 126/39/40 102/40/40
f 106/38/40 127/39/40 104/40/40
f 116/38/40 118/38/40 133/39/40
f 110/38/40 129/39/40 108/40/40
f 110/40/40 131/41/40 130/39/40
f 114/38/40 131/39/40 112/40/40
f 114/40/40 133/41/40 132/39/40
f 118/40/40 120/41/40 134/39/40
f 88/38/41 151/39/41 90/40/41
f 118/38/42 152/39/42 88/40/42
f 104/38/43 160/39/43 106/40/43
f 92/38/44 154/39/44 94/40/44
f 110/40/45 161/41/45 162/39/45
f 94/38/46 155/39/46 96/40/46
f 112/40/47 162/41/47 163/39/47
f 96/38/48 156/39/48 98/40/48
f 112/38/49 164/39/49 114/40/49
f 98/38/50 157/39/50 100/40/50
f 114/38/51 165/39/51 116/40/51
f 90/38/40 92/38/40 119/39/40
f 135/44/40 152/41/40 136/38/40
f 137/44/40 151/41/40 135/38/40
f 138/44/40 153/41/40 137/38/40
f 139/44/40 154/41/40 138/38/40
f 140/44/40 155/41/40 139/38/40
f 141/44/40 156/41/40 140/38/40
f 142/44/40 157/41/40 141/38/40
f 143/44/40 158/41/40 142/38/40
f 143/38/40 160/45/40 159/41/40
f 145/44/40 160/41/40 144/38/40
f 146/46/40 161/47/40 145/48/40
f 147/46/40 162/47/40 146/48/40
f 147/48/40 164/49/40 163/47/40
f 149/48/40 164/45/40 148/44/40
f 150/48/40 165/45/40 149/44/40
f 136/48/40 166/45/40 150/44/40
f 138/38/40 137/44/40 135/45/40
f 135/38/40 136/44/40 150/45/40
f 150/38/40 149/44/40 148/45/40
f 148/38/40 147/44/40 146/45/40
f 146/38/40 145/44/40 144/45/40
f 144/38/40 143/44/40 146/45/40
f 143/38/40 142/44/40 146/45/40
f 142/38/40 141/44/40 138/45/40
f 141/38/40 140/44/40 138/45/40
f 140/38/40 139/44/40 138/45/40
f 138/38/40 135/44/40 150/45/40
f 150/38/40 148/44/40 138/45/40
f 142/44/40 148/41/40 146/38/40
s 1
f 61/38/12 77/41/12 83/39/12
f 66/38/13 82/41/13 84/39/13
f 63/38/12 79/41/12 71/39/12
f 70/38/13 86/41/13 74/39/13
f 62/40/13 68/38/13 84/41/13
f 66/40/13 60/38/13 76/41/13
f 58/38/13 74/41/13 76/39/13
f 56/38/13 72/41/13 80/39/13
f 84/42/14 83/39/14 77/39/14
f 80/43/15 79/41/15 85/39/15
f 71/39/16 79/39/16 80/42/16
f 84/42/17 82/43/17 81/41/17
f 81/39/18 82/42/18 76/42/18
f 86/42/19 85/39/19 73/39/19
f 72/42/20 78/43/20 77/41/20
f 75/39/21 76/42/21 74/43/21
f 69/40/12 57/38/12 73/41/12
f 70/40/13 64/38/13 80/41/13
f 56/40/13 62/38/13 78/41/13
f 67/38/12 83/41/12 81/39/12
f 59/38/12 75/41/12 73/39/12
f 59/40/12 65/38/12 81/41/12
f 69/38/12 85/41/12 79/39/12
f 55/38/12 71/41/12 77/39/12
s 0
f 120/38/22 119/41/22 89/39/22
f 119/38/23 121/41/23 91/39/23
f 121/38/24 122/41/24 93/39/24
f 122/38/25 123/41/25 95/39/25
f 123/38/26 124/41/26 97/39/26
f 124/38/27 125/41/27 99/39/27
f 125/38/28 126/41/28 101/39/28
f 101/40/29 126/38/29 127/41/29
f 127/38/30 128/41/30 105/39/30
f 128/38/31 129/41/31 107/39/31
f 129/38/32 130/41/32 109/39/32
f 130/38/33 131/41/33 111/39/33
f 131/38/34 132/41/34 113/39/34
f 132/38/35 133/41/35 115/39/35
f 102/38/36 158/41/36 159/39/36
f 133/38/37 134/41/37 117/39/37
f 134/38/38 120/41/38 87/39/38
f 117/39/39 87/41/39 89/41/39
f 89/41/39 91/41/39 93/41/39
f 93/41/39 95/41/39 97/38/39
f 97/38/39 99/38/39 101/38/39
f 101/38/39 103/38/39 105/40/39
f 105/40/39 107/40/39 109/40/39
f 109/40/39 111/39/39 113/39/39
f 113/39/39 115/39/39 117/39/39
f 117/39/39 89/41/39 93/41/39
f 93/41/39 97/38/39 101/38/39
f 101/38/39 105/40/39 109/40/39
f 109/40/39 113/39/39 117/39/39
f 117/39/39 93/41/39 101/38/39
f 90/38/40 119/41/40 120/39/40
f 100/38/52 157/41/52 158/39/52
f 102/38/40 126/41/40 125/39/40
f 100/38/52 158/39/52 102/38/52
f 94/38/40 122/41/40 121/39/40
f 94/40/40 96/38/40 123/41/40
f 98/38/40 124/41/40 123/39/40
f 98/40/40 100/38/40 125/41/40
f 106/38/53 160/41/53 161/39/53
f 108/38/40 129/41/40 128/39/40
f 106/38/53 161/39/53 108/38/53
f 104/38/40 127/41/40 126/39/40
f 106/38/40 128/41/40 127/39/40
f 116/38/54 165/41/54 166/39/54
f 118/38/40 134/41/40 133/39/40
f 116/38/54 166/39/54 118/38/54
f 110/38/40 130/41/40 129/39/40
f 110/40/40 112/38/40 131/41/40
f 114/38/40 132/41/40 131/39/40
f 114/40/40 116/38/40 133/41/40
f 118/40/40 88/38/40 120/41/40
f 88/38/41 152/41/41 151/39/41
f 118/38/42 166/41/42 152/39/42
f 104/38/43 159/41/43 160/39/43
f 92/38/44 153/41/44 154/39/44
f 110/40/45 108/38/45 161/41/45
f 94/38/46 154/41/46 155/39/46
f 112/40/47 110/38/47 162/41/47
f 96/38/48 155/41/48 156/39/48
f 112/38/49 163/41/49 164/39/49
f 98/38/50 156/41/50 157/39/50
f 114/38/51 164/41/51 165/39/51
f 90/38/55 151/41/55 153/39/55
f 92/38/40 121/41/40 119/39/40
f 90/38/55 153/39/55 92/38/55
f 135/44/40 151/45/40 152/41/40
f 137/44/40 153/45/40 151/41/40
f 138/44/40 154/45/40 153/41/40
f 139/44/40 155/45/40 154/41/40
f 140/44/40 156/45/40 155/41/40
f 141/44/40 157/45/40 156/41/40
f 142/44/40 158/45/40 157/41/40
f 143/44/40 159/45/40 158/41/40
f 143/38/40 144/44/40 160/45/40
f 145/44/40 161/45/40 160/41/40
f 146/46/40 162/49/40 161/47/40
f 147/46/40 163/49/40 162/47/40
f 147/48/40 148/46/40 164/49/40
f 149/48/40 165/47/40 164/45/40
f 150/48/40 166/47/40 165/45/40
f 136/48/40 152/47/40 166/45/40
f 142/44/40 138/45/40 148/41/40
