# Blender 4.3.2
# www.blender.org
o Icosphere
v -0.002412 -0.975302 0.009701
v 0.719805 -0.434882 0.525586
v -0.262059 -0.446313 0.857701
v -0.888456 -0.452089 0.005268
v -0.284794 -0.414663 -0.809324
v 0.734948 -0.442615 -0.565293
v 0.250637 0.423202 0.849612
v -0.756864 0.387642 0.570584
v -0.712501 0.449429 -0.522729
v 0.275270 0.436734 -0.864986
v 0.902295 0.447238 0.031058
v -0.027592 0.992017 -0.013801
v -0.148656 -0.911597 0.477583
v 0.426651 -0.803726 0.346120
v 0.258481 -0.587336 0.805803
v 0.873176 -0.515715 0.016607
v 0.425612 -0.849965 -0.308914
v -0.540467 -0.802826 -0.030591
v -0.700385 -0.571329 0.541282
v -0.146061 -0.848824 -0.519784
v -0.688154 -0.525682 -0.499962
v 0.336978 -0.555115 -0.799891
v 0.951792 0.001344 0.307962
v 0.974597 -0.017368 -0.300348
v -0.057203 0.034271 0.987732
v 0.588943 0.037629 0.863948
v -0.936227 0.007466 0.299833
v -0.555875 0.073490 0.861615
v -0.547847 0.048210 -0.833285
v -0.907202 0.010831 -0.385122
v 0.625691 0.014733 -0.776318
v -0.034672 0.054206 -1.040152
v 0.683895 0.523057 0.502755
v -0.258148 0.528489 0.803713
v -0.819359 0.479555 -0.071610
v -0.246918 0.492401 -0.865360
v 0.646197 0.490568 -0.470825
v 0.155778 0.873737 0.493305
v 0.515192 0.837646 0.007876
v -0.408178 0.859118 0.344750
v -0.440680 0.817307 -0.319468
v 0.158386 0.835558 -0.411583
vn 0.2245 -0.9537 0.2000
vn 0.6658 -0.6793 0.3085
vn -0.3074 -0.9510 0.0334
vn -0.2920 -0.9451 -0.1465
vn 0.0921 -0.9626 -0.2549
vn 0.8935 -0.3158 0.3194
vn 0.0228 -0.2701 0.9626
vn -0.9264 -0.2666 0.2657
vn -0.5143 -0.3332 -0.7902
vn 0.5426 -0.2416 -0.8045
vn 0.8212 -0.1640 0.5466
vn -0.2535 -0.1505 0.9556
vn -0.9962 -0.0763 -0.0426
vn -0.3594 -0.2508 -0.8989
vn 0.8011 -0.0821 -0.5928
vn 0.3989 0.6190 0.6765
vn -0.4665 0.6383 0.6123
vn -0.7247 0.6545 -0.2154
vn 0.0813 0.7587 -0.6464
vn 0.6875 0.6643 -0.2935
vn 0.2745 0.9316 -0.2381
vn 0.4894 0.7642 -0.4201
vn 0.4494 0.7250 -0.5219
vn -0.0894 0.9119 -0.4005
vn -0.1080 0.8370 -0.5365
vn -0.4799 0.6685 -0.5682
vn -0.3634 0.9307 -0.0408
vn -0.6706 0.7417 -0.0139
vn -0.7538 0.6362 0.1644
vn -0.0929 0.9617 0.2579
vn -0.1814 0.7688 0.6132
vn 0.0597 0.6269 0.7768
vn 0.2667 0.9555 0.1264
vn 0.5190 0.7904 0.3255
vn 0.6885 0.6950 0.2071
vn 0.8280 0.4053 -0.3875
vn 0.7749 0.3175 -0.5466
vn 0.6416 0.3946 -0.6577
vn 0.0420 0.3877 -0.9208
vn -0.3693 0.1844 -0.9108
vn -0.5779 0.3379 -0.7429
vn -0.9132 0.3306 -0.2384
vn -0.9769 0.2101 -0.0404
vn -0.9302 0.3397 0.1391
vn -0.4788 0.4119 0.7753
vn -0.2172 0.2618 0.9404
vn -0.0135 0.3441 0.9388
vn 0.4893 0.4570 0.7428
vn 0.8222 0.2274 0.5218
vn 0.8787 0.3184 0.3557
vn 0.3745 0.1177 -0.9197
vn 0.3597 -0.1441 -0.9219
vn -0.0780 -0.4065 -0.9103
vn -0.7771 0.1535 -0.6103
vn -0.7606 -0.1768 -0.6246
vn -0.9008 -0.3007 -0.3133
vn -0.8275 -0.0094 0.5614
vn -0.8187 -0.0976 0.5658
vn -0.5040 -0.2910 0.8132
vn 0.1835 0.1968 0.9631
vn 0.1857 -0.1879 0.9645
vn 0.5685 -0.3690 0.7352
vn 0.9909 0.1306 0.0331
vn 0.9839 -0.1734 0.0422
vn 0.9016 -0.3475 -0.2578
vn 0.4989 -0.7002 -0.5106
vn 0.1941 -0.8251 -0.5306
vn -0.1180 -0.5768 -0.8083
vn -0.3801 -0.5942 -0.7088
vn -0.4934 -0.8080 -0.3219
vn -0.7074 -0.6833 -0.1809
vn -0.7025 -0.7061 0.0894
vn -0.4970 -0.8438 0.2026
vn -0.3176 -0.6451 0.6949
vn 0.6893 -0.6803 -0.2492
vn 0.5705 -0.8193 0.0569
vn 0.3254 -0.9433 0.0661
vn -0.0988 -0.6439 0.7587
vn 0.2674 -0.8304 0.4887
vn 0.5335 -0.6732 0.5121
vt 1.000000 0.103581
vt 0.901325 0.066228
vt 1.000000 0.000000
vt 0.873562 0.527104
vt 0.960821 0.468536
vt 0.960821 0.585669
vt 0.098675 0.909973
vt 0.000000 0.872620
vt 0.098675 0.806390
vt 0.513105 0.806389
vt 0.513105 0.909972
vt 0.414430 0.843742
vt 0.889908 0.279285
vt 0.977167 0.220719
vt 0.977167 0.337852
vt 0.715389 0.396420
vt 0.802648 0.337854
vt 0.802648 0.454989
vt 0.687627 0.527103
vt 0.774886 0.468536
vt 0.774886 0.585672
vt 0.687628 0.675704
vt 0.687628 0.779286
vt 0.588951 0.713056
vt 0.409500 0.468536
vt 0.409500 0.572119
vt 0.310823 0.505890
vt 0.305895 0.585671
vt 0.305895 0.689254
vt 0.207218 0.623025
vt 0.616711 0.220719
vt 0.518035 0.183364
vt 0.616711 0.117135
vt 0.409500 0.675702
vt 0.310823 0.609475
vt 0.687625 0.882869
vt 0.588951 0.816641
vt 0.687627 0.468536
vt 0.687627 0.572120
vt 0.588951 0.505891
vt 0.616713 0.337853
vt 0.518036 0.300499
vt 0.616713 0.234270
vt 0.409499 0.779286
vt 0.310823 0.713056
vt 0.889906 0.207166
vt 0.791231 0.169812
vt 0.889906 0.103583
vt 0.687627 0.864954
vt 0.774886 0.806388
vt 0.774886 0.923521
vt 0.786302 0.806388
vt 0.687627 0.769034
vt 0.786302 0.702806
vt 0.103608 0.837854
vt 0.190868 0.779288
vt 0.190868 0.896421
vt 0.873562 0.872617
vt 0.972237 0.806388
vt 0.972237 0.909970
vt 0.103608 0.409970
vt 0.207214 0.351403
vt 0.207214 0.468537
vt 0.774887 0.702806
vt 0.687627 0.644238
vt 0.977165 0.103583
vt 0.889906 0.162149
vt 0.518036 0.351403
vt 0.414430 0.292836
vt 0.518036 0.234270
vt 0.889908 0.454988
vt 0.802648 0.396421
vt 0.889908 0.337854
vt 0.310823 0.962646
vt 0.409498 0.896419
vt 0.409498 1.000000
vt 0.518037 0.117132
vt 0.414431 0.058566
vt 0.518037 0.000000
vt 0.873562 0.923521
vt 0.786302 0.864956
vt 0.873562 0.806388
vt 0.988582 0.441436
vt 0.889908 0.375207
vt 0.988582 0.337854
vt 0.414429 0.175701
vt 0.873562 0.468536
vt 0.873562 0.572118
vt 0.774886 0.534765
vt 0.983653 0.806387
vt 0.884977 0.740159
vt 0.983653 0.702806
vt 0.310823 0.234269
vt 0.310823 0.351403
vt 0.207218 0.292836
vt 0.901325 0.000000
vt 0.901325 0.103582
vt 0.802650 0.066228
vt 0.605298 0.066230
vt 0.703975 0.000000
vt 0.703975 0.103582
vt 0.103608 0.175702
vt 0.207215 0.117135
vt 0.207215 0.234269
vt 0.202284 0.468537
vt 0.202284 0.572122
vt 0.103608 0.534768
vt 0.703971 0.220719
vt 0.616711 0.162152
vt 0.310823 0.117135
vt 0.207215 0.175702
vt 0.588951 0.638351
vt 0.588949 0.689255
vt 0.588949 0.806389
vt 0.501689 0.747824
vt 0.414431 0.000000
vt 0.414431 0.117132
vt 0.310823 0.058566
vt 0.305892 0.792837
vt 0.207218 0.755485
vt 0.202283 0.675706
vt 0.103608 0.609475
vt 0.207216 0.058569
vt 0.310823 0.000000
vt 0.087259 0.702808
vt 0.000000 0.644240
vt 0.087259 0.585673
vt 0.588951 0.468536
vt 0.588951 0.585671
vt 0.501691 0.527104
vt 0.103608 0.117135
vt 0.103608 0.234269
vt 0.000000 0.175702
vt 0.703972 0.271622
vt 0.802649 0.234270
vt 0.605298 0.000000
vt 0.605298 0.117134
vt 0.518037 0.058568
vt 0.103608 0.292837
vt 0.703972 0.351406
vt 0.616713 0.292839
vt 0.703972 0.234270
vt 0.087261 0.468538
vt 0.000000 0.527106
vt 0.000000 0.058567
vt 0.103608 0.000000
vt 0.202284 0.779288
vt 0.103608 0.741936
vt 0.294479 0.468537
vt 0.294479 0.585671
vt 0.207218 0.527104
vt 0.103608 0.058567
vt 0.207216 0.000000
vt 0.501691 0.585671
vt 0.414430 0.527104
vt 0.501691 0.468536
vt 0.616713 0.454986
vt 0.518036 0.388758
vt 0.616713 0.351403
vt 0.103607 0.351405
vt 0.000000 0.292836
vt 0.414430 0.623024
vt 0.513105 0.585671
vt 0.513105 0.689255
vt 0.305892 0.896419
vt 0.207218 0.830192
vt 0.310823 0.175704
vt 0.414429 0.234269
vt 0.501689 0.806389
vt 0.414430 0.747824
vt 0.501689 0.689255
vt 0.873562 0.702806
vt 0.774887 0.636577
vt 0.873562 0.599223
vt 0.000000 0.409971
vt 0.103606 0.468538
vt 0.000000 0.740162
vt 0.098676 0.702808
vt 0.791231 0.103583
vt 0.791231 0.220717
vt 0.703971 0.162150
vt 0.310823 0.468537
vt 0.207218 0.409969
vt 0.802649 0.279285
vt 0.889908 0.220719
vt 0.398083 0.779286
vt 0.398083 0.896419
vt 0.310823 0.837852
vt 0.414430 0.351403
vt 0.414430 0.468536
vt 0.310823 0.409968
vt 0.616713 0.388759
vt 0.715389 0.351406
vt 0.715389 0.454989
vt 0.972238 0.702805
vt 0.873562 0.636577
vt 0.972238 0.599223
vt 0.414430 0.409969
vt 0.518036 0.468534
vt 0.687625 0.986450
vt 0.588951 0.949096
vt 0.703975 0.066228
vt 0.802650 0.000000
vt 0.802650 0.103582
vt 0.310823 0.292835
vt 0.884977 0.702806
vt 0.884977 0.806388
vt 0.786302 0.769035
s 1
f 1/1/1 14/2/1 13/3/1
f 2/4/2 14/5/2 16/6/2
f 1/7/3 13/8/3 18/9/3
f 1/10/4 18/11/4 20/12/4
f 1/13/5 20/14/5 17/15/5
f 2/16/6 16/17/6 23/18/6
f 3/19/7 15/20/7 25/21/7
f 4/22/8 19/23/8 27/24/8
f 5/25/9 21/26/9 29/27/9
f 6/28/10 22/29/10 31/30/10
f 2/31/11 23/32/11 26/33/11
f 3/26/12 25/34/12 28/35/12
f 4/23/13 27/36/13 30/37/13
f 5/38/14 29/39/14 32/40/14
f 6/41/15 31/42/15 24/43/15
f 7/34/16 33/44/16 38/45/16
f 8/46/17 34/47/17 40/48/17
f 9/49/18 35/50/18 41/51/18
f 10/52/19 36/53/19 42/54/19
f 11/55/20 37/56/20 39/57/20
f 39/58/21 42/59/21 12/60/21
f 39/61/22 37/62/22 42/63/22
f 37/64/23 10/65/23 42/21/23
f 42/66/24 41/14/24 12/67/24
f 42/68/25 36/69/25 41/70/25
f 36/71/26 9/72/26 41/73/26
f 41/74/27 40/75/27 12/76/27
f 41/77/28 35/78/28 40/79/28
f 35/80/29 8/81/29 40/82/29
f 40/83/30 38/84/30 12/85/30
f 40/77/31 34/70/31 38/86/31
f 34/87/32 7/88/32 38/89/32
f 38/90/33 39/91/33 12/92/33
f 38/93/34 33/94/34 39/95/34
f 33/96/35 11/97/35 39/98/35
f 24/99/36 37/100/36 11/101/36
f 24/102/37 31/103/37 37/104/37
f 31/105/38 10/106/38 37/107/38
f 32/101/39 36/108/39 10/109/39
f 32/110/40 29/93/40 36/111/40
f 29/39/41 9/22/41 36/112/41
f 30/113/42 35/114/42 9/115/42
f 30/116/43 27/117/43 35/118/43
f 27/29/44 8/119/44 35/120/44
f 28/121/45 34/122/45 8/106/45
f 28/110/46 25/123/46 34/124/46
f 25/125/47 7/126/47 34/127/47
f 26/128/48 33/129/48 7/130/48
f 26/131/49 23/132/49 33/133/49
f 23/134/50 11/135/50 33/17/50
f 31/136/51 32/137/51 10/138/51
f 31/62/52 22/139/52 32/104/52
f 22/140/53 5/141/53 32/142/53
f 29/143/54 30/127/54 9/144/54
f 29/131/55 21/145/55 30/146/55
f 21/121/56 4/147/56 30/148/56
f 27/149/57 28/150/57 8/151/57
f 27/103/58 19/152/58 28/153/58
f 19/154/59 3/155/59 28/156/59
f 25/157/60 26/158/60 7/159/60
f 25/132/61 15/160/61 26/161/61
f 15/162/62 2/163/62 26/164/62
f 23/165/63 24/166/63 11/119/63
f 23/167/64 16/117/64 24/168/64
f 16/169/65 6/170/65 24/171/65
f 17/172/66 22/173/66 6/174/66
f 17/175/67 20/160/67 22/176/67
f 20/177/68 5/178/68 22/9/68
f 20/179/69 21/180/69 5/181/69
f 20/182/70 18/183/70 21/94/70
f 18/73/71 4/184/71 21/185/71
f 18/186/72 19/187/72 4/188/72
f 18/189/73 13/190/73 19/191/73
f 13/192/74 3/193/74 19/194/74
f 16/195/75 17/196/75 6/197/75
f 16/198/76 14/68/76 17/199/76
f 14/36/77 1/200/77 17/201/77
f 13/202/78 15/203/78 3/204/78
f 13/168/79 14/189/79 15/205/79
f 14/206/80 2/207/80 15/208/80
