# Blender 4.3.2
# www.blender.org
o Icosphere
v -0.000022 -1.000463 -0.000658
v 0.722836 -0.453175 0.525376
v -0.275920 -0.452834 0.864632
v -0.910370 -0.418334 0.006212
v -0.303717 -0.428226 -0.850934
v 0.714356 -0.433230 -0.525672
v 0.326355 0.431651 0.861357
v -0.721950 0.447582 0.526454
v -0.650834 0.486028 -0.544253
v 0.280084 0.447476 -0.851971
v 0.845802 0.517384 0.012078
v -0.007548 1.003452 -0.002785
v -0.225874 -0.906524 0.504161
v 0.368422 -0.848394 0.321188
v 0.235877 -0.513359 0.833721
v 0.856655 -0.517351 -0.012515
v 0.438863 -0.848741 -0.328340
v -0.522801 -0.855888 0.002520
v -0.679809 -0.561938 0.506329
v -0.167973 -0.808206 -0.459972
v -0.675367 -0.523984 -0.491604
v 0.276730 -0.442557 -0.777569
v 1.033433 -0.013636 0.350227
v 0.945927 -0.080717 -0.282896
v 0.070478 -0.000316 0.979758
v 0.604444 0.017532 0.808281
v -0.961111 -0.020198 0.308450
v -0.605110 -0.022572 0.816223
v -0.534150 -0.056092 -0.798990
v -0.933212 -0.008595 -0.331388
v 0.510826 0.030090 -0.855570
v -0.003672 -0.008197 -1.021703
v 0.654194 0.535369 0.524884
v -0.243841 0.516852 0.786866
v -0.866153 0.513882 -0.010837
v -0.339278 0.562529 -0.840603
v 0.686346 0.550084 -0.555990
v 0.152579 0.835752 0.475143
v 0.565719 0.822434 -0.023435
v -0.409565 0.813964 0.362012
v -0.420473 0.855516 -0.312997
v 0.086226 0.838003 -0.538739
vn 0.1712 -0.9520 0.2538
vn 0.6541 -0.7146 0.2480
vn -0.2657 -0.9622 0.0602
vn -0.2566 -0.9214 -0.2919
vn 0.0240 -0.9190 -0.3934
vn 0.8341 -0.4837 0.2652
vn 0.0268 -0.2657 0.9637
vn -0.8856 -0.3471 0.3086
vn -0.6266 -0.2869 -0.7246
vn 0.4702 -0.3655 -0.8033
vn 0.7028 -0.2282 0.6738
vn -0.2326 -0.0688 0.9701
vn -0.9947 -0.0926 -0.0451
vn -0.3769 -0.1049 -0.9203
vn 0.7841 -0.0925 -0.6137
vn 0.3730 0.7199 0.5854
vn -0.4340 0.6500 0.6238
vn -0.7030 0.6367 -0.3170
vn 0.1078 0.6540 -0.7487
vn 0.7358 0.6559 -0.1688
vn 0.2848 0.9289 -0.2369
vn 0.3980 0.8502 -0.3446
vn 0.3090 0.6837 -0.6611
vn -0.1055 0.9448 -0.3101
vn -0.1931 0.8449 -0.4989
vn -0.5971 0.6588 -0.4577
vn -0.3782 0.9236 0.0630
vn -0.5816 0.8113 0.0593
vn -0.6715 0.6918 0.2656
vn -0.1086 0.9261 0.3613
vn -0.1521 0.7811 0.6056
vn 0.0094 0.6930 0.7209
vn 0.3008 0.9269 0.2245
vn 0.4542 0.8173 0.3546
vn 0.7014 0.6717 0.2385
vn 0.9293 0.2764 -0.2449
vn 0.8009 0.0722 -0.5945
vn 0.5142 0.2912 -0.8067
vn 0.0430 0.3251 -0.9447
vn -0.3911 0.0614 -0.9183
vn -0.7008 0.1742 -0.6918
vn -0.8669 0.3367 -0.3675
vn -0.9876 0.1515 -0.0403
vn -0.9011 0.3291 0.2824
vn -0.4853 0.3682 0.7931
vn -0.2366 0.2101 0.9486
vn -0.0782 0.3063 0.9487
vn 0.6240 0.3282 0.7092
vn 0.7093 0.2848 0.6449
vn 0.8278 0.4788 0.2925
vn 0.2914 0.1692 -0.9415
vn 0.3132 -0.3036 -0.8999
vn 0.1022 -0.4364 -0.8939
vn -0.7452 0.1454 -0.6508
vn -0.7568 -0.1837 -0.6273
vn -0.8782 -0.3324 -0.3440
vn -0.8093 0.1490 0.5681
vn -0.8008 -0.2111 0.5605
vn -0.5670 -0.3499 0.7457
vn 0.3023 0.0813 0.9497
vn 0.3065 -0.1679 0.9369
vn 0.5335 -0.3331 0.7775
vn 0.9583 0.2382 -0.1577
vn 0.9596 -0.2612 -0.1050
vn 0.8788 -0.3679 -0.3040
vn 0.4092 -0.5984 -0.6888
vn 0.1010 -0.7196 -0.6871
vn 0.0721 -0.7026 -0.7079
vn -0.3712 -0.7270 -0.5777
vn -0.4261 -0.8064 -0.4101
vn -0.7330 -0.6475 -0.2086
vn -0.7392 -0.6560 0.1524
vn -0.5819 -0.7682 0.2669
vn -0.4426 -0.5873 0.6777
vn 0.7221 -0.6223 -0.3022
vn 0.5898 -0.8050 0.0644
vn 0.3522 -0.9351 0.0387
vn -0.0266 -0.6237 0.7812
vn 0.2530 -0.7785 0.5743
vn 0.4451 -0.6925 0.5678
vt 1.000000 0.103581
vt 0.901325 0.066228
vt 1.000000 0.000000
vt 0.873562 0.527104
vt 0.960821 0.468536
vt 0.960821 0.585669
vt 0.098675 0.909973
vt 0.000000 0.872620
vt 0.098675 0.806390
vt 0.513105 0.806389
vt 0.513105 0.909972
vt 0.414430 0.843742
vt 0.889908 0.279285
vt 0.977167 0.220719
vt 0.977167 0.337852
vt 0.715389 0.396420
vt 0.802648 0.337854
vt 0.802648 0.454989
vt 0.687627 0.527103
vt 0.774886 0.468536
vt 0.774886 0.585672
vt 0.687628 0.675704
vt 0.687628 0.779286
vt 0.588951 0.713056
vt 0.409500 0.468536
vt 0.409500 0.572119
vt 0.310823 0.505890
vt 0.305895 0.585671
vt 0.305895 0.689254
vt 0.207218 0.623025
vt 0.616711 0.220719
vt 0.518035 0.183364
vt 0.616711 0.117135
vt 0.409500 0.675702
vt 0.310823 0.609475
vt 0.687625 0.882869
vt 0.588951 0.816641
vt 0.687627 0.468536
vt 0.687627 0.572120
vt 0.588951 0.505891
vt 0.616713 0.337853
vt 0.518036 0.300499
vt 0.616713 0.234270
vt 0.409499 0.779286
vt 0.310823 0.713056
vt 0.889906 0.207166
vt 0.791231 0.169812
vt 0.889906 0.103583
vt 0.687627 0.864954
vt 0.774886 0.806388
vt 0.774886 0.923521
vt 0.786302 0.806388
vt 0.687627 0.769034
vt 0.786302 0.702806
vt 0.103608 0.837854
vt 0.190868 0.779288
vt 0.190868 0.896421
vt 0.873562 0.872617
vt 0.972237 0.806388
vt 0.972237 0.909970
vt 0.103608 0.409970
vt 0.207214 0.351403
vt 0.207214 0.468537
vt 0.774887 0.702806
vt 0.687627 0.644238
vt 0.977165 0.103583
vt 0.889906 0.162149
vt 0.518036 0.351403
vt 0.414430 0.292836
vt 0.518036 0.234270
vt 0.889908 0.454988
vt 0.802648 0.396421
vt 0.889908 0.337854
vt 0.310823 0.962646
vt 0.409498 0.896419
vt 0.409498 1.000000
vt 0.518037 0.117132
vt 0.414431 0.058566
vt 0.518037 0.000000
vt 0.873562 0.923521
vt 0.786302 0.864956
vt 0.873562 0.806388
vt 0.988582 0.441436
vt 0.889908 0.375207
vt 0.988582 0.337854
vt 0.414429 0.175701
vt 0.873562 0.468536
vt 0.873562 0.572118
vt 0.774886 0.534765
vt 0.983653 0.806387
vt 0.884977 0.740159
vt 0.983653 0.702806
vt 0.310823 0.234269
vt 0.310823 0.351403
vt 0.207218 0.292836
vt 0.901325 0.000000
vt 0.901325 0.103582
vt 0.802650 0.066228
vt 0.605298 0.066230
vt 0.703975 0.000000
vt 0.703975 0.103582
vt 0.103608 0.175702
vt 0.207215 0.117135
vt 0.207215 0.234269
vt 0.202284 0.468537
vt 0.202284 0.572122
vt 0.103608 0.534768
vt 0.703971 0.220719
vt 0.616711 0.162152
vt 0.310823 0.117135
vt 0.207215 0.175702
vt 0.588951 0.638351
vt 0.588949 0.689255
vt 0.588949 0.806389
vt 0.501689 0.747824
vt 0.414431 0.000000
vt 0.414431 0.117132
vt 0.310823 0.058566
vt 0.305892 0.792837
vt 0.207218 0.755485
vt 0.202283 0.675706
vt 0.103608 0.609475
vt 0.207216 0.058569
vt 0.310823 0.000000
vt 0.087259 0.702808
vt 0.000000 0.644240
vt 0.087259 0.585673
vt 0.588951 0.468536
vt 0.588951 0.585671
vt 0.501691 0.527104
vt 0.103608 0.117135
vt 0.103608 0.234269
vt 0.000000 0.175702
vt 0.703972 0.271622
vt 0.802649 0.234270
vt 0.605298 0.000000
vt 0.605298 0.117134
vt 0.518037 0.058568
vt 0.103608 0.292837
vt 0.703972 0.351406
vt 0.616713 0.292839
vt 0.703972 0.234270
vt 0.087261 0.468538
vt 0.000000 0.527106
vt 0.000000 0.058567
vt 0.103608 0.000000
vt 0.202284 0.779288
vt 0.103608 0.741936
vt 0.294479 0.468537
vt 0.294479 0.585671
vt 0.207218 0.527104
vt 0.103608 0.058567
vt 0.207216 0.000000
vt 0.501691 0.585671
vt 0.414430 0.527104
vt 0.501691 0.468536
vt 0.616713 0.454986
vt 0.518036 0.388758
vt 0.616713 0.351403
vt 0.103607 0.351405
vt 0.000000 0.292836
vt 0.414430 0.623024
vt 0.513105 0.585671
vt 0.513105 0.689255
vt 0.305892 0.896419
vt 0.207218 0.830192
vt 0.310823 0.175704
vt 0.414429 0.234269
vt 0.501689 0.806389
vt 0.414430 0.747824
vt 0.501689 0.689255
vt 0.873562 0.702806
vt 0.774887 0.636577
vt 0.873562 0.599223
vt 0.000000 0.409971
vt 0.103606 0.468538
vt 0.000000 0.740162
vt 0.098676 0.702808
vt 0.791231 0.103583
vt 0.791231 0.220717
vt 0.703971 0.162150
vt 0.310823 0.468537
vt 0.207218 0.409969
vt 0.802649 0.279285
vt 0.889908 0.220719
vt 0.398083 0.779286
vt 0.398083 0.896419
vt 0.310823 0.837852
vt 0.414430 0.351403
vt 0.414430 0.468536
vt 0.310823 0.409968
vt 0.616713 0.388759
vt 0.715389 0.351406
vt 0.715389 0.454989
vt 0.972238 0.702805
vt 0.873562 0.636577
vt 0.972238 0.599223
vt 0.414430 0.409969
vt 0.518036 0.468534
vt 0.687625 0.986450
vt 0.588951 0.949096
vt 0.703975 0.066228
vt 0.802650 0.000000
vt 0.802650 0.103582
vt 0.310823 0.292835
vt 0.884977 0.702806
vt 0.884977 0.806388
vt 0.786302 0.769035
s 1
f 1/1/1 14/2/1 13/3/1
f 2/4/2 14/5/2 16/6/2
f 1/7/3 13/8/3 18/9/3
f 1/10/4 18/11/4 20/12/4
f 1/13/5 20/14/5 17/15/5
f 2/16/6 16/17/6 23/18/6
f 3/19/7 15/20/7 25/21/7
f 4/22/8 19/23/8 27/24/8
f 5/25/9 21/26/9 29/27/9
f 6/28/10 22/29/10 31/30/10
f 2/31/11 23/32/11 26/33/11
f 3/26/12 25/34/12 28/35/12
f 4/23/13 27/36/13 30/37/13
f 5/38/14 29/39/14 32/40/14
f 6/41/15 31/42/15 24/43/15
f 7/34/16 33/44/16 38/45/16
f 8/46/17 34/47/17 40/48/17
f 9/49/18 35/50/18 41/51/18
f 10/52/19 36/53/19 42/54/19
f 11/55/20 37/56/20 39/57/20
f 39/58/21 42/59/21 12/60/21
f 39/61/22 37/62/22 42/63/22
f 37/64/23 10/65/23 42/21/23
f 42/66/24 41/14/24 12/67/24
f 42/68/25 36/69/25 41/70/25
f 36/71/26 9/72/26 41/73/26
f 41/74/27 40/75/27 12/76/27
f 41/77/28 35/78/28 40/79/28
f 35/80/29 8/81/29 40/82/29
f 40/83/30 38/84/30 12/85/30
f 40/77/31 34/70/31 38/86/31
f 34/87/32 7/88/32 38/89/32
f 38/90/33 39/91/33 12/92/33
f 38/93/34 33/94/34 39/95/34
f 33/96/35 11/97/35 39/98/35
f 24/99/36 37/100/36 11/101/36
f 24/102/37 31/103/37 37/104/37
f 31/105/38 10/106/38 37/107/38
f 32/101/39 36/108/39 10/109/39
f 32/110/40 29/93/40 36/111/40
f 29/39/41 9/22/41 36/112/41
f 30/113/42 35/114/42 9/115/42
f 30/116/43 27/117/43 35/118/43
f 27/29/44 8/119/44 35/120/44
f 28/121/45 34/122/45 8/106/45
f 28/110/46 25/123/46 34/124/46
f 25/125/47 7/126/47 34/127/47
f 26/128/48 33/129/48 7/130/48
f 26/131/49 23/132/49 33/133/49
f 23/134/50 11/135/50 33/17/50
f 31/136/51 32/137/51 10/138/51
f 31/62/52 22/139/52 32/104/52
f 22/140/53 5/141/53 32/142/53
f 29/143/54 30/127/54 9/144/54
f 29/131/55 21/145/55 30/146/55
f 21/121/56 4/147/56 30/148/56
f 27/149/57 28/150/57 8/151/57
f 27/103/58 19/152/58 28/153/58
f 19/154/59 3/155/59 28/156/59
f 25/157/60 26/158/60 7/159/60
f 25/132/61 15/160/61 26/161/61
f 15/162/62 2/163/62 26/164/62
f 23/165/63 24/166/63 11/119/63
f 23/167/64 16/117/64 24/168/64
f 16/169/65 6/170/65 24/171/65
f 17/172/66 22/173/66 6/174/66
f 17/175/67 20/160/67 22/176/67
f 20/177/68 5/178/68 22/9/68
f 20/179/69 21/180/69 5/181/69
f 20/182/70 18/183/70 21/94/70
f 18/73/71 4/184/71 21/185/71
f 18/186/72 19/187/72 4/188/72
f 18/189/73 13/190/73 19/191/73
f 13/192/74 3/193/74 19/194/74
f 16/195/75 17/196/75 6/197/75
f 16/198/76 14/68/76 17/199/76
f 14/36/77 1/200/77 17/201/77
f 13/202/78 15/203/78 3/204/78
f 13/168/79 14/189/79 15/205/79
f 14/206/80 2/207/80 15/208/80
