# Blender 4.3.2
# www.blender.org
o Icosphere
v 0.011229 -1.045387 -0.023843
v 0.736756 -0.462015 0.526447
v -0.277117 -0.430336 0.849874
v -0.921291 -0.438824 0.080310
v -0.247293 -0.388211 -0.882896
v 0.735854 -0.511889 -0.520029
v 0.272598 0.463230 0.846232
v -0.738071 0.488411 0.568995
v -0.697178 0.444642 -0.497301
v 0.255438 0.453282 -0.827699
v 0.851343 0.384287 -0.015677
v -0.025148 0.961498 -0.030133
v -0.130531 -0.859725 0.465114
v 0.440535 -0.850911 0.249473
v 0.317411 -0.509594 0.745790
v 0.893347 -0.530541 -0.004801
v 0.407888 -0.826968 -0.381069
v -0.524952 -0.859496 0.006154
v -0.719580 -0.559416 0.425336
v -0.154028 -0.940927 -0.520363
v -0.709965 -0.451991 -0.464427
v 0.223969 -0.583876 -0.817611
v 0.944630 0.007117 0.313528
v 1.019674 0.026056 -0.289190
v 0.029514 -0.054577 0.994655
v 0.582308 0.006525 0.806141
v -0.956107 0.000899 0.294517
v -0.593135 -0.032182 0.862129
v -0.612467 0.016026 -0.856701
v -0.944365 0.009032 -0.354781
v 0.583727 -0.008262 -0.811454
v 0.027944 -0.000323 -1.003801
v 0.676938 0.463596 0.526041
v -0.257910 0.588677 0.752543
v -0.829305 0.538477 0.053753
v -0.255453 0.557481 -0.779052
v 0.748599 0.510183 -0.509023
v 0.179356 0.843062 0.505302
v 0.483409 0.889874 -0.059293
v -0.427216 0.854027 0.323198
v -0.419934 0.918774 -0.312148
v 0.227650 0.796717 -0.461101
vn 0.1616 -0.9061 0.3909
vn 0.6548 -0.7006 0.2834
vn -0.3033 -0.9167 0.2602
vn -0.3307 -0.9397 -0.0876
vn 0.2570 -0.9249 -0.2801
vn 0.9144 -0.2672 0.3040
vn 0.1002 -0.4279 0.8983
vn -0.8693 -0.2704 0.4137
vn -0.5595 -0.4608 -0.6889
vn 0.5100 -0.3102 -0.8023
vn 0.8025 -0.0878 0.5901
vn -0.2109 -0.1968 0.9575
vn -0.9974 -0.0698 -0.0189
vn -0.2250 -0.1408 -0.9641
vn 0.7651 -0.1334 -0.6299
vn 0.4712 0.6504 0.5958
vn -0.3748 0.7152 0.5899
vn -0.7761 0.5640 -0.2821
vn 0.0844 0.7304 -0.6778
vn 0.8092 0.5873 -0.0187
vn 0.1167 0.9486 -0.2942
vn 0.4010 0.8028 -0.4413
vn 0.3278 0.7017 -0.6326
vn 0.1102 0.9482 -0.2979
vn 0.0090 0.7924 -0.6100
vn -0.5422 0.5612 -0.6253
vn -0.1759 0.9795 0.0978
vn -0.6445 0.7613 0.0702
vn -0.6816 0.7068 0.1894
vn -0.0530 0.9706 0.2349
vn -0.1543 0.8121 0.5627
vn 0.0280 0.6715 0.7405
vn 0.1467 0.9762 0.1599
vn 0.5558 0.7486 0.3614
vn 0.7901 0.5895 0.1681
vn 0.8830 0.4648 -0.0653
vn 0.7566 0.1329 -0.6403
vn 0.4882 0.3187 -0.8125
vn -0.0135 0.3678 -0.9298
vn -0.2088 0.2724 -0.9393
vn -0.5573 0.4660 -0.6872
vn -0.8717 0.4038 -0.2778
vn -0.9746 0.2233 -0.0148
vn -0.9316 0.3070 0.1948
vn -0.3979 0.3635 0.8423
vn -0.1912 0.2698 0.9438
vn -0.0925 0.3143 0.9448
vn 0.5854 0.3321 0.7396
vn 0.7904 0.1927 0.5815
vn 0.8826 0.4135 0.2236
vn 0.3231 0.1973 -0.9256
vn 0.3187 -0.1893 -0.9288
vn 0.0067 -0.3019 -0.9533
vn -0.8019 0.2828 -0.5263
vn -0.7990 -0.2797 -0.5323
vn -0.8711 -0.3646 -0.3291
vn -0.8385 0.0708 0.5403
vn -0.8262 -0.2285 0.5150
vn -0.5444 -0.4538 0.7054
vn 0.3077 0.1259 0.9431
vn 0.3374 -0.2783 0.8993
vn 0.4663 -0.3350 0.8187
vn 0.9315 0.3410 0.1267
vn 0.9797 -0.1626 0.1169
vn 0.8928 -0.3485 -0.2855
vn 0.4302 -0.6995 -0.5707
vn 0.2955 -0.7763 -0.5568
vn -0.1181 -0.5585 -0.8211
vn -0.5295 -0.5259 -0.6656
vn -0.6394 -0.6876 -0.3441
vn -0.7246 -0.6359 -0.2657
vn -0.7023 -0.6915 0.1689
vn -0.4406 -0.8141 0.3782
vn -0.3906 -0.6847 0.6153
vn 0.6263 -0.7483 -0.2185
vn 0.5538 -0.8305 -0.0602
vn 0.4418 -0.8953 -0.0569
vn 0.0438 -0.6584 0.7514
vn 0.2346 -0.7728 0.5897
vn 0.3872 -0.7121 0.5857
vt 1.000000 0.103581
vt 0.901325 0.066228
vt 1.000000 0.000000
vt 0.873562 0.527104
vt 0.960821 0.468536
vt 0.960821 0.585669
vt 0.098675 0.909973
vt 0.000000 0.872620
vt 0.098675 0.806390
vt 0.513105 0.806389
vt 0.513105 0.909972
vt 0.414430 0.843742
vt 0.889908 0.279285
vt 0.977167 0.220719
vt 0.977167 0.337852
vt 0.715389 0.396420
vt 0.802648 0.337854
vt 0.802648 0.454989
vt 0.687627 0.527103
vt 0.774886 0.468536
vt 0.774886 0.585672
vt 0.687628 0.675704
vt 0.687628 0.779286
vt 0.588951 0.713056
vt 0.409500 0.468536
vt 0.409500 0.572119
vt 0.310823 0.505890
vt 0.305895 0.585671
vt 0.305895 0.689254
vt 0.207218 0.623025
vt 0.616711 0.220719
vt 0.518035 0.183364
vt 0.616711 0.117135
vt 0.409500 0.675702
vt 0.310823 0.609475
vt 0.687625 0.882869
vt 0.588951 0.816641
vt 0.687627 0.468536
vt 0.687627 0.572120
vt 0.588951 0.505891
vt 0.616713 0.337853
vt 0.518036 0.300499
vt 0.616713 0.234270
vt 0.409499 0.779286
vt 0.310823 0.713056
vt 0.889906 0.207166
vt 0.791231 0.169812
vt 0.889906 0.103583
vt 0.687627 0.864954
vt 0.774886 0.806388
vt 0.774886 0.923521
vt 0.786302 0.806388
vt 0.687627 0.769034
vt 0.786302 0.702806
vt 0.103608 0.837854
vt 0.190868 0.779288
vt 0.190868 0.896421
vt 0.873562 0.872617
vt 0.972237 0.806388
vt 0.972237 0.909970
vt 0.103608 0.409970
vt 0.207214 0.351403
vt 0.207214 0.468537
vt 0.774887 0.702806
vt 0.687627 0.644238
vt 0.977165 0.103583
vt 0.889906 0.162149
vt 0.518036 0.351403
vt 0.414430 0.292836
vt 0.518036 0.234270
vt 0.889908 0.454988
vt 0.802648 0.396421
vt 0.889908 0.337854
vt 0.310823 0.962646
vt 0.409498 0.896419
vt 0.409498 1.000000
vt 0.518037 0.117132
vt 0.414431 0.058566
vt 0.518037 0.000000
vt 0.873562 0.923521
vt 0.786302 0.864956
vt 0.873562 0.806388
vt 0.988582 0.441436
vt 0.889908 0.375207
vt 0.988582 0.337854
vt 0.414429 0.175701
vt 0.873562 0.468536
vt 0.873562 0.572118
vt 0.774886 0.534765
vt 0.983653 0.806387
vt 0.884977 0.740159
vt 0.983653 0.702806
vt 0.310823 0.234269
vt 0.310823 0.351403
vt 0.207218 0.292836
vt 0.901325 0.000000
vt 0.901325 0.103582
vt 0.802650 0.066228
vt 0.605298 0.066230
vt 0.703975 0.000000
vt 0.703975 0.103582
vt 0.103608 0.175702
vt 0.207215 0.117135
vt 0.207215 0.234269
vt 0.202284 0.468537
vt 0.202284 0.572122
vt 0.103608 0.534768
vt 0.703971 0.220719
vt 0.616711 0.162152
vt 0.310823 0.117135
vt 0.207215 0.175702
vt 0.588951 0.638351
vt 0.588949 0.689255
vt 0.588949 0.806389
vt 0.501689 0.747824
vt 0.414431 0.000000
vt 0.414431 0.117132
vt 0.310823 0.058566
vt 0.305892 0.792837
vt 0.207218 0.755485
vt 0.202283 0.675706
vt 0.103608 0.609475
vt 0.207216 0.058569
vt 0.310823 0.000000
vt 0.087259 0.702808
vt 0.000000 0.644240
vt 0.087259 0.585673
vt 0.588951 0.468536
vt 0.588951 0.585671
vt 0.501691 0.527104
vt 0.103608 0.117135
vt 0.103608 0.234269
vt 0.000000 0.175702
vt 0.703972 0.271622
vt 0.802649 0.234270
vt 0.605298 0.000000
vt 0.605298 0.117134
vt 0.518037 0.058568
vt 0.103608 0.292837
vt 0.703972 0.351406
vt 0.616713 0.292839
vt 0.703972 0.234270
vt 0.087261 0.468538
vt 0.000000 0.527106
vt 0.000000 0.058567
vt 0.103608 0.000000
vt 0.202284 0.779288
vt 0.103608 0.741936
vt 0.294479 0.468537
vt 0.294479 0.585671
vt 0.207218 0.527104
vt 0.103608 0.058567
vt 0.207216 0.000000
vt 0.501691 0.585671
vt 0.414430 0.527104
vt 0.501691 0.468536
vt 0.616713 0.454986
vt 0.518036 0.388758
vt 0.616713 0.351403
vt 0.103607 0.351405
vt 0.000000 0.292836
vt 0.414430 0.623024
vt 0.513105 0.585671
vt 0.513105 0.689255
vt 0.305892 0.896419
vt 0.207218 0.830192
vt 0.310823 0.175704
vt 0.414429 0.234269
vt 0.501689 0.806389
vt 0.414430 0.747824
vt 0.501689 0.689255
vt 0.873562 0.702806
vt 0.774887 0.636577
vt 0.873562 0.599223
vt 0.000000 0.409971
vt 0.103606 0.468538
vt 0.000000 0.740162
vt 0.098676 0.702808
vt 0.791231 0.103583
vt 0.791231 0.220717
vt 0.703971 0.162150
vt 0.310823 0.468537
vt 0.207218 0.409969
vt 0.802649 0.279285
vt 0.889908 0.220719
vt 0.398083 0.779286
vt 0.398083 0.896419
vt 0.310823 0.837852
vt 0.414430 0.351403
vt 0.414430 0.468536
vt 0.310823 0.409968
vt 0.616713 0.388759
vt 0.715389 0.351406
vt 0.715389 0.454989
vt 0.972238 0.702805
vt 0.873562 0.636577
vt 0.972238 0.599223
vt 0.414430 0.409969
vt 0.518036 0.468534
vt 0.687625 0.986450
vt 0.588951 0.949096
vt 0.703975 0.066228
vt 0.802650 0.000000
vt 0.802650 0.103582
vt 0.310823 0.292835
vt 0.884977 0.702806
vt 0.884977 0.806388
vt 0.786302 0.769035
s 1
f 1/1/1 14/2/1 13/3/1
f 2/4/2 14/5/2 16/6/2
f 1/7/3 13/8/3 18/9/3
f 1/10/4 18/11/4 20/12/4
f 1/13/5 20/14/5 17/15/5
f 2/16/6 16/17/6 23/18/6
f 3/19/7 15/20/7 25/21/7
f 4/22/8 19/23/8 27/24/8
f 5/25/9 21/26/9 29/27/9
f 6/28/10 22/29/10 31/30/10
f 2/31/11 23/32/11 26/33/11
f 3/26/12 25/34/12 28/35/12
f 4/23/13 27/36/13 30/37/13
f 5/38/14 29/39/14 32/40/14
f 6/41/15 31/42/15 24/43/15
f 7/34/16 33/44/16 38/45/16
f 8/46/17 34/47/17 40/48/17
f 9/49/18 35/50/18 41/51/18
f 10/52/19 36/53/19 42/54/19
f 11/55/20 37/56/20 39/57/20
f 39/58/21 42/59/21 12/60/21
f 39/61/22 37/62/22 42/63/22
f 37/64/23 10/65/23 42/21/23
f 42/66/24 41/14/24 12/67/24
f 42/68/25 36/69/25 41/70/25
f 36/71/26 9/72/26 41/73/26
f 41/74/27 40/75/27 12/76/27
f 41/77/28 35/78/28 40/79/28
f 35/80/29 8/81/29 40/82/29
f 40/83/30 38/84/30 12/85/30
f 40/77/31 34/70/31 38/86/31
f 34/87/32 7/88/32 38/89/32
f 38/90/33 39/91/33 12/92/33
f 38/93/34 33/94/34 39/95/34
f 33/96/35 11/97/35 39/98/35
f 24/99/36 37/100/36 11/101/36
f 24/102/37 31/103/37 37/104/37
f 31/105/38 10/106/38 37/107/38
f 32/101/39 36/108/39 10/109/39
f 32/110/40 29/93/40 36/111/40
f 29/39/41 9/22/41 36/112/41
f 30/113/42 35/114/42 9/115/42
f 30/116/43 27/117/43 35/118/43
f 27/29/44 8/119/44 35/120/44
f 28/121/45 34/122/45 8/106/45
f 28/110/46 25/123/46 34/124/46
f 25/125/47 7/126/47 34/127/47
f 26/128/48 33/129/48 7/130/48
f 26/131/49 23/132/49 33/133/49
f 23/134/50 11/135/50 33/17/50
f 31/136/51 32/137/51 10/138/51
f 31/62/52 22/139/52 32/104/52
f 22/140/53 5/141/53 32/142/53
f 29/143/54 30/127/54 9/144/54
f 29/131/55 21/145/55 30/146/55
f 21/121/56 4/147/56 30/148/56
f 27/149/57 28/150/57 8/151/57
f 27/103/58 19/152/58 28/153/58
f 19/154/59 3/155/59 28/156/59
f 25/157/60 26/158/60 7/159/60
f 25/132/61 15/160/61 26/161/61
f 15/162/62 2/163/62 26/164/62
f 23/165/63 24/166/63 11/119/63
f 23/167/64 16/117/64 24/168/64
f 16/169/65 6/170/65 24/171/65
f 17/172/66 22/173/66 6/174/66
f 17/175/67 20/160/67 22/176/67
f 20/177/68 5/178/68 22/9/68
f 20/179/69 21/180/69 5/181/69
f 20/182/70 18/183/70 21/94/70
f 18/73/71 4/184/71 21/185/71
f 18/186/72 19/187/72 4/188/72
f 18/189/73 13/190/73 19/191/73
f 13/192/74 3/193/74 19/194/74
f 16/195/75 17/196/75 6/197/75
f 16/198/76 14/68/76 17/199/76
f 14/36/77 1/200/77 17/201/77
f 13/202/78 15/203/78 3/204/78
f 13/168/79 14/189/79 15/205/79
f 14/206/80 2/207/80 15/208/80
