# Blender 4.3.2
# www.blender.org
o Icosphere
v -0.020322 -0.950239 0.056968
v 0.699273 -0.436453 0.527961
v -0.291483 -0.447569 0.841151
v -0.849768 -0.443679 -0.041200
v -0.195801 -0.412962 -0.818556
v 0.679246 -0.446715 -0.604846
v 0.359102 0.422922 0.802297
v -0.704002 0.439247 0.561165
v -0.686488 0.431928 -0.578215
v 0.295814 0.486716 -0.839025
v 0.887808 0.464416 0.014869
v 0.007693 0.942052 -0.051782
v -0.152846 -0.840869 0.526577
v 0.425036 -0.902989 0.273833
v 0.258768 -0.520305 0.813674
v 0.879034 -0.546988 -0.044302
v 0.370682 -0.855927 -0.307946
v -0.518442 -0.791883 -0.021349
v -0.699411 -0.529601 0.495406
v -0.219023 -0.854905 -0.480182
v -0.747269 -0.499166 -0.475183
v 0.223446 -0.484986 -0.830731
v 0.936565 -0.006102 0.297748
v 0.955406 0.020471 -0.303897
v 0.002244 0.056704 1.000527
v 0.544827 0.006199 0.836531
v -0.944611 -0.006894 0.316062
v -0.589023 0.015380 0.784675
v -0.602777 -0.030262 -0.779392
v -0.951179 0.002282 -0.303735
v 0.578186 0.032560 -0.751414
v -0.043421 -0.064548 -0.979066
v 0.706207 0.502269 0.508759
v -0.299754 0.555864 0.769637
v -0.860847 0.545284 0.016718
v -0.279214 0.512908 -0.805000
v 0.673067 0.564766 -0.548413
v 0.155410 0.847296 0.511133
v 0.559534 0.882584 0.006620
v -0.448272 0.836128 0.224385
v -0.399112 0.757277 -0.291038
v 0.248269 0.892297 -0.514408
vn -0.0063 -0.9743 0.2251
vn 0.7165 -0.6077 0.3425
vn -0.3188 -0.9390 0.1287
vn -0.2937 -0.9540 -0.0607
vn 0.0550 -0.9794 -0.1942
vn 0.8887 -0.3088 0.3388
vn 0.0072 -0.3052 0.9523
vn -0.9118 -0.3598 0.1979
vn -0.4427 -0.3880 -0.8084
vn 0.4490 -0.1734 -0.8766
vn 0.8007 -0.1285 0.5851
vn -0.3349 -0.1010 0.9368
vn -0.9760 -0.2177 0.0071
vn -0.3384 -0.2676 -0.9021
vn 0.7636 -0.0361 -0.6446
vn 0.4046 0.6414 0.6518
vn -0.4684 0.7274 0.5015
vn -0.5597 0.7684 -0.3104
vn -0.0178 0.6235 -0.7816
vn 0.7744 0.6042 -0.1876
vn 0.1121 0.9925 -0.0485
vn 0.5619 0.7622 -0.3215
vn 0.4070 0.5994 -0.6893
vn -0.2781 0.9289 -0.2445
vn -0.3321 0.8195 -0.4671
vn -0.4156 0.7800 -0.4678
vn -0.3211 0.9311 -0.1731
vn -0.5058 0.8442 -0.1774
vn -0.6483 0.6903 0.3212
vn -0.1097 0.9751 0.1929
vn -0.2508 0.8315 0.4957
vn 0.0791 0.5895 0.8039
vn 0.0912 0.9857 0.1420
vn 0.4789 0.7615 0.4369
vn 0.7625 0.6032 0.2341
vn 0.8976 0.3390 -0.2818
vn 0.7616 0.1080 -0.6390
vn 0.5712 0.2017 -0.7957
vn -0.0445 0.2716 -0.9614
vn -0.3243 0.1492 -0.9341
vn -0.5088 0.2645 -0.8193
vn -0.8839 0.3379 -0.3234
vn -0.9876 0.1567 0.0128
vn -0.8964 0.3085 0.3183
vn -0.5036 0.2921 0.8131
vn -0.3482 0.2118 0.9132
vn 0.0447 0.4415 0.8961
vn 0.5694 0.3161 0.7588
vn 0.8040 0.1228 0.5818
vn 0.9074 0.2816 0.3120
vn 0.3396 0.0298 -0.9401
vn 0.3561 -0.1017 -0.9289
vn -0.0925 -0.3830 -0.9191
vn -0.7978 0.1132 -0.5921
vn -0.8042 -0.1286 -0.5803
vn -0.9312 -0.3173 -0.1794
vn -0.7949 0.0999 0.5984
vn -0.7826 -0.1607 0.6015
vn -0.5860 -0.2841 0.7588
vn 0.3007 0.2105 0.9302
vn 0.2683 -0.1868 0.9451
vn 0.5567 -0.3355 0.7599
vn 0.9915 0.1247 0.0366
vn 0.9922 -0.1218 0.0257
vn 0.8850 -0.2869 -0.3667
vn 0.3596 -0.7102 -0.6052
vn 0.1745 -0.7792 -0.6020
vn -0.1259 -0.5989 -0.7909
vn -0.3776 -0.5503 -0.7447
vn -0.5433 -0.8033 -0.2442
vn -0.7197 -0.6895 -0.0818
vn -0.7239 -0.6835 0.0934
vn -0.4897 -0.8346 0.2521
vn -0.4086 -0.6536 0.6371
vn 0.6117 -0.7118 -0.3453
vn 0.5599 -0.8200 -0.1186
vn 0.1500 -0.9842 -0.0936
vn -0.0452 -0.6336 0.7723
vn 0.1814 -0.7751 0.6053
vn 0.5058 -0.6226 0.5971
vt 1.000000 0.103581
vt 0.901325 0.066228
vt 1.000000 0.000000
vt 0.873562 0.527104
vt 0.960821 0.468536
vt 0.960821 0.585669
vt 0.098675 0.909973
vt 0.000000 0.872620
vt 0.098675 0.806390
vt 0.513105 0.806389
vt 0.513105 0.909972
vt 0.414430 0.843742
vt 0.889908 0.279285
vt 0.977167 0.220719
vt 0.977167 0.337852
vt 0.715389 0.396420
vt 0.802648 0.337854
vt 0.802648 0.454989
vt 0.687627 0.527103
vt 0.774886 0.468536
vt 0.774886 0.585672
vt 0.687628 0.675704
vt 0.687628 0.779286
vt 0.588951 0.713056
vt 0.409500 0.468536
vt 0.409500 0.572119
vt 0.310823 0.505890
vt 0.305895 0.585671
vt 0.305895 0.689254
vt 0.207218 0.623025
vt 0.616711 0.220719
vt 0.518035 0.183364
vt 0.616711 0.117135
vt 0.409500 0.675702
vt 0.310823 0.609475
vt 0.687625 0.882869
vt 0.588951 0.816641
vt 0.687627 0.468536
vt 0.687627 0.572120
vt 0.588951 0.505891
vt 0.616713 0.337853
vt 0.518036 0.300499
vt 0.616713 0.234270
vt 0.409499 0.779286
vt 0.310823 0.713056
vt 0.889906 0.207166
vt 0.791231 0.169812
vt 0.889906 0.103583
vt 0.687627 0.864954
vt 0.774886 0.806388
vt 0.774886 0.923521
vt 0.786302 0.806388
vt 0.687627 0.769034
vt 0.786302 0.702806
vt 0.103608 0.837854
vt 0.190868 0.779288
vt 0.190868 0.896421
vt 0.873562 0.872617
vt 0.972237 0.806388
vt 0.972237 0.909970
vt 0.103608 0.409970
vt 0.207214 0.351403
vt 0.207214 0.468537
vt 0.774887 0.702806
vt 0.687627 0.644238
vt 0.977165 0.103583
vt 0.889906 0.162149
vt 0.518036 0.351403
vt 0.414430 0.292836
vt 0.518036 0.234270
vt 0.889908 0.454988
vt 0.802648 0.396421
vt 0.889908 0.337854
vt 0.310823 0.962646
vt 0.409498 0.896419
vt 0.409498 1.000000
vt 0.518037 0.117132
vt 0.414431 0.058566
vt 0.518037 0.000000
vt 0.873562 0.923521
vt 0.786302 0.864956
vt 0.873562 0.806388
vt 0.988582 0.441436
vt 0.889908 0.375207
vt 0.988582 0.337854
vt 0.414429 0.175701
vt 0.873562 0.468536
vt 0.873562 0.572118
vt 0.774886 0.534765
vt 0.983653 0.806387
vt 0.884977 0.740159
vt 0.983653 0.702806
vt 0.310823 0.234269
vt 0.310823 0.351403
vt 0.207218 0.292836
vt 0.901325 0.000000
vt 0.901325 0.103582
vt 0.802650 0.066228
vt 0.605298 0.066230
vt 0.703975 0.000000
vt 0.703975 0.103582
vt 0.103608 0.175702
vt 0.207215 0.117135
vt 0.207215 0.234269
vt 0.202284 0.468537
vt 0.202284 0.572122
vt 0.103608 0.534768
vt 0.703971 0.220719
vt 0.616711 0.162152
vt 0.310823 0.117135
vt 0.207215 0.175702
vt 0.588951 0.638351
vt 0.588949 0.689255
vt 0.588949 0.806389
vt 0.501689 0.747824
vt 0.414431 0.000000
vt 0.414431 0.117132
vt 0.310823 0.058566
vt 0.305892 0.792837
vt 0.207218 0.755485
vt 0.202283 0.675706
vt 0.103608 0.609475
vt 0.207216 0.058569
vt 0.310823 0.000000
vt 0.087259 0.702808
vt 0.000000 0.644240
vt 0.087259 0.585673
vt 0.588951 0.468536
vt 0.588951 0.585671
vt 0.501691 0.527104
vt 0.103608 0.117135
vt 0.103608 0.234269
vt 0.000000 0.175702
vt 0.703972 0.271622
vt 0.802649 0.234270
vt 0.605298 0.000000
vt 0.605298 0.117134
vt 0.518037 0.058568
vt 0.103608 0.292837
vt 0.703972 0.351406
vt 0.616713 0.292839
vt 0.703972 0.234270
vt 0.087261 0.468538
vt 0.000000 0.527106
vt 0.000000 0.058567
vt 0.103608 0.000000
vt 0.202284 0.779288
vt 0.103608 0.741936
vt 0.294479 0.468537
vt 0.294479 0.585671
vt 0.207218 0.527104
vt 0.103608 0.058567
vt 0.207216 0.000000
vt 0.501691 0.585671
vt 0.414430 0.527104
vt 0.501691 0.468536
vt 0.616713 0.454986
vt 0.518036 0.388758
vt 0.616713 0.351403
vt 0.103607 0.351405
vt 0.000000 0.292836
vt 0.414430 0.623024
vt 0.513105 0.585671
vt 0.513105 0.689255
vt 0.305892 0.896419
vt 0.207218 0.830192
vt 0.310823 0.175704
vt 0.414429 0.234269
vt 0.501689 0.806389
vt 0.414430 0.747824
vt 0.501689 0.689255
vt 0.873562 0.702806
vt 0.774887 0.636577
vt 0.873562 0.599223
vt 0.000000 0.409971
vt 0.103606 0.468538
vt 0.000000 0.740162
vt 0.098676 0.702808
vt 0.791231 0.103583
vt 0.791231 0.220717
vt 0.703971 0.162150
vt 0.310823 0.468537
vt 0.207218 0.409969
vt 0.802649 0.279285
vt 0.889908 0.220719
vt 0.398083 0.779286
vt 0.398083 0.896419
vt 0.310823 0.837852
vt 0.414430 0.351403
vt 0.414430 0.468536
vt 0.310823 0.409968
vt 0.616713 0.388759
vt 0.715389 0.351406
vt 0.715389 0.454989
vt 0.972238 0.702805
vt 0.873562 0.636577
vt 0.972238 0.599223
vt 0.414430 0.409969
vt 0.518036 0.468534
vt 0.687625 0.986450
vt 0.588951 0.949096
vt 0.703975 0.066228
vt 0.802650 0.000000
vt 0.802650 0.103582
vt 0.310823 0.292835
vt 0.884977 0.702806
vt 0.884977 0.806388
vt 0.786302 0.769035
s 1
f 1/1/1 14/2/1 13/3/1
f 2/4/2 14/5/2 16/6/2
f 1/7/3 13/8/3 18/9/3
f 1/10/4 18/11/4 20/12/4
f 1/13/5 20/14/5 17/15/5
f 2/16/6 16/17/6 23/18/6
f 3/19/7 15/20/7 25/21/7
f 4/22/8 19/23/8 27/24/8
f 5/25/9 21/26/9 29/27/9
f 6/28/10 22/29/10 31/30/10
f 2/31/11 23/32/11 26/33/11
f 3/26/12 25/34/12 28/35/12
f 4/23/13 27/36/13 30/37/13
f 5/38/14 29/39/14 32/40/14
f 6/41/15 31/42/15 24/43/15
f 7/34/16 33/44/16 38/45/16
f 8/46/17 34/47/17 40/48/17
f 9/49/18 35/50/18 41/51/18
f 10/52/19 36/53/19 42/54/19
f 11/55/20 37/56/20 39/57/20
f 39/58/21 42/59/21 12/60/21
f 39/61/22 37/62/22 42/63/22
f 37/64/23 10/65/23 42/21/23
f 42/66/24 41/14/24 12/67/24
f 42/68/25 36/69/25 41/70/25
f 36/71/26 9/72/26 41/73/26
f 41/74/27 40/75/27 12/76/27
f 41/77/28 35/78/28 40/79/28
f 35/80/29 8/81/29 40/82/29
f 40/83/30 38/84/30 12/85/30
f 40/77/31 34/70/31 38/86/31
f 34/87/32 7/88/32 38/89/32
f 38/90/33 39/91/33 12/92/33
f 38/93/34 33/94/34 39/95/34
f 33/96/35 11/97/35 39/98/35
f 24/99/36 37/100/36 11/101/36
f 24/102/37 31/103/37 37/104/37
f 31/105/38 10/106/38 37/107/38
f 32/101/39 36/108/39 10/109/39
f 32/110/40 29/93/40 36/111/40
f 29/39/41 9/22/41 36/112/41
f 30/113/42 35/114/42 9/115/42
f 30/116/43 27/117/43 35/118/43
f 27/29/44 8/119/44 35/120/44
f 28/121/45 34/122/45 8/106/45
f 28/110/46 25/123/46 34/124/46
f 25/125/47 7/126/47 34/127/47
f 26/128/48 33/129/48 7/130/48
f 26/131/49 23/132/49 33/133/49
f 23/134/50 11/135/50 33/17/50
f 31/136/51 32/137/51 10/138/51
f 31/62/52 22/139/52 32/104/52
f 22/140/53 5/141/53 32/142/53
f 29/143/54 30/127/54 9/144/54
f 29/131/55 21/145/55 30/146/55
f 21/121/56 4/147/56 30/148/56
f 27/149/57 28/150/57 8/151/57
f 27/103/58 19/152/58 28/153/58
f 19/154/59 3/155/59 28/156/59
f 25/157/60 26/158/60 7/159/60
f 25/132/61 15/160/61 26/161/61
f 15/162/62 2/163/62 26/164/62
f 23/165/63 24/166/63 11/119/63
f 23/167/64 16/117/64 24/168/64
f 16/169/65 6/170/65 24/171/65
f 17/172/66 22/173/66 6/174/66
f 17/175/67 20/160/67 22/176/67
f 20/177/68 5/178/68 22/9/68
f 20/179/69 21/180/69 5/181/69
f 20/182/70 18/183/70 21/94/70
f 18/73/71 4/184/71 21/185/71
f 18/186/72 19/187/72 4/188/72
f 18/189/73 13/190/73 19/191/73
f 13/192/74 3/193/74 19/194/74
f 16/195/75 17/196/75 6/197/75
f 16/198/76 14/68/76 17/199/76
f 14/36/77 1/200/77 17/201/77
f 13/202/78 15/203/78 3/204/78
f 13/168/79 14/189/79 15/205/79
f 14/206/80 2/207/80 15/208/80
