# Blender 4.3.2
# www.blender.org
o Icosphere
v 0.013363 -0.999669 -0.003112
v 0.664394 -0.452270 0.523678
v -0.229321 -0.487857 0.829954
v -0.843558 -0.404776 0.026773
v -0.227176 -0.517925 -0.814871
v 0.703671 -0.511574 -0.484287
v 0.286210 0.404164 0.854439
v -0.677181 0.384638 0.477285
v -0.714979 0.450303 -0.572966
v 0.241708 0.483206 -0.885390
v 0.897940 0.453950 0.005064
v -0.018773 1.001385 -0.007628
v -0.174480 -0.887814 0.564611
v 0.430937 -0.856664 0.312758
v 0.304179 -0.501264 0.823774
v 0.868354 -0.511305 -0.002447
v 0.471599 -0.814989 -0.330396
v -0.495846 -0.837859 -0.002187
v -0.688964 -0.571443 0.520739
v -0.219300 -0.923117 -0.503919
v -0.693802 -0.529305 -0.496021
v 0.233121 -0.542540 -0.800881
v 0.920787 -0.014746 0.400499
v 0.933752 0.037162 -0.349689
v 0.005381 0.019285 0.995301
v 0.601734 0.033428 0.781655
v -0.960867 0.009765 0.324500
v -0.596447 0.005100 0.801423
v -0.621840 -0.001213 -0.744799
v -0.960026 0.000930 -0.307214
v 0.587859 0.073344 -0.804026
v 0.047646 0.003530 -0.986426
v 0.666822 0.522707 0.488418
v -0.328917 0.522740 0.828981
v -0.859110 0.473725 0.020518
v -0.281582 0.507071 -0.797222
v 0.677796 0.530118 -0.502581
v 0.227167 0.840752 0.457995
v 0.537584 0.765088 -0.000265
v -0.428514 0.851831 0.308460
v -0.370050 0.812198 -0.337355
v 0.225371 0.907635 -0.476358
vn 0.1485 -0.9598 0.2382
vn 0.7224 -0.5981 0.3471
vn -0.3015 -0.9494 0.0873
vn -0.3029 -0.9530 -0.0050
vn 0.2091 -0.9475 -0.2420
vn 0.8431 -0.3897 0.3706
vn 0.0032 -0.3113 0.9503
vn -0.9137 -0.3735 0.1600
vn -0.5332 -0.3000 -0.7910
vn 0.5437 -0.3171 -0.7771
vn 0.7277 -0.2462 0.6402
vn -0.2987 -0.1681 0.9394
vn -0.9617 -0.2740 0.0026
vn -0.3358 -0.1300 -0.9329
vn 0.7762 -0.1771 -0.6051
vn 0.4190 0.6408 0.6433
vn -0.6941 0.5410 0.4749
vn -0.6477 0.7387 -0.1865
vn -0.0897 0.6893 -0.7189
vn 0.6456 0.7449 -0.1682
vn 0.3906 0.9203 0.0194
vn 0.6238 0.7602 -0.1815
vn 0.4799 0.6183 -0.6224
vn -0.2188 0.9286 -0.2997
vn -0.2579 0.7815 -0.5681
vn -0.3860 0.7328 -0.5604
vn -0.4035 0.9103 -0.0924
vn -0.6162 0.7807 -0.1037
vn -0.7410 0.5391 0.4003
vn -0.0655 0.9321 0.3562
vn -0.1105 0.8304 0.5461
vn 0.1002 0.6763 0.7298
vn 0.3873 0.9152 0.1112
vn 0.5568 0.7933 0.2462
vn 0.6387 0.7431 0.1997
vn 0.8764 0.3536 -0.3270
vn 0.7835 0.2274 -0.5783
vn 0.5938 0.3585 -0.7204
vn -0.1488 0.2611 -0.9538
vn -0.3374 0.1297 -0.9324
vn -0.4709 0.2273 -0.8524
vn -0.9051 0.3553 -0.2338
vn -0.9774 0.2116 -0.0043
vn -0.8009 0.4410 0.4050
vn -0.7310 0.3465 0.5878
vn -0.3071 0.1084 0.9455
vn 0.0241 0.3280 0.9444
vn 0.5872 0.3572 0.7263
vn 0.7565 0.2592 0.6005
vn 0.8639 0.3488 0.3635
vn 0.3104 0.0740 -0.9477
vn 0.3365 -0.1985 -0.9205
vn 0.0118 -0.3181 -0.9480
vn -0.7892 0.0695 -0.6102
vn -0.7792 -0.1771 -0.6013
vn -0.9037 -0.3951 -0.1648
vn -0.7480 0.3318 0.5748
vn -0.7845 -0.1651 0.5978
vn -0.4890 -0.3171 0.8126
vn 0.3335 0.0998 0.9375
vn 0.3375 -0.1142 0.9344
vn 0.6347 -0.2970 0.7134
vn 0.9975 0.0671 0.0219
vn 0.9936 -0.1125 0.0094
vn 0.9019 -0.3026 -0.3081
vn 0.4517 -0.6535 -0.6074
vn 0.2662 -0.7695 -0.5805
vn -0.0085 -0.6089 -0.7932
vn -0.4639 -0.5450 -0.6984
vn -0.6255 -0.7493 -0.2174
vn -0.7800 -0.6212 -0.0755
vn -0.7783 -0.6270 0.0320
vn -0.5242 -0.8213 0.2248
vn -0.3978 -0.5445 0.7385
vn 0.7078 -0.6639 -0.2415
vn 0.6142 -0.7891 -0.0123
vn 0.3497 -0.9361 -0.0385
vn -0.0043 -0.5532 0.8330
vn 0.2858 -0.7521 0.5939
vn 0.5531 -0.6134 0.5638
vt 1.000000 0.103581
vt 0.901325 0.066228
vt 1.000000 0.000000
vt 0.873562 0.527104
vt 0.960821 0.468536
vt 0.960821 0.585669
vt 0.098675 0.909973
vt 0.000000 0.872620
vt 0.098675 0.806390
vt 0.513105 0.806389
vt 0.513105 0.909972
vt 0.414430 0.843742
vt 0.889908 0.279285
vt 0.977167 0.220719
vt 0.977167 0.337852
vt 0.715389 0.396420
vt 0.802648 0.337854
vt 0.802648 0.454989
vt 0.687627 0.527103
vt 0.774886 0.468536
vt 0.774886 0.585672
vt 0.687628 0.675704
vt 0.687628 0.779286
vt 0.588951 0.713056
vt 0.409500 0.468536
vt 0.409500 0.572119
vt 0.310823 0.505890
vt 0.305895 0.585671
vt 0.305895 0.689254
vt 0.207218 0.623025
vt 0.616711 0.220719
vt 0.518035 0.183364
vt 0.616711 0.117135
vt 0.409500 0.675702
vt 0.310823 0.609475
vt 0.687625 0.882869
vt 0.588951 0.816641
vt 0.687627 0.468536
vt 0.687627 0.572120
vt 0.588951 0.505891
vt 0.616713 0.337853
vt 0.518036 0.300499
vt 0.616713 0.234270
vt 0.409499 0.779286
vt 0.310823 0.713056
vt 0.889906 0.207166
vt 0.791231 0.169812
vt 0.889906 0.103583
vt 0.687627 0.864954
vt 0.774886 0.806388
vt 0.774886 0.923521
vt 0.786302 0.806388
vt 0.687627 0.769034
vt 0.786302 0.702806
vt 0.103608 0.837854
vt 0.190868 0.779288
vt 0.190868 0.896421
vt 0.873562 0.872617
vt 0.972237 0.806388
vt 0.972237 0.909970
vt 0.103608 0.409970
vt 0.207214 0.351403
vt 0.207214 0.468537
vt 0.774887 0.702806
vt 0.687627 0.644238
vt 0.977165 0.103583
vt 0.889906 0.162149
vt 0.518036 0.351403
vt 0.414430 0.292836
vt 0.518036 0.234270
vt 0.889908 0.454988
vt 0.802648 0.396421
vt 0.889908 0.337854
vt 0.310823 0.962646
vt 0.409498 0.896419
vt 0.409498 1.000000
vt 0.518037 0.117132
vt 0.414431 0.058566
vt 0.518037 0.000000
vt 0.873562 0.923521
vt 0.786302 0.864956
vt 0.873562 0.806388
vt 0.988582 0.441436
vt 0.889908 0.375207
vt 0.988582 0.337854
vt 0.414429 0.175701
vt 0.873562 0.468536
vt 0.873562 0.572118
vt 0.774886 0.534765
vt 0.983653 0.806387
vt 0.884977 0.740159
vt 0.983653 0.702806
vt 0.310823 0.234269
vt 0.310823 0.351403
vt 0.207218 0.292836
vt 0.901325 0.000000
vt 0.901325 0.103582
vt 0.802650 0.066228
vt 0.605298 0.066230
vt 0.703975 0.000000
vt 0.703975 0.103582
vt 0.103608 0.175702
vt 0.207215 0.117135
vt 0.207215 0.234269
vt 0.202284 0.468537
vt 0.202284 0.572122
vt 0.103608 0.534768
vt 0.703971 0.220719
vt 0.616711 0.162152
vt 0.310823 0.117135
vt 0.207215 0.175702
vt 0.588951 0.638351
vt 0.588949 0.689255
vt 0.588949 0.806389
vt 0.501689 0.747824
vt 0.414431 0.000000
vt 0.414431 0.117132
vt 0.310823 0.058566
vt 0.305892 0.792837
vt 0.207218 0.755485
vt 0.202283 0.675706
vt 0.103608 0.609475
vt 0.207216 0.058569
vt 0.310823 0.000000
vt 0.087259 0.702808
vt 0.000000 0.644240
vt 0.087259 0.585673
vt 0.588951 0.468536
vt 0.588951 0.585671
vt 0.501691 0.527104
vt 0.103608 0.117135
vt 0.103608 0.234269
vt 0.000000 0.175702
vt 0.703972 0.271622
vt 0.802649 0.234270
vt 0.605298 0.000000
vt 0.605298 0.117134
vt 0.518037 0.058568
vt 0.103608 0.292837
vt 0.703972 0.351406
vt 0.616713 0.292839
vt 0.703972 0.234270
vt 0.087261 0.468538
vt 0.000000 0.527106
vt 0.000000 0.058567
vt 0.103608 0.000000
vt 0.202284 0.779288
vt 0.103608 0.741936
vt 0.294479 0.468537
vt 0.294479 0.585671
vt 0.207218 0.527104
vt 0.103608 0.058567
vt 0.207216 0.000000
vt 0.501691 0.585671
vt 0.414430 0.527104
vt 0.501691 0.468536
vt 0.616713 0.454986
vt 0.518036 0.388758
vt 0.616713 0.351403
vt 0.103607 0.351405
vt 0.000000 0.292836
vt 0.414430 0.623024
vt 0.513105 0.585671
vt 0.513105 0.689255
vt 0.305892 0.896419
vt 0.207218 0.830192
vt 0.310823 0.175704
vt 0.414429 0.234269
vt 0.501689 0.806389
vt 0.414430 0.747824
vt 0.501689 0.689255
vt 0.873562 0.702806
vt 0.774887 0.636577
vt 0.873562 0.599223
vt 0.000000 0.409971
vt 0.103606 0.468538
vt 0.000000 0.740162
vt 0.098676 0.702808
vt 0.791231 0.103583
vt 0.791231 0.220717
vt 0.703971 0.162150
vt 0.310823 0.468537
vt 0.207218 0.409969
vt 0.802649 0.279285
vt 0.889908 0.220719
vt 0.398083 0.779286
vt 0.398083 0.896419
vt 0.310823 0.837852
vt 0.414430 0.351403
vt 0.414430 0.468536
vt 0.310823 0.409968
vt 0.616713 0.388759
vt 0.715389 0.351406
vt 0.715389 0.454989
vt 0.972238 0.702805
vt 0.873562 0.636577
vt 0.972238 0.599223
vt 0.414430 0.409969
vt 0.518036 0.468534
vt 0.687625 0.986450
vt 0.588951 0.949096
vt 0.703975 0.066228
vt 0.802650 0.000000
vt 0.802650 0.103582
vt 0.310823 0.292835
vt 0.884977 0.702806
vt 0.884977 0.806388
vt 0.786302 0.769035
s 1
f 1/1/1 14/2/1 13/3/1
f 2/4/2 14/5/2 16/6/2
f 1/7/3 13/8/3 18/9/3
f 1/10/4 18/11/4 20/12/4
f 1/13/5 20/14/5 17/15/5
f 2/16/6 16/17/6 23/18/6
f 3/19/7 15/20/7 25/21/7
f 4/22/8 19/23/8 27/24/8
f 5/25/9 21/26/9 29/27/9
f 6/28/10 22/29/10 31/30/10
f 2/31/11 23/32/11 26/33/11
f 3/26/12 25/34/12 28/35/12
f 4/23/13 27/36/13 30/37/13
f 5/38/14 29/39/14 32/40/14
f 6/41/15 31/42/15 24/43/15
f 7/34/16 33/44/16 38/45/16
f 8/46/17 34/47/17 40/48/17
f 9/49/18 35/50/18 41/51/18
f 10/52/19 36/53/19 42/54/19
f 11/55/20 37/56/20 39/57/20
f 39/58/21 42/59/21 12/60/21
f 39/61/22 37/62/22 42/63/22
f 37/64/23 10/65/23 42/21/23
f 42/66/24 41/14/24 12/67/24
f 42/68/25 36/69/25 41/70/25
f 36/71/26 9/72/26 41/73/26
f 41/74/27 40/75/27 12/76/27
f 41/77/28 35/78/28 40/79/28
f 35/80/29 8/81/29 40/82/29
f 40/83/30 38/84/30 12/85/30
f 40/77/31 34/70/31 38/86/31
f 34/87/32 7/88/32 38/89/32
f 38/90/33 39/91/33 12/92/33
f 38/93/34 33/94/34 39/95/34
f 33/96/35 11/97/35 39/98/35
f 24/99/36 37/100/36 11/101/36
f 24/102/37 31/103/37 37/104/37
f 31/105/38 10/106/38 37/107/38
f 32/101/39 36/108/39 10/109/39
f 32/110/40 29/93/40 36/111/40
f 29/39/41 9/22/41 36/112/41
f 30/113/42 35/114/42 9/115/42
f 30/116/43 27/117/43 35/118/43
f 27/29/44 8/119/44 35/120/44
f 28/121/45 34/122/45 8/106/45
f 28/110/46 25/123/46 34/124/46
f 25/125/47 7/126/47 34/127/47
f 26/128/48 33/129/48 7/130/48
f 26/131/49 23/132/49 33/133/49
f 23/134/50 11/135/50 33/17/50
f 31/136/51 32/137/51 10/138/51
f 31/62/52 22/139/52 32/104/52
f 22/140/53 5/141/53 32/142/53
f 29/143/54 30/127/54 9/144/54
f 29/131/55 21/145/55 30/146/55
f 21/121/56 4/147/56 30/148/56
f 27/149/57 28/150/57 8/151/57
f 27/103/58 19/152/58 28/153/58
f 19/154/59 3/155/59 28/156/59
f 25/157/60 26/158/60 7/159/60
f 25/132/61 15/160/61 26/161/61
f 15/162/62 2/163/62 26/164/62
f 23/165/63 24/166/63 11/119/63
f 23/167/64 16/117/64 24/168/64
f 16/169/65 6/170/65 24/171/65
f 17/172/66 22/173/66 6/174/66
f 17/175/67 20/160/67 22/176/67
f 20/177/68 5/178/68 22/9/68
f 20/179/69 21/180/69 5/181/69
f 20/182/70 18/183/70 21/94/70
f 18/73/71 4/184/71 21/185/71
f 18/186/72 19/187/72 4/188/72
f 18/189/73 13/190/73 19/191/73
f 13/192/74 3/193/74 19/194/74
f 16/195/75 17/196/75 6/197/75
f 16/198/76 14/68/76 17/199/76
f 14/36/77 1/200/77 17/201/77
f 13/202/78 15/203/78 3/204/78
f 13/168/79 14/189/79 15/205/79
f 14/206/80 2/207/80 15/208/80
