# Blender 4.2.3 LTS
# www.blender.org
o SIDE
v -0.185832 -0.432900 -0.089433
v -0.110179 -0.453337 0.147967
v 0.093100 -0.418404 -0.242891
v -0.145177 -0.425913 -0.167605
v -0.126263 -0.431023 -0.108255
v -0.050610 -0.451460 0.129146
v -0.031696 -0.456569 0.188496
v 0.112013 -0.423513 -0.183541
v 0.187667 -0.443950 0.053860
v 0.206580 -0.449060 0.113210
v 0.171582 -0.421636 -0.202362
v 0.247236 -0.442073 0.035038
v -0.136834 0.459351 -0.065999
v -0.143957 0.401229 0.177047
v -0.073595 0.462551 -0.127668
v -0.075376 0.448020 -0.066907
v -0.082500 0.389898 0.176138
v 0.172235 0.417227 -0.131302
v 0.163330 0.344574 0.172505
v 0.161550 0.330043 0.233266
v 0.231912 0.391365 -0.071449
v 0.224788 0.333243 0.171596
v 0.170454 0.402696 -0.070540
v -0.084281 0.375367 0.236900
v -0.109935 -0.515600 0.142529
v -0.185588 -0.495163 -0.094871
v -0.132730 0.460951 0.191658
v -0.125607 0.519073 -0.051387
v -0.031452 -0.518832 0.183058
v -0.050366 -0.513722 0.123708
v -0.126019 -0.493285 -0.113692
v -0.144932 -0.488176 -0.173042
v -0.073054 0.435089 0.251511
v -0.071273 0.449620 0.190749
v -0.064149 0.507742 -0.052296
v -0.062368 0.522273 -0.113057
v 0.206824 -0.511322 0.107772
v 0.187911 -0.506213 0.048422
v 0.112257 -0.485776 -0.188979
v 0.093344 -0.480666 -0.248329
v 0.172777 0.389765 0.247877
v 0.174557 0.404296 0.187116
v 0.181681 0.462418 -0.055929
v 0.183462 0.476949 -0.116691
v 0.247480 -0.504335 0.029600
v 0.171826 -0.483898 -0.207800
v 0.236015 0.392965 0.186208
v 0.243139 0.451087 -0.056838
v -0.185832 -0.432900 -0.089433
v -0.110179 -0.453337 0.147967
v 0.093100 -0.418404 -0.242891
v -0.145177 -0.425913 -0.167605
v -0.126263 -0.431023 -0.108255
v -0.050610 -0.451460 0.129146
v -0.031696 -0.456569 0.188496
v 0.112013 -0.423513 -0.183541
v 0.187667 -0.443950 0.053860
v 0.206580 -0.449060 0.113210
v 0.171582 -0.421636 -0.202362
v 0.247236 -0.442073 0.035038
v -0.136834 0.459351 -0.065999
v -0.143957 0.401229 0.177047
v -0.073595 0.462551 -0.127668
v -0.075376 0.448020 -0.066907
v -0.082500 0.389898 0.176138
v 0.172235 0.417227 -0.131302
v 0.163330 0.344574 0.172505
v 0.161550 0.330043 0.233266
v 0.231912 0.391365 -0.071449
v 0.224788 0.333243 0.171596
v 0.170454 0.402696 -0.070540
v -0.084281 0.375367 0.236900
v -0.120183 0.214728 -0.188299
v 0.128059 0.182230 -0.188794
v -0.182894 0.214334 -0.125943
v -0.138850 0.208573 -0.126029
v -0.184786 0.189546 0.055258
v -0.120643 0.208695 -0.144194
v -0.185493 0.180283 0.122992
v -0.120833 0.206211 -0.126066
v 0.057202 0.191509 -0.188652
v 0.117189 0.095513 0.157528
v 0.179427 0.091946 0.112563
v 0.116647 0.091184 0.174829
v 0.118548 0.106356 0.114224
v -0.059903 0.132986 0.179651
v 0.161922 0.096089 0.113040
v -0.126866 0.148834 0.181478
v 0.181616 0.109408 0.042817
v 0.188349 0.159633 -0.128143
v 0.125695 0.164601 -0.128791
v 0.170850 0.161018 -0.128324
v 0.126365 0.169600 -0.145816
v 0.190742 -0.195849 -0.119200
v 0.246360 -0.218805 0.054537
v 0.170664 -0.187562 -0.181919
v 0.092197 -0.188226 -0.222788
v 0.111121 -0.196034 -0.163673
v -0.088552 -0.213942 -0.167401
v -0.145976 -0.222112 -0.149805
v 0.126778 -0.193808 -0.168471
v 0.097179 -0.190281 -0.207226
v -0.032538 -0.241999 0.207236
v 0.186800 -0.223018 0.073155
v 0.191607 -0.223565 0.088315
v 0.145155 -0.229438 0.151691
v 0.201937 -0.221947 0.068424
v 0.205702 -0.225147 0.132765
v -0.046815 -0.239219 0.162328
v -0.168521 -0.228896 -0.014294
v -0.051446 -0.238316 0.147761
v -0.186646 -0.225364 -0.071308
v -0.096444 -0.239663 0.161985
v -0.111015 -0.240095 0.166591
v -0.141553 -0.223272 -0.135924
v -0.127063 -0.227069 -0.090442
v -0.172518 -0.225768 -0.075845
v -0.126866 0.150223 0.164192
v -0.142571 0.163285 0.120185
v -0.126312 0.156841 0.119120
vn -0.9833 0.1813 0.0146
vn -0.9833 0.1813 0.0145
vn 0.9531 0.0300 -0.3011
vn 0.3026 -0.0817 0.9496
vn -0.0285 -0.2325 0.9722
vn -0.3026 0.0817 -0.9496
vn -0.3026 0.0818 -0.9496
vn 0.9531 0.0300 -0.3012
vn -0.9531 -0.0300 0.3012
vn 0.9833 -0.1813 -0.0145
vn 0.3026 -0.0818 0.9496
vn 0.0285 0.2325 -0.9722
vn -0.9531 -0.0300 0.3011
vn -0.9510 -0.0863 0.2970
vn -0.9464 -0.1373 0.2924
vn -0.9512 0.0389 0.3063
vn -0.9503 0.0519 0.3071
vn 0.9833 -0.1813 -0.0146
vn 0.2912 0.0913 0.9523
vn 0.3008 -0.0420 0.9528
vn -0.0084 -0.0493 -0.9987
vn 0.9774 0.1957 0.0797
vn 0.0222 0.1519 -0.9881
vn 0.0098 0.0904 -0.9959
vn 0.9511 -0.0246 -0.3078
vn 0.9991 0.0078 0.0416
vn 0.0190 0.1101 -0.9937
vn 0.9520 -0.0089 -0.3059
vn -0.0061 -0.1397 0.9902
vn 0.9192 0.2754 -0.2815
vn -0.0023 -0.1242 0.9923
vn 0.9139 0.2944 -0.2793
vn 0.1103 0.1150 0.9872
vn 0.1129 0.1223 0.9861
vn -0.3068 -0.0736 -0.9489
vn -0.3069 -0.0857 -0.9479
vn -0.9360 -0.2071 0.2847
vn -0.9383 -0.1942 0.2862
vn -0.9999 0.0074 -0.0094
vn -0.9992 -0.0363 -0.0154
vn -0.9988 0.0483 -0.0039
vn -0.9983 0.0587 -0.0024
vn 0.0453 0.0766 0.9960
vn 0.0104 -0.0711 0.9974
vn -0.2835 -0.0676 -0.9566
vn 0.9440 0.1763 -0.2789
vn -0.3087 0.1447 -0.9401
vn -0.3000 0.0579 -0.9522
vn 0.9952 -0.0973 0.0106
vn 0.9523 -0.0013 -0.3050
vn -0.3049 0.1039 -0.9467
vn 0.9964 -0.0833 0.0147
vn 0.3037 -0.1113 0.9463
vn 0.9781 0.1928 0.0790
vn 0.3031 -0.0949 0.9482
vn 0.9743 0.2093 0.0829
vn 0.2957 0.1247 0.9471
vn 0.2952 0.1320 0.9463
vn -0.0169 -0.1135 -0.9934
vn -0.0180 -0.1231 -0.9922
vn -0.9794 -0.2012 -0.0162
vn -0.9812 -0.1888 -0.0398
vt 0.937500 0.937500
vt 0.920373 0.697715
vt 0.937500 0.700430
vt 0.625000 0.937500
vt 0.606794 0.682613
vt 0.625000 0.684443
vt 0.109105 0.285031
vt 0.062500 0.062500
vt 0.125000 0.062500
vt 0.421047 0.292843
vt 0.375000 0.062500
vt 0.437500 0.062500
vt 0.308689 0.294589
vt 0.077788 0.276528
vt 0.062500 0.276556
vt 0.390884 0.284871
vt 0.375000 0.284275
vt 0.193746 0.696887
vt 0.375000 0.937500
vt 0.125000 0.937500
vt 0.922680 0.269975
vt 0.875000 0.062500
vt 0.937500 0.062500
vt 0.608565 0.292586
vt 0.562500 0.062500
vt 0.625000 0.062500
vt 0.814725 0.273463
vt 0.875000 0.937500
vt 0.806977 0.699420
vt 0.875000 0.706276
vt 0.562500 0.937500
vt 0.125000 0.284275
vt 0.437500 0.293556
vt 0.375000 0.297467
vt 0.125000 0.700430
vt 0.937500 0.270828
vt 0.625000 0.290847
vt 0.875000 0.267078
vt 0.187500 0.125000
vt 0.187500 0.062500
vt 0.187500 0.875000
vt 0.125000 0.875000
vt 0.187500 0.437500
vt 0.125000 0.375000
vt 0.187500 0.375000
vt 0.187500 0.562500
vt 0.125000 0.625000
vt 0.125000 0.562500
vt 0.312500 0.125000
vt 0.375000 0.125000
vt 0.312500 0.937500
vt 0.375000 0.875000
vt 0.312500 0.437500
vt 0.375000 0.375000
vt 0.375000 0.437500
vt 0.312500 0.625000
vt 0.375000 0.562500
vt 0.375000 0.625000
vt 0.437500 0.125000
vt 0.437500 0.375000
vt 0.437500 0.625000
vt 0.437500 0.875000
vt 0.062500 0.812500
vt 0.062500 0.875000
vt 0.125000 0.187500
vt 0.062500 0.125000
vt 0.125000 0.125000
vt 0.375000 0.812500
vt 0.437500 0.187500
vt 0.062500 0.375000
vt 0.125000 0.312500
vt 0.062500 0.687500
vt 0.062500 0.625000
vt 0.437500 0.312500
vt 0.375000 0.687500
vt 0.875000 0.375000
vt 0.625000 0.437500
vt 0.625000 0.375000
vt 0.625000 0.625000
vt 0.875000 0.562500
vt 0.875000 0.625000
vt 0.187500 0.937500
vt 0.125000 0.437500
vt 0.187500 0.625000
vt 0.312500 0.062500
vt 0.312500 0.875000
vt 0.312500 0.375000
vt 0.312500 0.562500
vt 0.125000 0.812500
vt 0.062500 0.187500
vt 0.437500 0.812500
vt 0.375000 0.187500
vt 0.062500 0.312500
vt 0.125000 0.687500
vt 0.375000 0.312500
vt 0.437500 0.687500
vt 0.875000 0.437500
vt 0.625000 0.562500
vt 0.875000 0.684443
vt 0.893145 0.683472
vt 0.696359 0.687743
vt 0.625000 0.270828
vt 0.684914 0.272199
vt 0.875000 0.276556
vt 0.625000 0.691573
vt 0.577115 0.267114
vt 0.625000 0.267232
vt 0.562500 0.267078
vt 0.125000 0.684979
vt 0.196928 0.685753
vt 0.419529 0.685905
vt 0.437500 0.684979
vt 0.437500 0.937500
vt 0.080342 0.687719
vt 0.062500 0.937500
vt 0.125000 0.277888
vt 0.311464 0.284875
vt 0.375000 0.688202
vt 0.062500 0.687530
vt 0.375000 0.687530
vt 0.375000 0.287266
vt 0.562500 0.694988
vt 0.579955 0.693126
vt 0.392732 0.689247
vt 0.375000 0.688329
vt 0.875000 0.678149
vt 0.125000 0.286619
vt 0.562500 0.297467
vt 0.625000 0.293556
vt 0.375000 0.694988
vt 0.625000 0.688329
vt 0.375000 0.290847
vt 0.062500 0.287266
vt 0.125000 0.693603
vt 0.107828 0.697088
vt 0.062500 0.706276
vt 0.890308 0.276807
vt 0.937500 0.277888
vt 0.875000 0.276457
vt 0.875000 0.267232
vt 0.875000 0.693603
vt 0.562500 0.678149
vt 0.125000 0.276457
vt 0.437500 0.286619
vt 0.625000 0.681086
vt 0.937500 0.681086
vt 0.125000 0.688202
vt 0.437500 0.691573
s 0
f 24/1/1 118/2/1 88/3/1
f 16/4/2 78/5/2 80/6/2
f 105/7/3 10/8/3 9/9/3
f 102/10/3 8/11/3 3/12/3
f 94/13/3 12/9/3 11/11/3
f 2/8/4 113/14/4 114/15/4
f 9/11/4 107/16/4 104/17/4
f 86/18/5 20/19/5 24/20/5
f 117/21/6 5/22/6 1/23/6
f 101/24/7 11/25/7 8/26/7
f 99/27/7 3/26/7 4/22/7
f 14/28/2 77/29/2 79/30/2
f 17/28/2 118/2/2 24/1/2
f 15/31/2 78/5/2 16/4/2
f 9/9/3 104/32/3 105/7/3
f 3/12/8 97/33/8 102/10/8
f 11/11/3 96/34/3 94/13/3
f 6/9/4 113/14/4 2/8/4
f 12/12/4 107/16/4 9/11/4
f 24/20/5 88/35/5 86/18/5
f 1/23/6 112/36/6 117/21/6
f 8/26/7 98/37/7 101/24/7
f 4/22/7 100/38/7 99/27/7
f 13/4/2 77/29/2 14/28/2
f 34/39/2 72/9/2 33/40/2
f 30/41/9 55/20/9 54/42/9
f 36/43/2 64/44/2 35/45/2
f 32/46/9 53/47/9 52/48/9
f 42/49/10 68/11/10 67/50/10
f 37/51/3 57/52/3 58/19/3
f 44/53/10 71/54/10 66/55/10
f 39/56/3 51/57/3 56/58/3
f 48/54/10 70/59/10 69/60/10
f 45/52/3 59/61/3 60/62/3
f 25/63/11 54/42/11 50/64/11
f 34/65/5 62/66/5 65/67/5
f 38/68/11 60/62/11 57/52/11
f 47/69/5 67/50/5 70/59/5
f 29/42/11 58/19/11 55/20/11
f 41/50/5 72/9/5 68/11/5
f 35/70/12 61/71/12 28/44/12
f 26/47/6 53/72/6 31/73/6
f 48/54/12 71/74/12 43/60/12
f 39/61/7 59/75/7 46/58/7
f 44/76/12 63/77/12 36/78/12
f 32/79/7 51/80/7 40/81/7
f 28/44/2 62/66/2 27/67/2
f 26/47/13 50/64/13 49/73/13
f 34/39/2 65/67/2 72/9/2
f 30/41/9 29/82/9 55/20/9
f 36/43/2 63/83/2 64/44/2
f 32/46/13 31/84/13 53/47/13
f 42/49/10 41/85/10 68/11/10
f 37/51/3 38/86/3 57/52/3
f 44/53/10 43/87/10 71/54/10
f 39/56/3 40/88/3 51/57/3
f 48/54/10 47/50/10 70/59/10
f 45/52/3 46/58/3 59/61/3
f 25/63/11 30/89/11 54/42/11
f 34/65/5 27/90/5 62/66/5
f 38/68/11 45/91/11 60/62/11
f 47/69/5 42/92/5 67/50/5
f 29/42/11 37/52/11 58/19/11
f 41/50/5 33/67/5 72/9/5
f 35/70/12 64/93/12 61/71/12
f 26/47/7 49/94/7 53/72/7
f 48/54/12 69/95/12 71/74/12
f 39/61/7 56/96/7 59/75/7
f 44/76/12 66/97/12 63/77/12
f 32/79/6 52/98/6 51/80/6
f 28/44/2 61/70/2 62/66/2
f 26/47/13 25/42/13 50/64/13
f 80/99/12 76/100/12 16/28/12
f 81/101/12 15/28/12 18/4/12
f 77/29/14 112/102/14 110/103/14
f 79/30/15 110/103/15 114/104/15
f 74/105/12 81/101/12 18/4/12
f 80/6/16 115/106/16 116/107/16
f 76/100/12 13/1/12 16/28/12
f 78/5/17 100/108/17 115/106/17
f 83/109/10 89/110/10 22/20/10
f 87/111/5 83/112/5 22/113/5
f 82/114/18 19/20/18 20/115/18
f 86/18/19 103/116/19 106/117/19
f 87/111/5 19/19/5 85/118/5
f 84/119/18 82/114/18 20/115/18
f 84/120/20 106/117/20 108/121/20
f 90/122/12 92/123/12 21/31/12
f 93/124/10 18/113/10 23/19/10
f 89/110/10 21/19/10 22/20/10
f 92/123/12 23/4/12 21/31/12
f 91/125/10 93/124/10 23/19/10
f 99/27/21 73/126/21 81/101/21
f 95/127/22 89/110/22 83/109/22
f 96/128/23 92/123/23 90/122/23
f 97/129/24 81/101/24 74/105/24
f 97/33/25 93/124/25 102/10/25
f 94/13/26 90/130/26 89/110/26
f 101/24/27 91/131/27 92/123/27
f 102/10/28 91/125/28 98/132/28
f 106/117/4 7/9/4 10/11/4
f 107/16/29 83/112/29 87/111/29
f 104/32/30 82/114/30 105/7/30
f 104/17/31 87/111/31 85/118/31
f 108/121/4 106/117/4 10/11/4
f 105/7/32 84/119/32 108/133/32
f 113/14/33 120/134/33 119/135/33
f 110/103/13 112/102/13 1/26/13
f 110/103/13 2/22/13 114/104/13
f 114/15/34 119/135/34 79/136/34
f 109/137/13 7/23/13 103/138/13
f 109/137/13 111/139/13 6/22/13
f 117/21/35 80/99/35 116/140/35
f 115/106/9 100/108/9 4/25/9
f 112/36/36 76/100/36 117/21/36
f 115/106/13 5/26/13 116/107/13
f 88/3/37 109/137/37 103/138/37
f 79/136/5 17/20/5 14/115/5
f 119/135/5 120/134/5 17/20/5
f 118/2/38 111/139/38 109/137/38
f 105/7/8 108/133/8 10/8/8
f 102/10/3 98/132/3 8/11/3
f 94/13/3 95/127/3 12/9/3
f 86/18/5 84/120/5 20/19/5
f 117/21/6 116/140/6 5/22/6
f 101/24/6 96/128/6 11/25/6
f 99/27/6 97/129/6 3/26/6
f 17/28/2 120/141/2 118/2/2
f 15/31/2 73/142/2 78/5/2
f 6/9/4 111/143/4 113/14/4
f 12/12/4 95/144/4 107/16/4
f 13/4/2 75/145/2 77/29/2
f 81/101/12 73/126/12 15/28/12
f 77/29/39 75/145/39 112/102/39
f 79/30/40 77/29/40 110/103/40
f 80/6/41 78/5/41 115/106/41
f 76/100/12 75/146/12 13/1/12
f 78/5/42 73/142/42 100/108/42
f 82/114/10 85/147/10 19/20/10
f 86/18/43 88/35/43 103/116/43
f 87/111/5 22/113/5 19/19/5
f 84/120/44 86/18/44 106/117/44
f 93/124/10 74/148/10 18/113/10
f 89/110/10 90/130/10 21/19/10
f 92/123/12 91/131/12 23/4/12
f 99/27/45 100/38/45 73/126/45
f 95/127/46 94/13/46 89/110/46
f 96/128/47 101/24/47 92/123/47
f 97/129/48 99/27/48 81/101/48
f 97/33/49 74/148/49 93/124/49
f 94/13/50 96/34/50 90/130/50
f 101/24/51 98/37/51 91/131/51
f 102/10/52 93/124/52 91/125/52
f 106/117/4 103/116/4 7/9/4
f 107/16/53 95/144/53 83/112/53
f 104/32/54 85/147/54 82/114/54
f 104/17/55 107/16/55 87/111/55
f 105/7/56 82/114/56 84/119/56
f 113/14/57 111/143/57 120/134/57
f 110/103/13 1/26/13 2/22/13
f 114/15/58 113/14/58 119/135/58
f 109/137/9 6/22/9 7/23/9
f 117/21/59 76/100/59 80/99/59
f 112/36/60 75/146/60 76/100/60
f 115/106/9 4/25/9 5/26/9
f 88/3/61 118/2/61 109/137/61
f 79/136/5 119/135/5 17/20/5
f 118/2/62 120/141/62 111/139/62
o TOP
v -0.109935 -0.515600 0.142529
v -0.185588 -0.495163 -0.094871
v -0.031452 -0.518832 0.183058
v -0.050366 -0.513722 0.123708
v -0.126019 -0.493285 -0.113692
v -0.144932 -0.488176 -0.173042
v 0.206824 -0.511322 0.107772
v 0.187911 -0.506213 0.048422
v 0.112257 -0.485776 -0.188979
v 0.093344 -0.480666 -0.248329
v 0.247480 -0.504335 0.029600
v 0.171826 -0.483898 -0.207800
v -0.132730 0.460951 0.191658
v -0.125607 0.519073 -0.051387
v -0.073054 0.435089 0.251511
v -0.071273 0.449620 0.190749
v -0.064149 0.507742 -0.052296
v -0.062368 0.522273 -0.113057
v 0.172777 0.389765 0.247877
v 0.174557 0.404296 0.187116
v 0.181681 0.462418 -0.055929
v 0.183462 0.476949 -0.116691
v 0.236015 0.392965 0.186208
v 0.243139 0.451087 -0.056838
vn 0.0039 -0.9962 -0.0870
vn 0.1796 0.9556 0.2338
vt 0.437500 0.625000
vt 0.375000 0.875000
vt 0.375000 0.625000
vt 0.125000 0.625000
vt 0.062500 0.875000
vt 0.062500 0.625000
vt 0.125000 0.562500
vt 0.125000 0.875000
vt 0.375000 0.937500
vt 0.125000 0.937500
vt 0.437500 0.875000
vt 0.375000 0.562500
vt 0.375000 0.125000
vt 0.125000 0.062500
vt 0.375000 0.062500
vt 0.375000 0.375000
vt 0.437500 0.125000
vt 0.437500 0.375000
vt 0.375000 0.437500
vt 0.125000 0.375000
vt 0.062500 0.375000
vt 0.125000 0.125000
vt 0.125000 0.437500
vt 0.062500 0.125000
s 0
f 132/149/63 128/150/63 129/151/63
f 125/152/63 121/153/63 122/154/63
f 126/155/63 129/151/63 125/152/63
f 124/156/63 129/151/63 128/150/63
f 124/156/63 127/157/63 123/158/63
f 132/149/63 131/159/63 128/150/63
f 125/152/63 124/156/63 121/153/63
f 126/155/63 130/160/63 129/151/63
f 124/156/63 125/152/63 129/151/63
f 124/156/63 128/150/63 127/157/63
f 140/161/64 135/162/64 139/163/64
f 141/164/64 143/165/64 144/166/64
f 142/167/64 137/168/64 141/164/64
f 134/169/64 136/170/64 137/168/64
f 140/161/64 137/168/64 136/170/64
f 140/161/64 136/170/64 135/162/64
f 141/164/64 140/161/64 143/165/64
f 142/167/64 138/171/64 137/168/64
f 134/169/64 133/172/64 136/170/64
f 140/161/64 141/164/64 137/168/64
