# Blender 4.2.3 LTS
# www.blender.org
o Cube
v -0.167834 -0.182331 0.153544
v 0.213704 -0.073758 0.153544
v -0.167834 -0.182331 -0.177843
v 0.234450 -0.182331 0.153544
v -0.167834 0.224475 0.153544
v -0.167834 -0.021608 -0.143953
v -0.167834 0.080979 0.041657
v -0.167834 0.236491 0.086391
v -0.021152 0.212364 0.153544
v 0.143809 -0.035189 0.153544
v 0.213704 -0.073758 0.153544
v 0.234450 -0.182331 0.153544
v 0.161190 -0.182331 -0.001205
v 0.092805 -0.182331 -0.026569
v 0.074396 -0.182331 -0.228574
v -0.068091 -0.182331 -0.163997
v -0.007311 0.126823 -0.011415
v -0.100128 0.225354 0.117388
v 0.040609 -0.028466 -0.084429
v -0.093856 0.195674 0.058166
vn -1.0000 -0.0000 -0.0000
vn -0.0000 -0.0000 1.0000
vn -0.0000 1.0000 -0.0000
vn -0.0000 -1.0000 -0.0000
vn 0.3432 0.8453 -0.4095
vn 0.8358 0.4227 -0.3505
vn -0.2094 0.2703 -0.9397
vn 0.0810 0.9811 0.1756
vn 0.3229 0.8594 -0.3965
vn -0.3852 0.3701 -0.8454
vn -0.3793 0.8098 -0.4476
vn 0.9529 0.2906 -0.0868
vn -0.3282 0.6064 -0.7242
vn 0.2426 0.7165 -0.6540
vn 0.1346 0.2044 -0.9696
vn 0.9071 0.1615 -0.3888
vn 0.3813 0.6910 -0.6142
vn 0.8906 0.1702 -0.4216
vn 0.2719 0.2835 -0.9196
vn 0.8131 0.5418 -0.2127
vn 0.2561 0.4749 -0.8420
vt 0.000000 0.000000
vt 0.263310 0.111888
vt 0.000000 0.331388
vt 0.147141 0.688357
vt 0.406805 1.000000
vt 0.000000 1.000000
vt 0.108573 0.618462
vt 0.000000 0.597716
vt 0.099743 0.682458
vt 0.260638 0.819887
vt 0.402284 1.000000
vt 0.441314 0.517263
vt 0.541431 0.492575
vt 0.557211 0.513909
vt 0.248663 0.276566
vt 0.570765 0.309483
vt 0.587263 0.521513
vt 0.628961 0.390754
vt 0.545978 0.492879
vt 0.522196 0.519618
vt 0.838677 0.301462
vt 0.823209 -0.107336
vt 0.433251 0.003898
vt 0.842299 0.001530
vt 0.288554 -0.008297
vt 0.948968 0.024541
vt 0.137348 0.223232
vt 0.060799 0.025525
vt 0.406805 0.000000
vt 0.418822 0.067154
vt 0.160723 0.297498
vt 0.394694 0.853319
vt 0.000000 0.668612
vt 0.242229 0.617881
vt 0.329024 0.845250
s 0
f 1/1/1 7/2/1 3/3/1
f 10/4/2 5/5/2 1/6/2
f 11/7/3 12/8/3 2/7/3
f 16/9/4 14/10/4 4/11/4
f 9/12/5 17/13/5 20/14/5
f 10/15/6 19/16/6 17/13/6
f 8/17/7 20/14/7 7/18/7
f 5/19/8 18/20/8 8/17/8
f 20/14/9 18/20/9 9/12/9
f 20/14/10 17/13/10 7/18/10
f 17/13/11 6/21/11 7/18/11
f 15/22/12 19/16/12 14/23/12
f 15/22/13 16/24/13 19/16/13
f 13/25/14 14/23/14 10/15/14
f 6/21/15 16/24/15 3/26/15
f 19/16/16 10/15/16 14/23/16
f 10/15/17 11/27/17 13/25/17
f 11/27/18 12/28/18 13/25/18
f 6/21/19 19/16/19 16/24/19
f 1/1/1 5/29/1 8/30/1
f 7/2/1 6/31/1 3/3/1
f 1/1/1 8/30/1 7/2/1
f 1/6/2 4/8/2 11/7/2
f 10/4/2 9/32/2 5/5/2
f 1/6/2 11/7/2 10/4/2
f 11/7/3 4/8/3 12/8/3
f 1/6/4 3/33/4 16/9/4
f 16/9/4 15/34/4 14/10/4
f 14/10/4 13/35/4 4/11/4
f 4/11/4 1/6/4 16/9/4
f 9/12/20 10/15/20 17/13/20
f 8/17/9 18/20/9 20/14/9
f 5/19/8 9/12/8 18/20/8
f 17/13/21 19/16/21 6/21/21
