# Blender 4.2.3 LTS
# www.blender.org
o Cube
v 0.500000 0.500000 -0.500000
v 0.500000 -0.500000 -0.500000
v 0.500000 0.422572 0.500000
v 0.500000 -0.500000 0.500000
v -0.500000 0.420840 -0.500000
v -0.500000 -0.500000 -0.500000
v -0.500000 0.500000 0.500000
v -0.500000 -0.500000 0.500000
v -0.500000 0.405760 -0.066898
v -0.280650 0.375572 -0.500000
v -0.400023 0.462344 -0.094511
v -0.073737 0.379070 0.500000
v -0.081323 0.501012 0.169241
v -0.500000 0.363679 0.272543
v -0.261554 0.462344 0.279137
v 0.500000 0.500000 0.127480
v 0.305512 0.459067 -0.013188
v 0.173866 0.423777 0.175496
v 0.200012 0.438615 0.318700
v -0.017835 0.427728 -0.273790
v 0.500000 0.461217 -0.223174
v 0.367054 0.500000 -0.224189
v 0.258224 0.435142 -0.241797
v 0.212303 0.397791 -0.500000
v 0.139660 0.408943 -0.352066
v 0.118521 0.370561 -0.073968
v -0.208702 0.462344 0.063824
v -0.069855 0.489529 -0.039438
v -0.170995 0.391004 -0.206311
v -0.289890 0.497334 0.370458
vn 0.2766 0.9517 0.1333
vn -0.0000 -0.0000 1.0000
vn -1.0000 -0.0000 -0.0000
vn -0.0000 -1.0000 -0.0000
vn 1.0000 -0.0000 -0.0000
vn -0.0000 -0.0000 -1.0000
vn -0.4860 0.8735 0.0304
vn 0.5418 0.8272 -0.1488
vn -0.3533 0.8325 0.4269
vn -0.2352 0.9702 -0.0576
vn -0.0739 0.9752 0.2086
vn 0.0246 0.9382 0.3453
vn 0.4745 0.8335 -0.2831
vn -0.1022 0.9869 -0.1246
vn -0.1286 0.9857 -0.1090
vn -0.4261 0.9047 -0.0065
vn -0.2201 0.9750 0.0310
vn -0.0443 0.9835 -0.1753
vn 0.1873 0.9559 -0.2263
vn -0.0824 0.9419 0.3257
vn 0.2903 0.9562 -0.0367
vn 0.2514 0.8861 0.3895
vn -0.4712 0.8523 -0.2271
vn 0.1999 0.9685 -0.1484
vn 0.0095 0.9383 0.3457
vn -0.2407 0.9632 0.1194
vn -0.3785 0.9209 -0.0929
vn -0.2442 0.9679 -0.0599
vn -0.0704 0.9766 0.2030
vn -0.2239 0.9743 0.0260
vn 0.2898 0.9451 -0.1508
vn -0.3338 0.9395 -0.0765
vn 0.2687 0.9279 0.2584
vn -0.5138 0.8577 0.0165
vn 0.0008 0.9727 -0.2319
vn -0.0618 0.9477 0.3133
vn -0.3969 0.9117 -0.1064
vn 0.2328 0.9628 -0.1375
vn 0.1076 0.9940 -0.0221
vn -0.3842 0.8780 -0.2855
vn 0.3340 0.7091 -0.6211
vn -0.2391 0.9687 -0.0664
vn -0.3358 0.8401 -0.4261
vn -0.2927 0.8202 -0.4916
vt 1.000000 1.000000
vt 0.867054 0.724189
vt 1.000000 0.723174
vt 0.426263 0.878181
vt 0.000000 0.998989
vt 0.000000 0.000000
vt 0.433102 0.904844
vt 0.000000 0.919909
vt 1.000000 0.000000
vt 0.000000 1.000000
vt 0.372520 0.998989
vt 0.000000 0.921639
vt 0.287696 0.896883
vt 0.000000 0.998989
vt 0.099977 0.594511
vt 0.000000 0.566898
vt 0.426263 0.000000
vt 0.238446 0.220863
vt 0.210110 0.129542
vt 0.291298 0.436176
vt 0.700011 0.181300
vt 1.000000 0.372520
vt 0.673865 0.324504
vt 0.418677 0.330759
vt 0.618521 0.573968
vt 0.430145 0.539438
vt 0.758224 0.741797
vt 0.712303 1.000000
vt 0.639660 0.852066
vt 0.805512 0.513188
vt 0.219350 1.000000
vt 0.329004 0.706311
vt 0.482165 0.773790
vt 0.000000 0.227457
vt 1.000000 0.921639
vt 1.000000 0.998989
vt 0.772543 0.862806
vt 0.723174 0.960245
vt 1.000000 0.919909
vt 0.780650 0.874687
s 0
f 1/1/1 22/2/1 21/3/1
f 12/4/2 7/5/2 8/6/2
f 9/7/3 5/8/3 6/6/3
f 2/9/4 8/10/4 6/6/4
f 16/11/5 3/12/5 4/6/5
f 24/13/6 1/14/6 2/6/6
f 11/15/7 5/10/7 9/16/7
f 12/17/8 15/18/8 30/19/8
f 27/20/9 11/15/9 9/16/9
f 19/21/10 16/22/10 18/23/10
f 3/9/11 19/21/11 12/17/11
f 19/21/12 13/24/12 12/17/12
f 18/23/13 26/25/13 28/26/13
f 23/27/14 24/28/14 25/29/14
f 21/3/15 17/30/15 16/22/15
f 23/27/16 26/25/16 17/30/16
f 10/31/17 29/32/17 20/33/17
f 20/33/18 24/28/18 10/31/18
f 27/20/19 29/32/19 11/15/19
f 29/32/20 26/25/20 20/33/20
f 28/26/21 13/24/21 18/23/21
f 7/6/22 12/17/22 30/19/22
f 1/1/23 23/27/23 22/2/23
f 11/15/24 10/31/24 5/10/24
f 12/17/25 13/24/25 15/18/25
f 9/16/26 14/34/26 27/20/26
f 14/34/27 15/18/27 27/20/27
f 15/18/28 13/24/28 27/20/28
f 3/9/29 16/22/29 19/21/29
f 16/22/30 17/30/30 18/23/30
f 19/21/31 18/23/31 13/24/31
f 23/27/32 1/1/32 24/28/32
f 21/3/33 22/2/33 17/30/33
f 17/30/34 22/2/34 23/27/34
f 23/27/35 25/29/35 20/33/35
f 20/33/36 26/25/36 23/27/36
f 26/25/37 18/23/37 17/30/37
f 10/31/38 11/15/38 29/32/38
f 20/33/39 25/29/39 24/28/39
f 27/20/40 28/26/40 29/32/40
f 29/32/41 28/26/41 26/25/41
f 28/26/42 27/20/42 13/24/42
f 30/19/43 15/18/43 14/34/43
f 14/34/44 7/6/44 30/19/44
f 8/6/2 4/9/2 12/4/2
f 4/9/2 3/35/2 12/4/2
f 6/6/3 8/9/3 9/7/3
f 8/9/3 7/36/3 14/37/3
f 14/37/3 9/7/3 8/9/3
f 2/9/4 4/1/4 8/10/4
f 4/6/5 2/9/5 21/38/5
f 2/9/5 1/36/5 21/38/5
f 21/38/5 16/11/5 4/6/5
f 2/6/6 6/9/6 24/13/6
f 6/9/6 5/39/6 10/40/6
f 6/9/6 10/40/6 24/13/6
