# Blender 4.2.3 LTS
# www.blender.org
o Cube.002
v 0.500000 0.500000 -0.500000
v 0.500000 -0.500000 -0.500000
v 0.500000 0.438288 0.500000
v 0.500000 -0.500000 0.500000
v -0.500000 0.500000 -0.500000
v -0.500000 -0.500000 -0.500000
v -0.500000 0.500000 0.500000
v -0.500000 -0.500000 0.500000
v -0.084706 0.442653 -0.500000
v -0.205903 0.457598 0.500000
v 0.500000 0.389606 -0.052413
v -0.500000 0.408566 -0.159673
v 0.500000 0.428773 -0.211215
v 0.261918 0.475218 -0.288588
v 0.363080 0.380221 0.252308
vn 0.1109 0.9649 0.2380
vn -0.0000 -0.0000 1.0000
vn -1.0000 -0.0000 -0.0000
vn -0.0000 -1.0000 -0.0000
vn 1.0000 -0.0000 -0.0000
vn -0.0000 -0.0000 -1.0000
vn -0.0926 0.9952 -0.0327
vn 0.0265 0.9699 -0.2420
vn -0.2549 0.9632 -0.0849
vn -0.0976 0.9952 0.0067
vn 0.1322 0.9573 0.2572
vn 0.1414 0.9806 -0.1359
vn 0.1910 0.9723 0.1350
vn 0.2201 0.9670 0.1287
vn -0.0885 0.9960 -0.0083
vt 1.000000 1.000000
vt 0.761918 0.788588
vt 1.000000 0.711215
vt 1.000000 0.938289
vt 0.294097 0.957598
vt 0.000000 0.000000
vt 0.340327 0.908566
vt 0.000000 1.000000
vt 1.000000 0.000000
vt 0.552413 0.889606
vt 0.000000 0.938289
vt 0.584706 0.942653
vt 0.000000 0.659673
vt 0.294097 0.000000
vt 0.863080 0.247692
vt 0.711215 0.928773
vt 1.000000 0.552413
vt 0.415294 1.000000
s 0
f 1/1/1 14/2/1 13/3/1
f 3/4/2 10/5/2 8/6/2
f 12/7/3 5/8/3 6/6/3
f 2/9/4 8/8/4 6/6/4
f 11/10/5 3/11/5 4/6/5
f 9/12/6 1/8/6 2/6/6
f 12/13/7 10/14/7 14/2/7
f 8/6/2 4/9/2 3/4/2
f 3/9/8 15/15/8 10/14/8
f 10/5/2 7/8/2 8/6/2
f 6/6/3 8/9/3 12/7/3
f 8/9/3 7/1/3 12/7/3
f 2/9/4 4/1/4 8/8/4
f 4/6/5 2/9/5 11/10/5
f 2/9/5 1/1/5 13/16/5
f 11/10/5 2/9/5 13/16/5
f 2/6/6 6/9/6 9/12/6
f 6/9/6 5/1/6 9/12/6
f 3/9/9 11/17/9 15/15/9
f 14/2/10 1/1/10 9/18/10
f 9/18/11 5/8/11 12/13/11
f 12/13/12 7/6/12 10/14/12
f 10/14/13 15/15/13 14/2/13
f 15/15/14 11/17/14 14/2/14
f 11/17/1 13/3/1 14/2/1
f 14/2/15 9/18/15 12/13/15
