# Blender 4.2.3 LTS
# www.blender.org
o Cube
v 0.500000 0.500000 -0.500000
v 0.500000 -0.500000 -0.500000
v 0.500000 0.438288 0.500000
v 0.500000 -0.500000 0.500000
v -0.500000 0.500000 -0.500000
v -0.500000 -0.500000 -0.500000
v -0.500000 0.500000 0.500000
v -0.500000 -0.500000 0.500000
v -0.084706 0.442653 -0.500000
v -0.205903 0.457598 0.500000
v 0.500000 0.389606 -0.052413
v -0.500000 0.408566 -0.159673
v 0.500000 0.428773 -0.211215
v 0.261918 0.475218 -0.288588
v 0.363080 0.380221 0.252308
vn 0.1109 0.9649 0.2380
vn -0.0000 -0.0000 1.0000
vn -1.0000 -0.0000 -0.0000
vn -0.0000 -1.0000 -0.0000
vn 1.0000 -0.0000 -0.0000
vn -0.0000 -0.0000 -1.0000
vn -0.0926 0.9952 -0.0327
vn 0.0265 0.9699 -0.2420
vn -0.2549 0.9632 -0.0849
vn -0.0976 0.9952 0.0067
vn 0.1322 0.9573 0.2572
vn 0.1414 0.9806 -0.1359
vn 0.1910 0.9723 0.1350
vn 0.2201 0.9670 0.1287
vn -0.0885 0.9960 -0.0083
vt 1.000000 1.000000
vt 0.741520 0.810221
vt 1.000000 0.711215
vt 1.000000 0.938289
vt 0.294097 0.957598
vt 0.000000 0.000000
vt 0.340327 0.908566
vt 0.000000 1.000000
vt 1.000000 0.000000
vt 0.552413 0.889606
vt 0.000000 0.938289
vt 0.584706 0.942653
vt 0.049561 0.648635
vt 0.413853 0.055801
vt 0.746142 0.897282
vt 0.685407 0.289526
vt 0.617403 0.557174
vt 0.007651 0.503651
vt 0.711215 0.928773
vt 0.816794 0.780771
vt 0.339551 1.000000
vt 0.395281 1.000000
vt 0.000000 0.978061
vt 0.073415 0.000000
vt 0.942012 0.398160
vt 1.000000 0.693878
vt 0.972683 0.843052
s 0
f 1/1/1 14/2/1 13/3/1
f 3/4/2 10/5/2 8/6/2
f 12/7/3 5/8/3 6/6/3
f 2/9/4 8/8/4 6/6/4
f 11/10/5 3/11/5 4/6/5
f 9/12/6 1/8/6 2/6/6
f 12/13/7 10/14/7 14/15/7
f 8/6/2 4/9/2 3/4/2
f 3/16/8 15/17/8 10/18/8
f 10/5/2 7/8/2 8/6/2
f 6/6/3 8/9/3 12/7/3
f 8/9/3 7/1/3 12/7/3
f 2/9/4 4/1/4 8/8/4
f 4/6/5 2/9/5 11/10/5
f 2/9/5 1/1/5 13/19/5
f 11/10/5 2/9/5 13/19/5
f 2/6/6 6/9/6 9/12/6
f 6/9/6 5/1/6 9/12/6
f 3/16/9 11/20/9 15/17/9
f 14/2/10 1/1/10 9/21/10
f 9/22/11 5/23/11 12/13/11
f 12/13/12 7/24/12 10/14/12
f 10/14/13 15/25/13 14/15/13
f 15/25/14 11/26/14 14/15/14
f 11/26/1 13/27/1 14/15/1
f 14/15/15 9/22/15 12/13/15
