# Blender 4.2.3 LTS
# www.blender.org
o Cube
v 0.500000 0.163467 0.500000
v 0.500000 0.163467 -0.500000
v 0.500000 -0.500000 0.500000
v 0.500000 -0.500000 -0.500000
v -0.500000 0.163467 0.500000
v -0.500000 0.163467 -0.500000
v -0.500000 -0.500000 0.500000
v -0.500000 -0.500000 -0.500000
v 0.500000 0.260437 -0.050696
v -0.500000 -0.500000 0.000000
v 0.500000 -0.500000 0.000000
v -0.500000 0.260437 -0.050696
v -0.500000 -0.500000 0.250000
v 0.500000 0.025046 0.170655
v 0.500000 -0.500000 0.250000
v -0.500000 0.025046 0.170655
v 0.500000 0.314648 -0.250000
v 0.500000 -0.500000 -0.250000
v -0.500000 0.314648 -0.250000
v -0.500000 -0.500000 -0.250000
v -0.080538 0.013557 -0.500000
v 0.000000 -0.500000 0.500000
v 0.000000 -0.500000 -0.500000
v -0.080538 0.013558 0.500000
v -0.008245 0.249635 -0.063816
v -0.010811 0.469044 0.240834
v -0.021903 0.466444 -0.208891
v 0.250000 -0.500000 -0.500000
v 0.169462 0.500000 0.500000
v 0.215599 0.146753 -0.274323
v 0.169462 0.500000 -0.500000
v 0.250000 -0.500000 0.500000
v -0.330538 0.500000 -0.500000
v -0.250000 -0.500000 0.500000
v -0.250000 -0.500000 -0.500000
v -0.330538 0.500000 0.500000
v -0.248019 0.471748 0.253663
v -0.250000 0.084946 -0.250000
v -0.500000 -0.500000 0.375000
v 0.500000 0.094257 0.335328
v 0.500000 -0.500000 0.375000
v -0.500000 0.094257 0.335328
v -0.040269 0.256779 0.375000
v 0.273216 0.421959 0.375000
v -0.290269 0.500000 0.375000
v 0.044462 0.256779 -0.500000
v 0.125000 -0.500000 0.500000
v 0.125000 -0.500000 -0.500000
v 0.044462 0.256779 0.500000
v 0.115002 0.285509 -0.071281
v 0.131294 0.421959 0.289648
v 0.121385 0.310716 -0.249071
v 0.049441 0.339369 0.323979
v -0.125000 -0.500000 -0.500000
v -0.205538 0.256779 0.500000
v -0.125000 0.368530 -0.000000
v -0.101411 0.469441 0.214594
v -0.205538 0.256779 -0.500000
v -0.125000 -0.500000 0.500000
v -0.415269 0.331733 -0.500000
v -0.375000 -0.500000 0.500000
v -0.375000 -0.500000 -0.500000
v -0.415269 0.331734 0.500000
v -0.417376 0.380218 -0.066705
v -0.375000 0.262523 0.210328
v -0.421453 0.199797 -0.287920
v -0.442611 0.297128 0.269683
v 0.500000 0.239482 -0.374299
v 0.500000 -0.500000 -0.374299
v -0.500000 0.239482 -0.374299
v -0.500000 -0.500000 -0.374299
v -0.039323 0.257476 -0.373007
v 0.181054 0.275964 -0.332266
v -0.276445 0.291308 -0.415013
v 0.101540 0.290265 -0.451888
v -0.136482 0.274726 -0.403010
v -0.420894 0.265395 -0.385655
v 0.375000 -0.500000 -0.500000
v 0.334731 0.331734 0.500000
v 0.369462 0.371808 -0.005817
v 0.326615 0.230701 -0.285938
v 0.334731 0.331733 -0.500000
v 0.375000 -0.500000 0.500000
v 0.384360 0.252136 0.386900
v 0.396969 0.280934 -0.401817
v 0.500000 0.142742 0.059980
v 0.500000 -0.500000 0.125000
v -0.500000 0.142742 0.059980
v -0.500000 -0.500000 0.125000
v 0.084624 0.322854 0.078973
v 0.228995 0.336254 0.081882
v 0.109800 0.322869 0.102347
v -0.392536 0.321371 0.032656
v 0.358728 0.373627 0.026472
v -0.500000 -0.500000 -0.125000
v 0.500000 0.287542 -0.150348
v 0.500000 -0.500000 -0.125000
v -0.500000 0.287542 -0.150348
v -0.047094 0.259192 -0.026618
v 0.250456 0.230604 -0.161134
v -0.266272 0.292473 -0.157943
v 0.047954 0.281165 -0.106563
v -0.108957 0.273965 -0.111402
v -0.356430 0.290008 -0.183072
vn -0.0000 -0.0000 1.0000
vn -1.0000 -0.0000 -0.0000
vn -0.0000 -0.0000 -1.0000
vn 1.0000 -0.0000 -0.0000
vn 0.7918 0.6057 -0.0788
vn 0.1811 0.9363 -0.3011
vn 0.2083 0.8449 0.4927
vn 0.6956 0.5940 -0.4041
vn 0.3594 0.9243 -0.1284
vn -0.3953 0.8358 0.3810
vn -0.8009 0.5988 0.0051
vn -0.0357 0.8299 0.5568
vn -0.0000 1.0000 -0.0000
vn -0.4563 0.4374 -0.7749
vn -0.1069 0.5418 0.8337
vn 0.1005 0.4416 0.8916
vn -0.0944 -0.9955 0.0028
vn 0.4236 0.7823 -0.4568
vn -0.5002 0.5603 -0.6603
vn 0.2099 0.6265 0.7506
vn 0.2523 -0.7361 0.6281
vn -0.9221 0.2837 -0.2633
vn -0.8522 0.4824 -0.2028
vn -0.3342 0.8065 -0.4877
vn -0.6901 0.4958 0.5272
vn 0.0432 0.9640 0.2622
vn -0.9654 0.2404 -0.1010
vn -0.8618 0.4340 -0.2624
vn 0.7772 0.3994 0.4862
vn -0.7663 0.3938 -0.5077
vn -0.8728 0.4395 0.2121
vn -0.7160 0.3680 0.5933
vn 0.7225 0.3713 -0.5831
vn 0.7106 0.6979 -0.0893
vn 0.5338 0.5243 0.6634
vn 0.2640 0.4525 0.8518
vn 0.7835 0.5349 0.3163
vn -0.2152 0.9678 -0.1306
vn -0.6485 0.5215 0.5545
vn -0.2034 0.9714 -0.1223
vn 0.2262 0.7584 -0.6112
vn 0.6738 0.7157 0.1837
vn -0.5868 0.7265 -0.3575
vn 0.8383 0.5261 0.1431
vn -0.9946 0.1008 -0.0228
vn 0.4876 0.4891 -0.7232
vn -0.7241 -0.4145 -0.5513
vn 0.2488 0.9564 0.1526
vn 0.2838 -0.9532 0.1046
vn -0.2838 0.9156 -0.2849
vn 0.3440 0.8346 -0.4303
vn 0.1575 -0.9401 0.3024
vn -0.5918 -0.4930 0.6377
vn 0.2568 -0.3930 -0.8829
vn -0.2696 0.1129 0.9563
vn 0.4317 0.7174 -0.5468
vn 0.0734 -0.8164 -0.5727
vn -0.1093 0.5480 0.8293
vn 0.6600 0.7481 -0.0693
vn 0.9310 0.0903 -0.3536
vn 0.0579 -0.8106 0.5827
vn 0.0943 0.6100 -0.7868
vn 0.1354 -0.9427 -0.3048
vn 0.1764 0.9668 0.1847
vn -0.1499 0.9755 0.1608
vn 0.0048 0.8238 0.5669
vn 0.1784 -0.3625 -0.9147
vn 0.3088 -0.9474 0.0840
vn 0.8136 0.5134 -0.2729
vn 0.7356 0.6245 -0.2625
vn 0.9381 0.2373 0.2524
vn 0.8391 0.5307 0.1192
vn -0.1310 0.9366 0.3250
vn -0.1750 0.8784 -0.4447
vn -0.3894 0.6551 0.6475
vn 0.8843 0.4165 0.2110
vn 0.8550 0.4394 0.2754
vn 0.5762 0.2961 0.7618
vn -0.2315 0.5425 0.8075
vn 0.4195 0.7185 0.5547
vn -0.9946 -0.0956 0.0398
vn -0.6203 0.5592 0.5500
vn 0.1184 0.9929 -0.0092
vn 0.1253 0.9917 -0.0292
vn 0.1693 0.9854 0.0183
vn 0.1320 0.9219 -0.3643
vn -0.1014 0.7736 -0.6256
vn 0.6745 0.7124 0.1938
vn -0.1537 0.7869 -0.5976
vn -0.4625 0.8556 0.2327
vn -0.6688 0.5166 -0.5346
vn -0.0963 0.9048 -0.4149
vn 0.1772 0.7801 -0.6001
vn 0.3805 0.6988 -0.6058
vn -0.1993 0.9406 -0.2747
vn 0.1344 0.8160 -0.5622
vn 0.6050 0.7422 0.2883
vn -0.1259 0.9380 0.3231
vn 0.6844 0.6722 -0.2825
vn -0.2935 0.8180 -0.4947
vn -0.6928 -0.3387 -0.6366
vn 0.8148 0.4042 0.4156
vn -0.6215 0.3194 -0.7153
vn -0.8583 0.4322 -0.2765
vn 0.2543 0.6237 0.7392
vn -0.6354 0.6734 -0.3780
vn 0.7344 -0.5841 0.3458
vn -0.8739 0.4491 0.1860
vn 0.4179 0.7824 -0.4619
vn 0.7106 0.6897 -0.1391
vn -0.6729 -0.0485 -0.7382
vn 0.8286 0.4626 0.3152
vn -0.8769 0.4237 0.2269
vn -0.6689 0.3756 -0.6415
vn -0.8925 0.4494 0.0384
vn -0.2092 0.8503 0.4830
vn 0.1363 0.9523 -0.2732
vn -0.3409 0.9115 -0.2299
vn 0.1132 0.3998 0.9096
vn -0.7531 0.3689 0.5447
vn 0.3342 0.3902 -0.8579
vn 0.4345 0.7707 -0.4661
vn 0.1085 0.9093 0.4017
vn -0.6045 0.7963 -0.0218
vn 0.7021 0.6896 -0.1772
vn -0.7180 0.5052 0.4787
vn -0.2430 0.9288 -0.2800
vn -0.3094 -0.6674 0.6774
vn 0.6875 0.4975 0.5290
vn -0.1482 0.7932 -0.5906
vn 0.2345 0.4095 -0.8817
vn -0.7147 -0.4363 -0.5467
vn 0.5592 0.7266 0.3990
vn 0.7217 0.4056 0.5609
vn 0.2834 -0.9476 0.1476
vt 0.000000 0.663467
vt 0.125000 0.000000
vt 0.084731 0.831734
vt 1.000000 0.000000
vt 0.835328 0.594257
vt 0.875000 0.000000
vt 0.000000 0.663467
vt 0.125000 0.000000
vt 0.165269 0.831733
vt 0.000000 0.663467
vt 0.125000 0.000000
vt 0.164672 0.594257
vt 0.000000 0.831733
vt 0.113100 0.752136
vt 0.550696 0.760437
vt 0.625000 0.000000
vt 0.650348 0.787542
vt 0.500000 0.000000
vt 0.349652 0.787542
vt 0.375000 0.000000
vt 0.418118 0.836254
vt 0.210352 0.921959
vt 0.125000 0.921959
vt 0.329345 0.525046
vt 0.375000 0.000000
vt 0.440020 0.642742
vt 0.750000 0.000000
vt 0.559980 0.642742
vt 0.250000 0.000000
vt 0.125701 0.739482
vt 0.125702 0.000000
vt 0.750000 0.814648
vt 0.874298 0.000000
vt 0.874299 0.739482
vt 0.785938 0.730701
vt 0.901817 0.780933
vt 0.500000 0.343750
vt 0.468750 0.375000
vt 0.468750 0.343750
vt 0.580538 0.513557
vt 0.705538 0.756779
vt 0.419462 0.513558
vt 0.544462 0.756779
vt 0.669462 1.000000
vt 0.875000 0.000000
vt 0.834731 0.831734
vt 0.749071 0.810716
vt 0.832266 0.775964
vt 0.951888 0.790264
vt 0.455538 0.756779
vt 0.226784 0.921959
vt 0.450559 0.839369
vt 0.330538 1.000000
vt 0.455538 0.756779
vt 0.830538 1.000000
vt 0.875000 0.000000
vt 0.915269 0.831733
vt 0.915269 0.831734
vt 0.790269 1.000000
vt 0.942611 0.797128
vt 0.437500 0.281250
vt 0.406425 0.312500
vt 0.406425 0.281250
vt 0.000000 0.000000
vt 1.000000 1.000000
vt 1.000000 0.000000
vt 0.169462 1.000000
vt 0.294462 0.756779
vt 0.748019 0.971748
vt 0.875000 0.762523
vt 0.250000 0.000000
vt 0.670655 0.525046
vt 0.459731 0.756779
vt 0.631293 0.921959
vt 0.489188 0.969044
vt 0.549441 0.839369
vt 0.406425 0.375000
vt 0.259166 0.969044
vt 0.397653 0.822868
vt 0.421027 0.822854
vt 0.521903 0.966444
vt 0.398460 0.790264
vt 0.539323 0.757476
vt 0.750000 0.000000
vt 0.285406 0.969441
vt 0.246337 0.971748
vt 0.125000 0.756779
vt 0.500000 0.406250
vt 0.500000 0.375000
vt 0.608957 0.773965
vt 0.710328 0.762523
vt 1.000000 0.814648
vt 0.920894 0.765395
vt 1.000000 0.739482
vt 0.532656 0.821371
vt 1.000000 0.760437
vt 0.856430 0.790008
vt 1.000000 0.787542
vt 1.000000 0.663467
vt 0.769683 0.797128
vt 1.000000 0.663467
vt 0.250000 0.000000
vt 0.776445 0.791308
vt 0.636483 0.774726
vt 1.000000 0.831733
vt 1.000000 0.000000
vt 0.000000 0.000000
vt 1.000000 1.000000
vt 1.000000 0.663467
vt 0.437500 0.437500
vt 0.406425 0.468750
vt 0.406425 0.437500
vt 0.000000 1.000000
vt 0.468750 0.437500
vt 0.468750 0.500000
vt 0.437500 0.468750
vt 0.433295 0.880218
vt 0.449304 0.760437
vt 0.130537 0.871808
vt 0.415376 0.822854
vt 0.141272 0.873627
vt 0.683072 0.790008
vt 0.500000 0.868530
vt 0.611402 0.773965
vt 0.473528 0.873627
vt 0.505817 0.871808
vt 0.921453 0.699797
vt 0.126993 0.757476
vt 0.473382 0.759192
vt 0.291109 0.966444
vt 0.468750 0.281250
vt 0.437500 0.312500
vt 0.250000 0.814648
vt 0.531250 0.375000
vt 0.531250 0.406250
vt 0.468750 0.312500
vt 0.508245 0.749635
vt 0.625000 0.868530
vt 0.708891 0.966444
vt 0.661134 0.730603
vt 0.873007 0.757476
vt 0.526618 0.759192
vt 0.609800 0.822868
vt 0.858727 0.873627
vt 0.584624 0.822854
vt 0.728995 0.836254
vt 0.531250 0.468750
vt 0.531250 0.437500
vt 0.562500 0.406250
vt 0.593750 0.406250
vt 0.593750 0.437500
vt 0.125000 1.000000
vt 0.000000 0.756779
vt 0.398589 0.969441
vt 0.084987 0.791308
vt 0.250000 0.584946
vt 0.342057 0.792473
vt 0.388598 0.773965
vt 0.766273 0.792473
vt 0.406425 0.343750
vt 0.468750 0.406250
vt 0.384997 0.785509
vt 0.249544 0.730603
vt 1.000000 0.787542
vt 1.000000 0.814648
vt 0.826615 0.730701
vt 0.601411 0.969441
vt 0.657943 0.792473
vt 0.467344 0.821371
vt 0.566705 0.880218
vt 0.000000 0.000000
vt 0.774322 0.646753
vt 0.330538 1.000000
vt 0.830538 1.000000
vt 0.000000 1.000000
vt 0.378615 0.810716
vt 0.917376 0.880218
vt 1.000000 0.831733
vt 0.318946 0.775964
vt 0.563816 0.749635
vt 0.571281 0.785509
vt 0.500000 0.468750
s 0
f 5/1/1 61/2/1 63/3/1
f 7/4/2 42/5/2 39/6/2
f 2/7/3 78/8/3 82/9/3
f 1/10/4 41/11/4 40/12/4
f 79/13/5 40/12/5 84/14/5
f 9/15/4 97/16/4 96/17/4
f 10/18/2 98/19/2 95/20/2
f 91/21/6 51/22/6 44/23/6
f 14/24/4 87/25/4 86/26/4
f 13/27/2 88/28/2 89/16/2
f 20/29/2 70/30/2 71/31/2
f 17/32/4 69/33/4 68/34/4
f 81/35/7 68/34/7 85/36/7
f 56/37/8 99/38/8 103/39/8
f 21/40/3 54/16/3 58/41/3
f 24/42/1 47/16/1 49/43/1
f 29/44/1 83/45/1 79/46/1
f 52/47/9 73/48/9 75/49/9
f 49/50/10 44/51/10 53/52/10
f 31/53/3 48/25/3 46/54/3
f 33/55/3 62/56/3 60/57/3
f 63/58/11 45/59/11 67/60/11
f 66/61/12 74/62/12 77/63/12
f 8/64/13 3/65/13 4/66/13
f 36/67/1 59/20/1 55/68/1
f 67/60/14 37/69/14 65/70/14
f 40/12/4 15/71/4 14/24/4
f 39/6/2 16/72/2 13/27/2
f 43/73/15 51/74/15 26/75/15
f 46/54/3 23/18/3 21/40/3
f 24/42/16 53/76/16 43/73/16
f 72/77/17 100/64/17 99/38/17
f 26/78/18 92/79/18 90/80/18
f 27/81/19 75/82/19 72/83/19
f 49/43/1 32/84/1 29/44/1
f 57/85/20 37/86/20 43/87/20
f 55/68/1 22/18/1 24/42/1
f 58/41/3 35/84/3 33/55/3
f 30/64/21 50/88/21 25/89/21
f 103/90/22 27/81/22 72/83/22
f 42/5/23 65/91/23 16/72/23
f 19/92/24 77/93/24 70/94/24
f 16/72/25 93/95/25 88/28/25
f 12/96/26 104/97/26 98/98/26
f 5/99/27 67/100/27 42/5/27
f 60/57/3 8/66/3 6/101/3
f 63/3/1 34/102/1 36/67/1
f 70/94/28 60/57/28 6/101/28
f 74/103/29 58/41/29 33/55/29
f 72/83/30 46/54/30 21/40/30
f 77/93/31 33/55/31 60/57/31
f 75/82/32 31/53/32 46/54/32
f 76/104/33 21/40/33 58/41/33
f 85/36/34 2/101/34 82/105/34
f 68/34/4 4/106/4 2/101/4
f 71/31/2 6/7/2 8/107/2
f 73/48/35 82/105/35 31/108/35
f 79/46/1 3/66/1 1/109/1
f 30/110/36 85/111/36 73/112/36
f 29/113/37 84/14/37 44/23/37
f 82/9/3 28/102/3 31/53/3
f 100/114/38 96/115/38 81/116/38
f 88/28/39 64/117/39 12/118/39
f 80/119/40 90/120/40 94/121/40
f 104/122/41 56/123/41 103/124/41
f 89/16/2 12/118/2 10/18/2
f 86/26/4 11/18/4 9/15/4
f 94/125/42 9/15/42 80/126/42
f 30/110/43 100/114/43 81/116/43
f 98/98/44 66/127/44 19/92/44
f 72/128/45 99/129/45 27/130/45
f 104/131/46 38/132/46 66/61/46
f 73/112/47 25/89/47 27/64/47
f 95/20/2 19/133/2 20/29/2
f 96/17/4 18/84/4 17/32/4
f 81/116/48 73/112/48 100/114/48
f 91/64/49 25/89/49 50/88/49
f 25/89/50 90/134/50 50/88/50
f 57/85/51 90/80/51 56/123/51
f 92/135/52 25/89/52 91/64/52
f 92/135/53 90/134/53 25/89/53
f 101/136/54 25/64/54 104/131/54
f 103/39/55 101/136/55 104/131/55
f 25/137/56 103/90/56 56/138/56
f 25/64/57 101/136/57 103/39/57
f 50/88/58 27/64/58 25/89/58
f 27/139/59 100/140/59 73/48/59
f 73/112/60 100/114/60 30/110/60
f 100/114/61 50/88/61 30/64/61
f 73/48/62 72/141/62 27/139/62
f 72/77/63 73/112/63 100/114/63
f 73/48/64 99/142/64 100/140/64
f 92/143/65 94/144/65 90/145/65
f 94/144/66 92/143/66 91/146/66
f 73/112/67 81/116/67 30/110/67
f 50/88/68 94/147/68 91/148/68
f 44/23/69 84/14/69 91/21/69
f 84/14/70 40/12/70 14/24/70
f 86/26/71 84/14/71 14/24/71
f 86/26/72 94/125/72 84/14/72
f 94/125/73 91/21/73 84/14/73
f 91/148/74 92/135/74 51/149/74
f 51/149/75 53/150/75 44/151/75
f 37/86/76 45/152/76 55/153/76
f 45/152/77 36/113/77 55/153/77
f 55/68/78 24/42/78 43/73/78
f 43/73/79 26/75/79 57/154/79
f 55/153/80 43/87/80 37/86/80
f 74/155/81 38/156/81 101/157/81
f 103/158/82 99/129/82 27/130/82
f 74/103/83 101/159/83 76/104/83
f 101/159/84 103/90/84 72/83/84
f 72/77/85 76/160/85 101/136/85
f 100/114/86 102/161/86 50/88/86
f 50/162/87 80/119/87 100/163/87
f 80/126/88 9/15/88 96/17/88
f 100/140/89 80/126/89 96/17/89
f 96/164/90 17/165/90 81/166/90
f 65/70/91 37/69/91 56/138/91
f 37/69/92 57/167/92 56/138/92
f 57/85/93 26/78/93 90/80/93
f 90/120/94 25/137/94 56/138/94
f 56/123/95 101/168/95 93/169/95
f 101/168/96 104/122/96 64/170/96
f 93/169/97 101/168/97 64/170/97
f 93/95/98 65/91/98 56/123/98
f 5/1/1 7/64/1 61/2/1
f 7/4/2 5/99/2 42/5/2
f 2/7/3 4/64/3 78/8/3
f 1/10/4 3/171/4 41/11/4
f 79/13/99 1/10/99 40/12/99
f 9/15/4 11/18/4 97/16/4
f 10/18/2 12/118/2 98/19/2
f 14/24/4 15/71/4 87/25/4
f 13/27/2 16/72/2 88/28/2
f 20/29/2 19/133/2 70/30/2
f 17/32/4 18/84/4 69/33/4
f 81/35/100 17/32/100 68/34/100
f 56/37/101 25/89/101 99/38/101
f 21/40/3 23/18/3 54/16/3
f 24/42/1 22/18/1 47/16/1
f 29/44/1 32/84/1 83/45/1
f 52/47/102 30/172/102 73/48/102
f 49/50/103 29/173/103 44/51/103
f 31/53/3 28/102/3 48/25/3
f 33/55/3 35/84/3 62/56/3
f 63/58/104 36/174/104 45/59/104
f 66/61/105 38/132/105 74/62/105
f 8/64/13 7/175/13 3/65/13
f 36/67/1 34/102/1 59/20/1
f 67/60/106 45/59/106 37/69/106
f 40/12/4 41/11/4 15/71/4
f 39/6/2 42/5/2 16/72/2
f 43/73/107 53/76/107 51/74/107
f 46/54/3 48/25/3 23/18/3
f 24/42/108 49/43/108 53/76/108
f 26/78/109 51/22/109 92/79/109
f 27/81/110 52/176/110 75/82/110
f 49/43/1 47/16/1 32/84/1
f 55/68/1 59/20/1 22/18/1
f 58/41/3 54/16/3 35/84/3
f 42/5/111 67/100/111 65/91/111
f 19/92/112 66/127/112 77/93/112
f 16/72/113 65/91/113 93/95/113
f 12/96/114 64/177/114 104/97/114
f 5/99/115 63/178/115 67/100/115
f 60/57/3 62/56/3 8/66/3
f 63/3/1 61/2/1 34/102/1
f 70/94/116 77/93/116 60/57/116
f 74/103/117 76/104/117 58/41/117
f 72/83/118 75/82/118 46/54/118
f 77/93/119 74/103/119 33/55/119
f 75/82/120 73/179/120 31/53/120
f 76/104/121 72/83/121 21/40/121
f 85/36/122 68/34/122 2/101/122
f 68/34/4 69/33/4 4/106/4
f 71/31/2 70/30/2 6/7/2
f 73/48/123 85/36/123 82/105/123
f 79/46/1 83/45/1 3/66/1
f 30/110/124 81/116/124 85/111/124
f 29/113/125 79/13/125 84/14/125
f 82/9/3 78/8/3 28/102/3
f 88/28/126 93/95/126 64/117/126
f 80/119/127 50/162/127 90/120/127
f 104/122/128 25/180/128 56/123/128
f 89/16/2 88/28/2 12/118/2
f 86/26/4 87/25/4 11/18/4
f 94/125/129 86/26/129 9/15/129
f 98/98/130 104/97/130 66/127/130
f 104/131/131 101/136/131 38/132/131
f 73/112/132 30/64/132 25/89/132
f 95/20/2 98/19/2 19/133/2
f 96/17/4 97/16/4 18/84/4
f 27/139/133 50/181/133 100/140/133
f 73/48/134 27/139/134 99/142/134
f 50/88/135 80/182/135 94/147/135
