# Blender 4.2.3 LTS
# www.blender.org
o Cube
v 0.500000 0.163467 0.500000
v 0.500000 0.163467 -0.500000
v 0.500000 -0.500000 0.500000
v 0.500000 -0.500000 -0.500000
v -0.500000 0.163467 0.500000
v -0.500000 0.163467 -0.500000
v -0.500000 -0.500000 0.500000
v -0.500000 -0.500000 -0.500000
v 0.500000 0.260437 -0.050696
v -0.500000 -0.500000 0.000000
v 0.500000 -0.500000 0.000000
v -0.500000 0.260437 -0.050696
v -0.500000 -0.500000 0.250000
v 0.500000 0.025046 0.170655
v 0.500000 -0.500000 0.250000
v -0.500000 0.025046 0.170655
v 0.500000 0.314648 -0.250000
v 0.500000 -0.500000 -0.250000
v -0.500000 0.314648 -0.250000
v -0.500000 -0.500000 -0.250000
v -0.080538 0.013557 -0.500000
v 0.000000 -0.500000 0.500000
v 0.000000 -0.500000 -0.500000
v -0.080538 0.013558 0.500000
v -0.026258 0.312440 -0.040905
v 0.250000 -0.500000 -0.500000
v 0.169462 0.500000 0.500000
v 0.169462 0.500000 -0.500000
v 0.250000 -0.500000 0.500000
v -0.330538 0.500000 -0.500000
v -0.250000 -0.500000 0.500000
v -0.250000 -0.500000 -0.500000
v -0.330538 0.500000 0.500000
v -0.500000 -0.500000 0.375000
v 0.500000 0.094257 0.335328
v 0.500000 -0.500000 0.375000
v -0.500000 0.094257 0.335328
v 0.044462 0.256779 -0.500000
v 0.125000 -0.500000 0.500000
v 0.125000 -0.500000 -0.500000
v 0.044462 0.256779 0.500000
v -0.125000 -0.500000 -0.500000
v -0.205538 0.256779 0.500000
v -0.205538 0.256779 -0.500000
v -0.125000 -0.500000 0.500000
v -0.415269 0.331733 -0.500000
v -0.375000 -0.500000 0.500000
v -0.375000 -0.500000 -0.500000
v -0.415269 0.331734 0.500000
v 0.500000 0.239482 -0.374299
v 0.500000 -0.500000 -0.374299
v -0.500000 0.239482 -0.374299
v -0.500000 -0.500000 -0.374299
v 0.375000 -0.500000 -0.500000
v 0.334731 0.331734 0.500000
v 0.334731 0.331733 -0.500000
v 0.375000 -0.500000 0.500000
v 0.500000 0.142742 0.059980
v 0.500000 -0.500000 0.125000
v -0.500000 0.142742 0.059980
v -0.500000 -0.500000 0.125000
v -0.500000 -0.500000 -0.125000
v 0.500000 0.287542 -0.150348
v 0.500000 -0.500000 -0.125000
v -0.500000 0.287542 -0.150348
vn -0.0000 -0.0000 1.0000
vn -1.0000 -0.0000 -0.0000
vn -0.0000 -0.0000 -1.0000
vn 1.0000 -0.0000 -0.0000
vn 0.5857 0.6958 -0.4157
vn -0.2048 0.8376 -0.5065
vn -0.8778 0.4511 0.1612
vn -0.7460 0.3756 -0.5499
vn -0.0000 1.0000 -0.0000
vn -0.5908 0.7438 -0.3126
vn 0.2264 0.8335 -0.5040
vn -0.0899 0.6823 0.7255
vn -0.1107 0.9590 0.2609
vn -0.8618 0.4340 -0.2624
vn 0.8250 0.4240 -0.3736
vn -0.8734 0.4489 -0.1890
vn -0.7057 0.3554 0.6129
vn 0.6143 0.6034 0.5084
vn 0.6378 0.6265 -0.4480
vn 0.0810 0.6828 0.7261
vn 0.5504 0.7697 -0.3235
vn 0.8416 0.4325 0.3235
vn 0.0997 0.9601 0.2612
vn 0.6844 0.6722 -0.2825
vn -0.3858 0.8484 0.3626
vt 0.000000 0.663467
vt 0.125000 0.000000
vt 0.084731 0.831734
vt 1.000000 0.000000
vt 0.835328 0.594257
vt 0.875000 0.000000
vt 0.000000 0.663467
vt 0.125000 0.000000
vt 0.165269 0.831733
vt 0.000000 0.663467
vt 0.125000 0.000000
vt 0.164672 0.594257
vt 0.834731 0.000000
vt 1.000000 0.164672
vt 0.473742 0.540905
vt 0.550696 0.760437
vt 0.625000 0.000000
vt 0.650348 0.787542
vt 0.500000 0.000000
vt 0.349652 0.787542
vt 0.375000 0.000000
vt 0.329345 0.525046
vt 0.375000 0.000000
vt 0.440020 0.642742
vt 0.750000 0.000000
vt 0.559980 0.642742
vt 0.250000 0.000000
vt 0.125701 0.739482
vt 0.125702 0.000000
vt 0.750000 0.814648
vt 0.874298 0.000000
vt 0.874299 0.739482
vt 1.000000 0.750000
vt 1.000000 0.874299
vt 0.580538 0.513557
vt 0.705538 0.756779
vt 0.419462 0.513558
vt 0.544462 0.756779
vt 0.669462 1.000000
vt 0.875000 0.000000
vt 0.834731 0.831734
vt 0.544462 0.000000
vt 0.669462 0.000000
vt 0.330538 1.000000
vt 0.455538 0.756779
vt 0.830538 1.000000
vt 0.875000 0.000000
vt 0.915269 0.831733
vt 0.084731 0.000000
vt 0.169462 0.000000
vt 0.000000 0.000000
vt 1.000000 1.000000
vt 1.000000 0.000000
vt 0.169462 1.000000
vt 0.294462 0.756779
vt 0.250000 0.000000
vt 0.670655 0.525046
vt 0.419462 0.000000
vt 0.750000 0.000000
vt 0.000000 0.329345
vt 0.000000 0.164672
vt 0.000000 0.874299
vt 0.000000 0.750000
vt 0.000000 0.440020
vt 0.000000 0.650348
vt 0.000000 0.550696
vt 1.000000 0.663467
vt 0.250000 0.000000
vt 0.084731 1.000000
vt 0.000000 1.000000
vt 0.169462 1.000000
vt 0.294462 1.000000
vt 0.419462 1.000000
vt 0.544462 1.000000
vt 0.669462 1.000000
vt 0.834731 1.000000
vt 1.000000 0.000000
vt 0.000000 0.000000
vt 1.000000 0.663467
vt 0.449304 0.760437
vt 1.000000 0.440020
vt 1.000000 0.550696
vt 0.250000 0.814648
vt 1.000000 0.329345
vt 0.294462 0.000000
vt 1.000000 0.650348
vt 1.000000 0.663467
vt 0.000000 0.000000
s 0
f 5/1/1 47/2/1 49/3/1
f 7/4/2 37/5/2 34/6/2
f 2/7/3 54/8/3 56/9/3
f 1/10/4 36/11/4 35/12/4
f 55/13/5 35/14/5 25/15/5
f 9/16/4 64/17/4 63/18/4
f 10/19/2 65/20/2 62/21/2
f 14/22/4 59/23/4 58/24/4
f 13/25/2 60/26/2 61/17/2
f 20/27/2 52/28/2 53/29/2
f 17/30/4 51/31/4 50/32/4
f 25/15/6 17/33/6 50/34/6
f 21/35/3 42/17/3 44/36/3
f 24/37/1 39/17/1 41/38/1
f 27/39/1 57/40/1 55/41/1
f 25/15/7 41/42/7 27/43/7
f 28/44/3 40/23/3 38/45/3
f 30/46/3 48/47/3 46/48/3
f 25/15/8 49/49/8 33/50/8
f 8/51/9 3/52/9 4/53/9
f 33/54/1 45/21/1 43/55/1
f 35/12/4 15/56/4 14/22/4
f 34/6/2 16/57/2 13/25/2
f 38/45/3 23/19/3 21/35/3
f 25/15/7 24/58/7 41/42/7
f 41/38/1 29/59/1 27/39/1
f 43/55/1 22/19/1 24/37/1
f 44/36/3 32/59/3 30/46/3
f 16/60/10 37/61/10 25/15/10
f 52/62/11 19/63/11 25/15/11
f 60/64/12 16/60/12 25/15/12
f 65/65/13 12/66/13 25/15/13
f 5/51/10 25/15/10 37/61/10
f 46/48/3 8/53/3 6/67/3
f 49/3/1 31/68/1 33/54/1
f 52/62/14 46/69/14 6/70/14
f 30/71/15 25/15/15 44/72/15
f 21/73/16 25/15/16 38/74/16
f 46/69/17 25/15/17 30/71/17
f 38/74/16 25/15/16 28/75/16
f 44/72/15 25/15/15 21/73/15
f 25/15/18 2/52/18 56/76/18
f 50/32/4 4/77/4 2/67/4
f 53/29/2 6/7/2 8/78/2
f 28/75/18 25/15/18 56/76/18
f 55/41/1 3/53/1 1/79/1
f 25/15/19 27/43/19 55/13/19
f 56/9/3 26/68/3 28/44/3
f 12/66/12 60/64/12 25/15/12
f 61/17/2 12/80/2 10/19/2
f 58/24/4 11/19/4 9/16/4
f 25/15/20 58/81/20 9/82/20
f 19/63/13 65/65/13 25/15/13
f 62/21/2 19/83/2 20/27/2
f 63/18/4 18/59/4 17/30/4
f 25/15/21 35/14/21 14/84/21
f 58/81/20 25/15/20 14/84/20
f 25/15/22 33/50/22 43/85/22
f 43/85/22 24/58/22 25/15/22
f 25/15/23 9/82/23 63/86/23
f 63/86/23 17/33/23 25/15/23
f 5/1/1 7/51/1 47/2/1
f 7/4/2 5/87/2 37/5/2
f 2/7/3 4/51/3 54/8/3
f 1/10/4 3/88/4 36/11/4
f 55/13/24 1/53/24 35/14/24
f 9/16/4 11/19/4 64/17/4
f 10/19/2 12/80/2 65/20/2
f 14/22/4 15/56/4 59/23/4
f 13/25/2 16/57/2 60/26/2
f 20/27/2 19/83/2 52/28/2
f 17/30/4 18/59/4 51/31/4
f 21/35/3 23/19/3 42/17/3
f 24/37/1 22/19/1 39/17/1
f 27/39/1 29/59/1 57/40/1
f 28/44/3 26/68/3 40/23/3
f 30/46/3 32/59/3 48/47/3
f 8/51/9 7/70/9 3/52/9
f 33/54/1 31/68/1 45/21/1
f 35/12/4 36/11/4 15/56/4
f 34/6/2 37/5/2 16/57/2
f 38/45/3 40/23/3 23/19/3
f 41/38/1 39/17/1 29/59/1
f 43/55/1 45/21/1 22/19/1
f 44/36/3 42/17/3 32/59/3
f 5/51/8 49/49/8 25/15/8
f 46/48/3 48/47/3 8/53/3
f 49/3/1 47/2/1 31/68/1
f 52/62/25 25/15/25 46/69/25
f 25/15/6 50/34/6 2/52/6
f 50/32/4 51/31/4 4/77/4
f 53/29/2 52/28/2 6/7/2
f 55/41/1 57/40/1 3/53/1
f 56/9/3 54/8/3 26/68/3
f 61/17/2 60/26/2 12/80/2
f 58/24/4 59/23/4 11/19/4
f 62/21/2 65/20/2 19/83/2
f 63/18/4 64/17/4 18/59/4
