# Blender 4.3.2
# www.blender.org
o Plane
v -1.500000 0.000000 -1.500000
v -1.500000 0.000000 1.500000
v 1.500000 0.000000 -1.500000
v 1.500000 0.000000 1.500000
v -1.500000 0.000000 -0.500000
v -1.500000 0.000000 0.500000
v 1.500000 0.000000 0.500000
v 1.500000 0.000000 -0.500000
v 0.500000 0.000000 -1.500000
v -0.500000 0.000000 -1.500000
v -0.500000 0.000000 1.500000
v 0.500000 0.000000 1.500000
v -0.500000 0.000000 -0.500000
v 0.500000 0.000000 -0.500000
v -0.500000 0.000000 0.500000
v 0.500000 0.000000 0.500000
vn -0.0000 1.0000 -0.0000
vt 1.000000 0.000000
vt 0.000000 1.000000
vt 0.000000 0.000000
vt 1.000000 1.000000
s 0
f 12/1/1 7/2/1 16/3/1
f 14/1/1 3/2/1 9/3/1
f 16/1/1 8/2/1 14/3/1
f 6/1/1 13/2/1 5/3/1
f 15/1/1 14/2/1 13/3/1
f 5/1/1 10/2/1 1/3/1
f 13/1/1 9/2/1 10/3/1
f 2/1/1 15/2/1 6/3/1
f 11/1/1 16/2/1 15/3/1
f 12/1/1 4/4/1 7/2/1
f 14/1/1 8/4/1 3/2/1
f 16/1/1 7/4/1 8/2/1
f 6/1/1 15/4/1 13/2/1
f 15/1/1 16/4/1 14/2/1
f 5/1/1 13/4/1 10/2/1
f 13/1/1 14/4/1 9/2/1
f 2/1/1 11/4/1 15/2/1
f 11/1/1 12/4/1 16/2/1
o DoorL
v -0.437500 0.000000 -0.218750
v -0.437500 2.000000 -0.218750
v -0.003125 0.000000 -0.218750
v -0.003125 2.000000 -0.218750
v -0.437500 0.000000 -0.125000
v -0.437500 2.000000 -0.125000
v -0.003125 0.000000 -0.125000
v -0.003125 2.000000 -0.125000
vn -0.0000 -0.0000 -1.0000
vn 1.0000 -0.0000 -0.0000
vn -0.0000 -0.0000 1.0000
vn -1.0000 -0.0000 -0.0000
vn -0.0000 -1.0000 -0.0000
vn -0.0000 1.0000 -0.0000
vt 0.306404 0.888889
vt 0.499460 0.000000
vt 0.306404 0.000000
vt 0.499460 0.888889
s 0
f 18/5/2 19/6/2 17/7/2
f 20/8/3 23/6/3 19/6/3
f 24/8/4 21/7/4 23/6/4
f 22/5/5 17/7/5 21/7/5
f 23/6/6 17/7/6 19/6/6
f 24/8/7 18/5/7 22/5/7
f 18/5/2 20/8/2 19/6/2
f 20/8/3 24/8/3 23/6/3
f 24/8/4 22/5/4 21/7/4
f 22/5/5 18/5/5 17/7/5
f 23/6/6 21/7/6 17/7/6
f 24/8/7 20/8/7 18/5/7
o DoorR
v 0.437500 0.000000 -0.125000
v 0.437500 2.000000 -0.125000
v 0.003125 0.000000 -0.125000
v 0.003125 2.000000 -0.125000
v 0.437500 0.000000 -0.218750
v 0.437500 2.000000 -0.218750
v 0.003125 0.000000 -0.218750
v 0.003125 2.000000 -0.218750
vn -0.0000 -0.0000 1.0000
vn -1.0000 -0.0000 -0.0000
vn -0.0000 -0.0000 -1.0000
vn 1.0000 -0.0000 -0.0000
vn -0.0000 -1.0000 -0.0000
vn -0.0000 1.0000 -0.0000
vt 0.684211 0.888889
vt 0.501316 0.000000
vt 0.684211 0.000000
vt 0.501316 0.888889
s 0
f 26/9/8 27/10/8 25/11/8
f 28/12/9 31/10/9 27/10/9
f 32/12/10 29/11/10 31/10/10
f 30/9/11 25/11/11 29/11/11
f 31/10/12 25/11/12 27/10/12
f 32/12/13 26/9/13 30/9/13
f 26/9/8 28/12/8 27/10/8
f 28/12/9 32/12/9 31/10/9
f 32/12/10 30/9/10 29/11/10
f 30/9/11 26/9/11 25/11/11
f 31/10/12 29/11/12 25/11/12
f 32/12/13 28/12/13 26/9/13
o Frames
v 0.625000 0.000000 -0.125000
v 0.625000 2.000000 -0.125000
v 0.625000 0.000000 0.000000
v 0.625000 2.000000 0.000000
v 0.437500 0.000000 -0.125000
v 0.437500 2.000000 -0.125000
v 0.437500 0.000000 0.000000
v 0.437500 2.000000 0.000000
v -0.437500 0.000000 -0.125000
v -0.437500 2.000000 -0.125000
v -0.437500 0.000000 -0.000000
v -0.437500 2.000000 -0.000000
v -0.625000 0.000000 -0.125000
v -0.625000 2.000000 -0.125000
v -0.625000 0.000000 -0.000000
v -0.625000 2.000000 -0.000000
vn 1.0000 -0.0000 -0.0000
vn -0.0000 -0.0000 1.0000
vn -1.0000 -0.0000 -0.0000
vn -0.0000 -0.0000 -1.0000
vn -0.0000 -1.0000 -0.0000
vn -0.0000 1.0000 -0.0000
vt 0.388819 0.526539
vt 0.388819 0.549406
vt 0.421314 0.549406
vt 0.421314 0.526539
vt 0.572958 0.526539
vt 0.572958 0.549406
vt 0.605453 0.549406
vt 0.605453 0.526539
s 0
f 34/13/14 35/14/14 33/13/14
f 36/14/15 39/15/15 35/14/15
f 40/15/16 37/16/16 39/15/16
f 38/16/17 33/13/17 37/16/17
f 39/15/18 33/13/18 35/14/18
f 36/14/19 38/16/19 40/15/19
f 42/17/14 43/18/14 41/17/14
f 44/18/15 47/19/15 43/18/15
f 48/19/16 45/20/16 47/19/16
f 46/20/17 41/17/17 45/20/17
f 47/19/18 41/17/18 43/18/18
f 44/18/19 46/20/19 48/19/19
f 34/13/14 36/14/14 35/14/14
f 36/14/15 40/15/15 39/15/15
f 40/15/16 38/16/16 37/16/16
f 38/16/17 34/13/17 33/13/17
f 39/15/18 37/16/18 33/13/18
f 36/14/19 34/13/19 38/16/19
f 42/17/14 44/18/14 43/18/14
f 44/18/15 48/19/15 47/19/15
f 48/19/16 46/20/16 45/20/16
f 46/20/17 42/17/17 41/17/17
f 47/19/18 45/20/18 41/17/18
f 44/18/19 42/17/19 46/20/19
