# Blender 4.3.2
# www.blender.org
o DoorL
v -0.437500 0.000000 0.281250
v -0.437500 2.000000 0.281250
v -0.003125 0.000000 0.281250
v -0.003125 2.000000 0.281250
v -0.437500 0.000000 0.375000
v -0.437500 2.000000 0.375000
v -0.003125 0.000000 0.375000
v -0.003125 2.000000 0.375000
vn -0.0000 -0.0000 -1.0000
vn 1.0000 -0.0000 -0.0000
vn -0.0000 -0.0000 1.0000
vn -1.0000 -0.0000 -0.0000
vn -0.0000 -1.0000 -0.0000
vn -0.0000 1.0000 -0.0000
vt 0.306404 0.888889
vt 0.499460 0.000000
vt 0.306404 0.000000
vt 0.499460 0.888889
s 0
f 2/1/1 3/2/1 1/3/1
f 4/4/2 7/2/2 3/2/2
f 8/4/3 5/3/3 7/2/3
f 6/1/4 1/3/4 5/3/4
f 7/2/5 1/3/5 3/2/5
f 8/4/6 2/1/6 6/1/6
f 2/1/1 4/4/1 3/2/1
f 4/4/2 8/4/2 7/2/2
f 8/4/3 6/1/3 5/3/3
f 6/1/4 2/1/4 1/3/4
f 7/2/5 5/3/5 1/3/5
f 8/4/6 4/4/6 2/1/6
o DoorR
v 0.437500 0.000000 0.375000
v 0.437500 2.000000 0.375000
v 0.003125 0.000000 0.375000
v 0.003125 2.000000 0.375000
v 0.437500 0.000000 0.281250
v 0.437500 2.000000 0.281250
v 0.003125 0.000000 0.281250
v 0.003125 2.000000 0.281250
vn -0.0000 -0.0000 1.0000
vn -1.0000 -0.0000 -0.0000
vn -0.0000 -0.0000 -1.0000
vn 1.0000 -0.0000 -0.0000
vn -0.0000 -1.0000 -0.0000
vn -0.0000 1.0000 -0.0000
vt 0.684211 0.888889
vt 0.501316 0.000000
vt 0.684211 0.000000
vt 0.501316 0.888889
s 0
f 10/5/7 11/6/7 9/7/7
f 12/8/8 15/6/8 11/6/8
f 16/8/9 13/7/9 15/6/9
f 14/5/10 9/7/10 13/7/10
f 15/6/11 9/7/11 11/6/11
f 16/8/12 10/5/12 14/5/12
f 10/5/7 12/8/7 11/6/7
f 12/8/8 16/8/8 15/6/8
f 16/8/9 14/5/9 13/7/9
f 14/5/10 10/5/10 9/7/10
f 15/6/11 13/7/11 9/7/11
f 16/8/12 12/8/12 10/5/12
o Frames
v 0.500000 0.000000 0.375000
v 0.500000 2.000000 0.375000
v 0.500000 0.000000 0.500000
v 0.500000 2.000000 0.500000
v 0.437500 0.000000 0.375000
v 0.437500 2.000000 0.375000
v 0.437500 0.000000 0.500000
v 0.437500 2.000000 0.500000
v -0.437500 0.000000 0.375000
v -0.437500 2.000000 0.375000
v -0.437500 0.000000 0.500000
v -0.437500 2.000000 0.500000
v -0.500000 0.000000 0.375000
v -0.500000 2.000000 0.375000
v -0.500000 0.000000 0.500000
v -0.500000 2.000000 0.500000
vn 1.0000 -0.0000 -0.0000
vn -0.0000 -0.0000 1.0000
vn -1.0000 -0.0000 -0.0000
vn -0.0000 -0.0000 -1.0000
vn -0.0000 -1.0000 -0.0000
vn -0.0000 1.0000 -0.0000
vt 0.388819 0.526539
vt 0.388819 0.549406
vt 0.421314 0.549406
vt 0.421314 0.526539
vt 0.572958 0.526539
vt 0.572958 0.549406
vt 0.605453 0.549406
vt 0.605453 0.526539
s 0
f 18/9/13 19/10/13 17/9/13
f 20/10/14 23/11/14 19/10/14
f 24/11/15 21/12/15 23/11/15
f 22/12/16 17/9/16 21/12/16
f 23/11/17 17/9/17 19/10/17
f 24/11/18 18/9/18 22/12/18
f 26/13/13 27/14/13 25/13/13
f 28/14/14 31/15/14 27/14/14
f 32/15/15 29/16/15 31/15/15
f 30/16/16 25/13/16 29/16/16
f 31/15/17 25/13/17 27/14/17
f 28/14/18 30/16/18 32/15/18
f 25/13/18 23/11/18 21/12/18
f 28/14/17 22/12/17 24/11/17
f 18/9/13 20/10/13 19/10/13
f 20/10/14 24/11/14 23/11/14
f 24/11/15 22/12/15 21/12/15
f 22/12/16 18/9/16 17/9/16
f 23/11/17 21/12/17 17/9/17
f 24/11/18 20/10/18 18/9/18
f 26/13/13 28/14/13 27/14/13
f 28/14/14 32/15/14 31/15/14
f 32/15/15 30/16/15 29/16/15
f 30/16/16 26/13/16 25/13/16
f 31/15/17 29/16/17 25/13/17
f 28/14/18 26/13/18 30/16/18
f 25/13/18 27/14/18 23/11/18
f 28/14/17 26/13/17 22/12/17
