# Blender 4.3.2
# www.blender.org
mtllib msr_control_extension.mtl
o Top
v 0.125000 0.000000 0.875000
v 0.125000 0.000000 0.562500
v 0.125000 0.000000 0.437500
v 0.125000 0.000000 0.125000
v 0.437500 0.000000 0.875000
v 0.437500 0.000000 0.562500
v 0.437500 0.000000 0.437500
v 0.437500 0.000000 0.125000
v 0.562500 0.000000 0.875000
v 0.562500 0.000000 0.562500
v 0.562500 0.000000 0.437500
v 0.562500 0.000000 0.125000
v 0.875000 0.000000 0.875000
v 0.875000 0.000000 0.562500
v 0.875000 0.000000 0.437500
v 0.875000 0.000000 0.125000
v 0.125000 1.000000 0.875000
v 0.125000 1.000000 0.562500
v 0.125000 1.000000 0.437500
v 0.125000 1.000000 0.125000
v 0.437500 1.000000 0.875000
v 0.437500 1.000000 0.562500
v 0.437500 1.000000 0.437500
v 0.437500 1.000000 0.125000
v 0.562500 1.000000 0.875000
v 0.562500 1.000000 0.562500
v 0.562500 1.000000 0.437500
v 0.562500 1.000000 0.125000
v 0.875000 1.000000 0.875000
v 0.875000 1.000000 0.562500
v 0.875000 1.000000 0.437500
v 0.875000 1.000000 0.125000
vn -0.0000 -1.0000 -0.0000
vn -0.0000 1.0000 -0.0000
vt 0.875000 0.125000
vt 0.562500 0.437500
vt 0.875000 0.437500
vt 0.875000 0.562500
vt 0.562500 0.875000
vt 0.875000 0.875000
vt 0.437500 0.125000
vt 0.125000 0.437500
vt 0.437500 0.437500
vt 0.437500 0.562500
vt 0.125000 0.875000
vt 0.437500 0.875000
vt 0.562500 0.125000
vt 0.562500 0.562500
vt 0.125000 0.125000
vt 0.125000 0.562500
s 0

usemtl TopMTL

f 13/1/1 10/2/1 14/3/1
f 15/4/1 12/5/1 16/6/1
f 5/7/1 2/8/1 6/9/1
f 7/10/1 4/11/1 8/12/1
f 26/2/2 29/1/2 30/3/2
f 28/5/2 31/4/2 32/6/2
f 18/8/2 21/7/2 22/9/2
f 20/11/2 23/10/2 24/12/2
f 13/1/1 9/13/1 10/2/1
f 15/4/1 11/14/1 12/5/1
f 5/7/1 1/15/1 2/8/1
f 7/10/1 3/16/1 4/11/1
f 26/2/2 25/13/2 29/1/2
f 28/5/2 27/14/2 31/4/2
f 18/8/2 17/15/2 21/7/2
f 20/11/2 19/16/2 23/10/2
o Side
v 0.125000 0.000000 0.875000
v 0.125000 0.000000 0.562500
v 0.125000 0.000000 0.437500
v 0.125000 0.000000 0.125000
v 0.437500 0.000000 0.875000
v 0.437500 0.000000 0.562500
v 0.437500 0.000000 0.437500
v 0.437500 0.000000 0.125000
v 0.562500 0.000000 0.875000
v 0.562500 0.000000 0.562500
v 0.562500 0.000000 0.437500
v 0.562500 0.000000 0.125000
v 0.875000 0.000000 0.875000
v 0.875000 0.000000 0.562500
v 0.875000 0.000000 0.437500
v 0.875000 0.000000 0.125000
v 0.125000 1.000000 0.875000
v 0.125000 1.000000 0.562500
v 0.125000 1.000000 0.437500
v 0.125000 1.000000 0.125000
v 0.437500 1.000000 0.875000
v 0.437500 1.000000 0.562500
v 0.437500 1.000000 0.437500
v 0.437500 1.000000 0.125000
v 0.562500 1.000000 0.875000
v 0.562500 1.000000 0.562500
v 0.562500 1.000000 0.437500
v 0.562500 1.000000 0.125000
v 0.875000 1.000000 0.875000
v 0.875000 1.000000 0.562500
v 0.875000 1.000000 0.437500
v 0.875000 1.000000 0.125000
vn -0.0000 -0.0000 1.0000
vn 1.0000 -0.0000 -0.0000
vn -1.0000 -0.0000 -0.0000
vn -0.0000 -0.0000 -1.0000
vt 0.437500 0.000000
vt 0.125000 1.000000
vt 0.125000 0.000000
vt 0.875000 0.000000
vt 0.562500 1.000000
vt 0.562500 0.000000
vt 0.562500 1.000000
vt 0.562500 0.000000
vt 0.875000 0.000000
vt 0.875000 0.000000
vt 0.562500 1.000000
vt 0.562500 0.000000
vt 0.437500 0.000000
vt 0.125000 1.000000
vt 0.125000 0.000000
vt 0.437500 0.000000
vt 0.125000 1.000000
vt 0.125000 0.000000
vt 0.437500 0.000000
vt 0.125000 1.000000
vt 0.125000 0.000000
vt 0.437500 0.000000
vt 0.125000 0.000000
vt 0.875000 0.000000
vt 0.562500 0.000000
vt 0.437500 1.000000
vt 0.875000 1.000000
vt 0.875000 1.000000
vt 0.875000 1.000000
vt 0.437500 1.000000
vt 0.437500 1.000000
vt 0.437500 1.000000
s 0

usemtl SideMTL

f 39/17/3 51/18/3 35/19/3
f 48/20/4 63/21/4 47/22/4
f 33/20/5 50/23/5 34/24/5
f 36/25/6 56/23/6 40/24/6
f 45/26/3 57/27/3 41/28/3
f 35/29/5 52/30/5 36/31/5
f 42/32/6 62/33/6 46/34/6
f 38/35/4 53/36/4 37/37/4
f 47/26/3 59/27/3 43/28/3
f 40/20/4 55/21/4 39/22/4
f 44/38/6 64/33/6 48/39/6
f 41/20/5 58/23/5 42/24/5
f 37/17/3 49/18/3 33/19/3
f 43/29/5 60/30/5 44/31/5
f 34/40/6 54/23/6 38/41/6
f 46/35/4 61/36/4 45/37/4
f 39/17/3 55/42/3 51/18/3
f 48/20/4 64/43/4 63/21/4
f 33/20/5 49/43/5 50/23/5
f 36/25/6 52/44/6 56/23/6
f 45/26/3 61/45/3 57/27/3
f 35/29/5 51/46/5 52/30/5
f 42/32/6 58/47/6 62/33/6
f 38/35/4 54/48/4 53/36/4
f 47/26/3 63/45/3 59/27/3
f 40/20/4 56/43/4 55/21/4
f 44/38/6 60/47/6 64/33/6
f 41/20/5 57/43/5 58/23/5
f 37/17/3 53/42/3 49/18/3
f 43/29/5 59/46/5 60/30/5
f 34/40/6 50/44/6 54/23/6
f 46/35/4 62/48/4 61/36/4
